<svg width="861" height="227" viewBox="0 0 861 227" fill="none" xmlns="http://www.w3.org/2000/svg">
<rect width="123" height="123" fill="#BF0978"/>
<rect x="123" width="123" height="123" fill="#D76FA0"/>
<rect x="246" width="123" height="123" fill="#E9B3CA"/>
<rect x="369" width="123" height="123" fill="#F5F5F5"/>
<rect x="615" width="123" height="123" fill="#7FC8AE"/>
<rect x="492" width="123" height="123" fill="#BBDFD1"/>
<rect x="738" width="123" height="123" fill="#32B08C"/>
<path d="M3.28087 171H7.15826V148.971L17.0009 171H19.7278L29.5278 149.014V171H33.4052V141.515H29.2722L18.3643 165.887L7.45652 141.515H3.28087V171ZM62.1375 159.283C62.1375 151.911 56.9818 147.267 50.3349 147.267C43.7305 147.267 38.5322 151.911 38.5322 159.283C38.5322 166.697 43.5601 171.383 50.1644 171.383C56.8114 171.383 62.1375 166.697 62.1375 159.283ZM42.4949 159.283C42.4949 153.403 46.2018 150.633 50.2922 150.633C54.2975 150.633 58.1749 153.403 58.1749 159.283C58.1749 165.205 54.2122 167.975 50.1644 167.975C46.1166 167.975 42.4949 165.205 42.4949 159.283ZM71.1129 158.303C71.1129 152.891 73.9251 151.23 77.632 151.23H78.6547V147.224C74.9477 147.224 72.4338 148.843 71.1129 151.443V147.65H67.2355V171H71.1129V158.303ZM93.0584 150.548C97.0636 150.548 100.472 153.062 100.43 157.621H85.6871C86.1132 153.062 89.2662 150.548 93.0584 150.548ZM103.966 163.799H99.7906C98.9384 166.313 96.7227 168.103 93.2288 168.103C89.2662 168.103 85.9427 165.503 85.6445 160.774H104.307C104.392 159.964 104.435 159.283 104.435 158.43C104.435 152.039 100.004 147.267 93.2288 147.267C86.4114 147.267 81.6819 151.911 81.6819 159.283C81.6819 166.697 86.5819 171.383 93.2288 171.383C99.0236 171.383 102.773 168.06 103.966 163.799ZM119.464 156.13C119.464 165.035 125.983 171.256 134.292 171.256C140.726 171.256 145.839 168.06 148.054 162.35H143.41C141.791 165.887 138.638 167.89 134.292 167.89C128.071 167.89 123.426 163.373 123.426 156.13C123.426 148.843 128.071 144.327 134.292 144.327C138.638 144.327 141.791 146.33 143.41 149.909H148.054C145.839 144.157 140.726 140.918 134.292 140.918C125.983 140.918 119.464 147.224 119.464 156.13ZM152.377 159.24C152.377 166.483 157.192 171.383 163.413 171.383C167.716 171.383 170.742 169.168 172.148 166.654V171H176.068V147.65H172.148V151.911C170.784 149.483 167.802 147.267 163.456 147.267C157.192 147.267 152.377 151.954 152.377 159.24ZM172.148 159.283C172.148 164.779 168.483 167.975 164.223 167.975C159.962 167.975 156.34 164.737 156.34 159.24C156.34 153.743 159.962 150.633 164.223 150.633C168.483 150.633 172.148 153.871 172.148 159.283ZM186.498 158.303C186.498 152.891 189.31 151.23 193.017 151.23H194.039V147.224C190.332 147.224 187.818 148.843 186.498 151.443V147.65H182.62V171H186.498V158.303ZM215.303 164.651C215.133 156.3 201.583 159.325 201.583 153.786C201.583 151.911 203.287 150.548 206.142 150.548C209.253 150.548 211.042 152.252 211.213 154.596H215.09C214.834 150.037 211.426 147.267 206.27 147.267C201.072 147.267 197.706 150.207 197.706 153.786C197.706 162.478 211.511 159.453 211.511 164.651C211.511 166.569 209.807 168.103 206.739 168.103C203.458 168.103 201.455 166.398 201.242 164.14H197.237C197.493 168.401 201.327 171.383 206.781 171.383C211.937 171.383 215.303 168.486 215.303 164.651Z" fill="black"/>
<path d="M626.894 171H630.772V157.621H641.253V154.468H630.772V144.455H643.682V141.302H626.894V171ZM658.293 150.548C662.298 150.548 665.707 153.062 665.664 157.621H650.921C651.348 153.062 654.501 150.548 658.293 150.548ZM669.201 163.799H665.025C664.173 166.313 661.957 168.103 658.463 168.103C654.501 168.103 651.177 165.503 650.879 160.774H669.541C669.627 159.964 669.669 159.283 669.669 158.43C669.669 152.039 665.238 147.267 658.463 147.267C651.646 147.267 646.916 151.911 646.916 159.283C646.916 166.697 651.816 171.383 658.463 171.383C664.258 171.383 668.008 168.06 669.201 163.799ZM679.346 171H683.352L688.976 152.465L694.6 171H698.606L705.892 147.65H702.057L696.773 167.293L691.106 147.65H687.144L681.349 167.25L675.98 147.65H672.018L679.346 171ZM719.668 150.548C723.673 150.548 727.082 153.062 727.039 157.621H712.296C712.722 153.062 715.875 150.548 719.668 150.548ZM730.575 163.799H726.4C725.548 166.313 723.332 168.103 719.838 168.103C715.875 168.103 712.552 165.503 712.254 160.774H730.916C731.002 159.964 731.044 159.283 731.044 158.43C731.044 152.039 726.613 147.267 719.838 147.267C713.021 147.267 708.291 151.911 708.291 159.283C708.291 166.697 713.191 171.383 719.838 171.383C725.633 171.383 729.382 168.06 730.575 163.799ZM740.04 158.303C740.04 152.891 742.852 151.23 746.559 151.23H747.581V147.224C743.874 147.224 741.36 148.843 740.04 151.443V147.65H736.162V171H740.04V158.303ZM761.968 156.13C761.968 165.035 768.487 171.256 776.796 171.256C783.23 171.256 788.343 168.06 790.558 162.35H785.914C784.295 165.887 781.142 167.89 776.796 167.89C770.575 167.89 765.931 163.373 765.931 156.13C765.931 148.843 770.575 144.327 776.796 144.327C781.142 144.327 784.295 146.33 785.914 149.909H790.558C788.343 144.157 783.23 140.918 776.796 140.918C768.487 140.918 761.968 147.224 761.968 156.13ZM794.882 159.24C794.882 166.483 799.696 171.383 805.917 171.383C810.221 171.383 813.246 169.168 814.652 166.654V171H818.572V147.65H814.652V151.911C813.289 149.483 810.306 147.267 805.96 147.267C799.696 147.267 794.882 151.954 794.882 159.24ZM814.652 159.283C814.652 164.779 810.988 167.975 806.727 167.975C802.466 167.975 798.844 164.737 798.844 159.24C798.844 153.743 802.466 150.633 806.727 150.633C810.988 150.633 814.652 153.871 814.652 159.283ZM829.002 158.303C829.002 152.891 831.814 151.23 835.521 151.23H836.544V147.224C832.837 147.224 830.323 148.843 829.002 151.443V147.65H825.124V171H829.002V158.303ZM857.807 164.651C857.637 156.3 844.087 159.325 844.087 153.786C844.087 151.911 845.792 150.548 848.646 150.548C851.757 150.548 853.546 152.252 853.717 154.596H857.594C857.339 150.037 853.93 147.267 848.774 147.267C843.576 147.267 840.21 150.207 840.21 153.786C840.21 162.478 854.015 159.453 854.015 164.651C854.015 166.569 852.311 168.103 849.243 168.103C845.962 168.103 843.959 166.398 843.746 164.14H839.741C839.997 168.401 843.832 171.383 849.286 171.383C854.441 171.383 857.807 168.486 857.807 164.651Z" fill="black"/>
</svg>
