<svg width="861" height="227" viewBox="0 0 861 227" fill="none" xmlns="http://www.w3.org/2000/svg">
<rect width="123" height="123" fill="#BF0978"/>
<rect x="123" width="123" height="123" fill="#D76FA0"/>
<rect x="246" width="123" height="123" fill="#E9B3CA"/>
<rect x="369" width="123" height="123" fill="#F5F5F5"/>
<rect x="615" width="123" height="123" fill="#7FC8AE"/>
<rect x="492" width="123" height="123" fill="#BBDFD1"/>
<rect x="738" width="123" height="123" fill="#32B08C"/>
<path d="M3.28087 171H7.15826V148.971L17.0009 171H19.7278L29.5278 149.014V171H33.4052V141.515H29.2722L18.3643 165.887L7.45652 141.515H3.28087V171ZM62.1375 159.283C62.1375 151.911 56.9818 147.267 50.3349 147.267C43.7305 147.267 38.5322 151.911 38.5322 159.283C38.5322 166.697 43.5601 171.383 50.1644 171.383C56.8114 171.383 62.1375 166.697 62.1375 159.283ZM42.4949 159.283C42.4949 153.403 46.2018 150.633 50.2922 150.633C54.2975 150.633 58.1749 153.403 58.1749 159.283C58.1749 165.205 54.2122 167.975 50.1644 167.975C46.1166 167.975 42.4949 165.205 42.4949 159.283ZM71.1129 158.303C71.1129 152.891 73.9251 151.23 77.632 151.23H78.6547V147.224C74.9477 147.224 72.4338 148.843 71.1129 151.443V147.65H67.2355V171H71.1129V158.303ZM93.0584 150.548C97.0636 150.548 100.472 153.062 100.43 157.621H85.6871C86.1132 153.062 89.2662 150.548 93.0584 150.548ZM103.966 163.799H99.7906C98.9384 166.313 96.7227 168.103 93.2288 168.103C89.2662 168.103 85.9427 165.503 85.6445 160.774H104.307C104.392 159.964 104.435 159.283 104.435 158.43C104.435 152.039 100.004 147.267 93.2288 147.267C86.4114 147.267 81.6819 151.911 81.6819 159.283C81.6819 166.697 86.5819 171.383 93.2288 171.383C99.0236 171.383 102.773 168.06 103.966 163.799ZM130.159 141.302H120.912V171H130.159C139.916 171 145.924 165.418 145.924 156.215C145.924 147.011 139.916 141.302 130.159 141.302ZM124.79 167.804V144.455H130.159C137.913 144.455 141.961 148.971 141.961 156.215C141.961 163.458 137.913 167.804 130.159 167.804H124.79ZM160.966 150.548C164.971 150.548 168.38 153.062 168.337 157.621H153.595C154.021 153.062 157.174 150.548 160.966 150.548ZM171.874 163.799H167.698C166.846 166.313 164.63 168.103 161.136 168.103C157.174 168.103 153.85 165.503 153.552 160.774H172.215C172.3 159.964 172.343 159.283 172.343 158.43C172.343 152.039 167.911 147.267 161.136 147.267C154.319 147.267 149.589 151.911 149.589 159.283C149.589 166.697 154.489 171.383 161.136 171.383C166.931 171.383 170.681 168.06 171.874 163.799ZM181.338 151.954V147.65H177.461V182.078H181.338V166.697C182.787 169.083 185.812 171.383 190.073 171.383C196.336 171.383 201.151 166.483 201.151 159.24C201.151 151.954 196.336 147.267 190.073 147.267C185.812 147.267 182.744 149.483 181.338 151.954ZM197.188 159.24C197.188 164.737 193.567 167.975 189.263 167.975C185.045 167.975 181.338 164.779 181.338 159.283C181.338 153.871 185.045 150.633 189.263 150.633C193.567 150.633 197.188 153.743 197.188 159.24ZM210.132 158.303C210.132 152.891 212.944 151.23 216.651 151.23H217.674V147.224C213.967 147.224 211.453 148.843 210.132 151.443V147.65H206.255V171H210.132V158.303ZM222.15 171H226.027V147.65H222.15V171ZM224.152 143.858C225.558 143.858 226.709 142.708 226.709 141.217C226.709 139.725 225.558 138.575 224.152 138.575C222.661 138.575 221.511 139.725 221.511 141.217C221.511 142.708 222.661 143.858 224.152 143.858ZM229.866 147.65L239.027 171H243.543L252.704 147.65H248.571L241.328 167.421L234.042 147.65H229.866ZM255.071 159.24C255.071 166.483 259.886 171.383 266.107 171.383C270.41 171.383 273.435 169.168 274.841 166.654V171H278.761V147.65H274.841V151.911C273.478 149.483 270.495 147.267 266.149 147.267C259.886 147.267 255.071 151.954 255.071 159.24ZM274.841 159.283C274.841 164.779 271.177 167.975 266.916 167.975C262.655 167.975 259.034 164.737 259.034 159.24C259.034 153.743 262.655 150.633 266.916 150.633C271.177 150.633 274.841 153.871 274.841 159.283ZM286.166 164.609C286.166 169.296 288.509 171 292.643 171H296.136V167.719H293.282C290.896 167.719 290.043 166.91 290.043 164.609V150.846H296.136V147.65H290.043V141.77H286.166V147.65H283.141V150.846H286.166V164.609ZM300.834 171H304.712V147.65H300.834V171ZM302.837 143.858C304.243 143.858 305.393 142.708 305.393 141.217C305.393 139.725 304.243 138.575 302.837 138.575C301.346 138.575 300.195 139.725 300.195 141.217C300.195 142.708 301.346 143.858 302.837 143.858ZM333.477 159.283C333.477 151.911 328.321 147.267 321.674 147.267C315.07 147.267 309.871 151.911 309.871 159.283C309.871 166.697 314.899 171.383 321.504 171.383C328.151 171.383 333.477 166.697 333.477 159.283ZM313.834 159.283C313.834 153.403 317.541 150.633 321.631 150.633C325.637 150.633 329.514 153.403 329.514 159.283C329.514 165.205 325.551 167.975 321.504 167.975C317.456 167.975 313.834 165.205 313.834 159.283ZM355.661 171H359.496V157.237C359.496 150.548 355.363 147.224 349.951 147.224C346.798 147.224 343.986 148.545 342.452 150.974V147.65H338.575V171H342.452V158.09C342.452 153.062 345.179 150.59 349.142 150.59C353.062 150.59 355.661 153.019 355.661 157.791V171Z" fill="black"/>
<path d="M517.668 141.302V171H531.942V167.847H521.545V141.302H517.668ZM545.987 150.548C549.992 150.548 553.401 153.062 553.359 157.621H538.616C539.042 153.062 542.195 150.548 545.987 150.548ZM556.895 163.799H552.719C551.867 166.313 549.652 168.103 546.158 168.103C542.195 168.103 538.872 165.503 538.573 160.774H557.236C557.321 159.964 557.364 159.283 557.364 158.43C557.364 152.039 552.932 147.267 546.158 147.267C539.34 147.267 534.611 151.911 534.611 159.283C534.611 166.697 539.511 171.383 546.158 171.383C551.952 171.383 555.702 168.06 556.895 163.799ZM579.27 164.651C579.099 156.3 565.55 159.325 565.55 153.786C565.55 151.911 567.254 150.548 570.109 150.548C573.219 150.548 575.009 152.252 575.179 154.596H579.057C578.801 150.037 575.392 147.267 570.237 147.267C565.038 147.267 561.672 150.207 561.672 153.786C561.672 162.478 575.477 159.453 575.477 164.651C575.477 166.569 573.773 168.103 570.705 168.103C567.424 168.103 565.422 166.398 565.209 164.14H561.204C561.459 168.401 565.294 171.383 570.748 171.383C575.904 171.383 579.27 168.486 579.27 164.651ZM601.531 164.651C601.361 156.3 587.811 159.325 587.811 153.786C587.811 151.911 589.515 150.548 592.37 150.548C595.481 150.548 597.27 152.252 597.441 154.596H601.318C601.062 150.037 597.654 147.267 592.498 147.267C587.3 147.267 583.934 150.207 583.934 153.786C583.934 162.478 597.739 159.453 597.739 164.651C597.739 166.569 596.034 168.103 592.967 168.103C589.686 168.103 587.683 166.398 587.47 164.14H583.465C583.721 168.401 587.555 171.383 593.009 171.383C598.165 171.383 601.531 168.486 601.531 164.651ZM627.61 141.302H618.364V171H627.61C637.368 171 643.375 165.418 643.375 156.215C643.375 147.011 637.368 141.302 627.61 141.302ZM622.241 167.804V144.455H627.61C635.365 144.455 639.413 148.971 639.413 156.215C639.413 163.458 635.365 167.804 627.61 167.804H622.241ZM658.418 150.548C662.423 150.548 665.832 153.062 665.789 157.621H651.046C651.472 153.062 654.625 150.548 658.418 150.548ZM669.325 163.799H665.15C664.298 166.313 662.082 168.103 658.588 168.103C654.625 168.103 651.302 165.503 651.004 160.774H669.666C669.752 159.964 669.794 159.283 669.794 158.43C669.794 152.039 665.363 147.267 658.588 147.267C651.771 147.267 647.041 151.911 647.041 159.283C647.041 166.697 651.941 171.383 658.588 171.383C664.383 171.383 668.132 168.06 669.325 163.799ZM678.79 151.954V147.65H674.912V182.078H678.79V166.697C680.238 169.083 683.263 171.383 687.524 171.383C693.788 171.383 698.603 166.483 698.603 159.24C698.603 151.954 693.788 147.267 687.524 147.267C683.263 147.267 680.196 149.483 678.79 151.954ZM694.64 159.24C694.64 164.737 691.018 167.975 686.715 167.975C682.497 167.975 678.79 164.779 678.79 159.283C678.79 153.871 682.497 150.633 686.715 150.633C691.018 150.633 694.64 153.743 694.64 159.24ZM707.584 158.303C707.584 152.891 710.396 151.23 714.103 151.23H715.125V147.224C711.418 147.224 708.905 148.843 707.584 151.443V147.65H703.706V171H707.584V158.303ZM719.601 171H723.479V147.65H719.601V171ZM721.604 143.858C723.01 143.858 724.16 142.708 724.16 141.217C724.16 139.725 723.01 138.575 721.604 138.575C720.113 138.575 718.962 139.725 718.962 141.217C718.962 142.708 720.113 143.858 721.604 143.858ZM727.318 147.65L736.478 171H740.995L750.156 147.65H746.023L738.779 167.421L731.493 147.65H727.318ZM752.523 159.24C752.523 166.483 757.337 171.383 763.558 171.383C767.862 171.383 770.887 169.168 772.293 166.654V171H776.213V147.65H772.293V151.911C770.93 149.483 767.947 147.267 763.601 147.267C757.337 147.267 752.523 151.954 752.523 159.24ZM772.293 159.283C772.293 164.779 768.629 167.975 764.368 167.975C760.107 167.975 756.485 164.737 756.485 159.24C756.485 153.743 760.107 150.633 764.368 150.633C768.629 150.633 772.293 153.871 772.293 159.283ZM783.618 164.609C783.618 169.296 785.961 171 790.094 171H793.588V167.719H790.733C788.347 167.719 787.495 166.91 787.495 164.609V150.846H793.588V147.65H787.495V141.77H783.618V147.65H780.592V150.846H783.618V164.609ZM798.286 171H802.163V147.65H798.286V171ZM800.289 143.858C801.695 143.858 802.845 142.708 802.845 141.217C802.845 139.725 801.695 138.575 800.289 138.575C798.797 138.575 797.647 139.725 797.647 141.217C797.647 142.708 798.797 143.858 800.289 143.858ZM830.928 159.283C830.928 151.911 825.773 147.267 819.126 147.267C812.521 147.267 807.323 151.911 807.323 159.283C807.323 166.697 812.351 171.383 818.955 171.383C825.602 171.383 830.928 166.697 830.928 159.283ZM811.286 159.283C811.286 153.403 814.993 150.633 819.083 150.633C823.088 150.633 826.966 153.403 826.966 159.283C826.966 165.205 823.003 167.975 818.955 167.975C814.907 167.975 811.286 165.205 811.286 159.283ZM853.112 171H856.947V157.237C856.947 150.548 852.814 147.224 847.403 147.224C844.25 147.224 841.438 148.545 839.904 150.974V147.65H836.026V171H839.904V158.09C839.904 153.062 842.631 150.59 846.593 150.59C850.513 150.59 853.112 153.019 853.112 157.791V171Z" fill="black"/>
</svg>
