<svg width="246" height="54" viewBox="0 0 246 54" fill="none" xmlns="http://www.w3.org/2000/svg">
<rect width="35" height="35" transform="matrix(-1 0 0 1 245.5 1.03809)" fill="#BF0978"/>
<rect width="35" height="35" transform="matrix(-1 0 0 1 210.5 1.03809)" fill="#D76FA0"/>
<rect width="35" height="35" transform="matrix(-1 0 0 1 175.5 1.03809)" fill="#E9B3CA"/>
<rect width="35" height="35" transform="matrix(-1 0 0 1 140.5 1.03809)" fill="#F5F5F5"/>
<rect width="35" height="35" transform="matrix(-1 0 0 1 70.5 1.03809)" fill="#7FC8AE"/>
<rect width="35" height="35" transform="matrix(-1 0 0 1 105.5 1.03809)" fill="#BBDFD1"/>
<rect width="35" height="35" transform="matrix(-1 0 0 1 35.5 1.03809)" fill="#32B08C"/>
<path d="M1.43358 41.4329H2.5369V48.9865H5.49526V49.8837H1.43358V41.4329ZM12.9717 46.5494C12.9717 48.6591 11.4561 49.9928 9.56471 49.9928C7.68543 49.9928 6.25474 48.6591 6.25474 46.5494C6.25474 44.4519 7.73392 43.1304 9.61321 43.1304C11.5046 43.1304 12.9717 44.4519 12.9717 46.5494ZM7.38232 46.5494C7.38232 48.2347 8.41289 49.0228 9.56471 49.0228C10.7165 49.0228 11.8441 48.2347 11.8441 46.5494C11.8441 44.8763 10.7408 44.0882 9.60109 44.0882C8.43714 44.0882 7.38232 44.8763 7.38232 46.5494ZM15.7197 49.8837L13.6343 43.2395H14.7618L16.2895 48.8167L17.9384 43.2395H19.066L20.6785 48.8288L22.182 43.2395H23.2732L21.1999 49.8837H20.0602L18.4598 44.6095L16.8594 49.8837H15.7197ZM27.1932 44.0639C26.1141 44.0639 25.2169 44.7793 25.0956 46.0766H29.2907C29.3028 44.7793 28.3328 44.0639 27.1932 44.0639ZM30.297 47.8346C29.9575 49.0471 28.8906 49.9928 27.2417 49.9928C25.3502 49.9928 23.9559 48.6591 23.9559 46.5494C23.9559 44.4519 25.3017 43.1304 27.2417 43.1304C29.1694 43.1304 30.4304 44.4883 30.4304 46.307C30.4304 46.5494 30.4183 46.7434 30.394 46.9738H25.0835C25.1684 48.3196 26.1141 49.0592 27.2417 49.0592C28.2359 49.0592 28.8663 48.55 29.1088 47.8346H30.297ZM32.9901 46.2706V49.8837H31.8867V43.2395H32.9901V44.3186C33.3659 43.579 34.0812 43.1182 35.1361 43.1182V44.2579H34.8451C33.7903 44.2579 32.9901 44.7308 32.9901 46.2706ZM40.7454 44.464C41.1455 43.7608 42.0185 43.1304 43.2309 43.1304C45.0132 43.1304 46.3833 44.464 46.3833 46.5373C46.3833 48.5985 45.0132 49.9928 43.2309 49.9928C42.0185 49.9928 41.1577 49.3381 40.7454 48.6591V53.036H39.6421V43.2395H40.7454V44.464ZM45.2557 46.5373C45.2557 44.9733 44.2251 44.0882 43.0006 44.0882C41.8002 44.0882 40.7454 45.0096 40.7454 46.5494C40.7454 48.1135 41.8002 49.0228 43.0006 49.0228C44.2251 49.0228 45.2557 48.1014 45.2557 46.5373ZM48.9389 46.2706V49.8837H47.8356V43.2395H48.9389V44.3186C49.3147 43.579 50.0301 43.1182 51.0849 43.1182V44.2579H50.7939C49.7391 44.2579 48.9389 44.7308 48.9389 46.2706ZM52.3585 49.8837V43.2395H53.4619V49.8837H52.3585ZM52.9284 42.1604C52.504 42.1604 52.1767 41.833 52.1767 41.4087C52.1767 40.9843 52.504 40.657 52.9284 40.657C53.3285 40.657 53.6559 40.9843 53.6559 41.4087C53.6559 41.833 53.3285 42.1604 52.9284 42.1604ZM61.647 46.5494C61.647 48.6591 60.1314 49.9928 58.24 49.9928C56.3607 49.9928 54.9301 48.6591 54.9301 46.5494C54.9301 44.4519 56.4092 43.1304 58.2885 43.1304C60.1799 43.1304 61.647 44.4519 61.647 46.5494ZM56.0576 46.5494C56.0576 48.2347 57.0882 49.0228 58.24 49.0228C59.3918 49.0228 60.5194 48.2347 60.5194 46.5494C60.5194 44.8763 59.4161 44.0882 58.2764 44.0882C57.1124 44.0882 56.0576 44.8763 56.0576 46.5494ZM64.201 46.2706V49.8837H63.0977V43.2395H64.201V44.3186C64.5768 43.579 65.2922 43.1182 66.347 43.1182V44.2579H66.056C65.0012 44.2579 64.201 44.7308 64.201 46.2706ZM67.6206 49.8837V43.2395H68.724V49.8837H67.6206ZM68.1905 42.1604C67.7661 42.1604 67.4388 41.833 67.4388 41.4087C67.4388 40.9843 67.7661 40.657 68.1905 40.657C68.5906 40.657 68.9179 40.9843 68.9179 41.4087C68.9179 41.833 68.5906 42.1604 68.1905 42.1604ZM70.8469 48.065V44.1488H69.986V43.2395H70.8469V41.5663H71.9502V43.2395H73.684V44.1488H71.9502V48.065C71.9502 48.7197 72.1927 48.9501 72.8716 48.9501H73.684V49.8837H72.6898C71.5137 49.8837 70.8469 49.3987 70.8469 48.065ZM77.5427 48.6227L79.6038 43.2395H80.7435L76.7425 53.0118H75.6028L76.9122 49.8109L74.2327 43.2395H75.4573L77.5427 48.6227Z" fill="black"/>
<path d="M166.757 49.8837V46.0523H162.452V49.8837H161.349V41.4329H162.452V45.143H166.757V41.4329H167.86V49.8837H166.757ZM169.732 49.8837V43.2395H170.835V49.8837H169.732ZM170.302 42.1604C169.877 42.1604 169.55 41.833 169.55 41.4087C169.55 40.9843 169.877 40.657 170.302 40.657C170.702 40.657 171.029 40.9843 171.029 41.4087C171.029 41.833 170.702 42.1604 170.302 42.1604ZM172.304 46.5373C172.304 44.464 173.674 43.1304 175.456 43.1304C176.668 43.1304 177.541 43.7366 177.929 44.4519V43.2395H179.045V50.0292C179.045 51.8599 177.82 53.1573 175.868 53.1573C174.122 53.1573 172.873 52.2722 172.655 50.8536H173.746C173.989 51.6538 174.777 52.1994 175.868 52.1994C177.044 52.1994 177.929 51.4477 177.929 50.0292V48.6349C177.529 49.3502 176.668 49.9928 175.456 49.9928C173.674 49.9928 172.304 48.5985 172.304 46.5373ZM177.929 46.5494C177.929 45.0096 176.887 44.0882 175.674 44.0882C174.462 44.0882 173.431 44.9733 173.431 46.5373C173.431 48.1014 174.462 49.0228 175.674 49.0228C176.887 49.0228 177.929 48.1135 177.929 46.5494ZM180.909 49.8837V40.9116H182.013V44.1973C182.449 43.4941 183.273 43.1182 184.207 43.1182C185.686 43.1182 186.862 44.0639 186.862 45.9675V49.8837H185.771V46.1251C185.771 44.7672 185.031 44.0761 183.916 44.0761C182.788 44.0761 182.013 44.7793 182.013 46.21V49.8837H180.909ZM191.49 44.0639C190.41 44.0639 189.513 44.7793 189.392 46.0766H193.587C193.599 44.7793 192.629 44.0639 191.49 44.0639ZM194.593 47.8346C194.254 49.0471 193.187 49.9928 191.538 49.9928C189.647 49.9928 188.252 48.6591 188.252 46.5494C188.252 44.4519 189.598 43.1304 191.538 43.1304C193.466 43.1304 194.727 44.4883 194.727 46.307C194.727 46.5494 194.715 46.7434 194.69 46.9738H189.38C189.465 48.3196 190.41 49.0592 191.538 49.0592C192.532 49.0592 193.163 48.55 193.405 47.8346H194.593ZM197.286 46.2706V49.8837H196.183V43.2395H197.286V44.3186C197.662 43.579 198.378 43.1182 199.432 43.1182V44.2579H199.141C198.087 44.2579 197.286 44.7308 197.286 46.2706ZM205.042 44.464C205.442 43.7608 206.315 43.1304 207.527 43.1304C209.31 43.1304 210.68 44.464 210.68 46.5373C210.68 48.5985 209.31 49.9928 207.527 49.9928C206.315 49.9928 205.454 49.3381 205.042 48.6591V53.036H203.938V43.2395H205.042V44.464ZM209.552 46.5373C209.552 44.9733 208.522 44.0882 207.297 44.0882C206.097 44.0882 205.042 45.0096 205.042 46.5494C205.042 48.1135 206.097 49.0228 207.297 49.0228C208.522 49.0228 209.552 48.1014 209.552 46.5373ZM213.235 46.2706V49.8837H212.132V43.2395H213.235V44.3186C213.611 43.579 214.326 43.1182 215.381 43.1182V44.2579H215.09C214.035 44.2579 213.235 44.7308 213.235 46.2706ZM216.655 49.8837V43.2395H217.758V49.8837H216.655ZM217.225 42.1604C216.8 42.1604 216.473 41.833 216.473 41.4087C216.473 40.9843 216.8 40.657 217.225 40.657C217.625 40.657 217.952 40.9843 217.952 41.4087C217.952 41.833 217.625 42.1604 217.225 42.1604ZM225.943 46.5494C225.943 48.6591 224.428 49.9928 222.536 49.9928C220.657 49.9928 219.226 48.6591 219.226 46.5494C219.226 44.4519 220.706 43.1304 222.585 43.1304C224.476 43.1304 225.943 44.4519 225.943 46.5494ZM220.354 46.5494C220.354 48.2347 221.385 49.0228 222.536 49.0228C223.688 49.0228 224.816 48.2347 224.816 46.5494C224.816 44.8763 223.712 44.0882 222.573 44.0882C221.409 44.0882 220.354 44.8763 220.354 46.5494ZM228.497 46.2706V49.8837H227.394V43.2395H228.497V44.3186C228.873 43.579 229.589 43.1182 230.643 43.1182V44.2579H230.352C229.298 44.2579 228.497 44.7308 228.497 46.2706ZM231.917 49.8837V43.2395H233.02V49.8837H231.917ZM232.487 42.1604C232.063 42.1604 231.735 41.833 231.735 41.4087C231.735 40.9843 232.063 40.657 232.487 40.657C232.887 40.657 233.214 40.9843 233.214 41.4087C233.214 41.833 232.887 42.1604 232.487 42.1604ZM235.143 48.065V44.1488H234.282V43.2395H235.143V41.5663H236.247V43.2395H237.98V44.1488H236.247V48.065C236.247 48.7197 236.489 48.9501 237.168 48.9501H237.98V49.8837H236.986C235.81 49.8837 235.143 49.3987 235.143 48.065ZM241.839 48.6227L243.9 43.2395H245.04L241.039 53.0118H239.899L241.209 49.8109L238.529 43.2395H239.754L241.839 48.6227Z" fill="black"/>
</svg>
