<svg width="861" height="230" viewBox="0 0 861 230" fill="none" xmlns="http://www.w3.org/2000/svg">
<rect width="123" height="123" fill="#BF0978"/>
<rect x="123" width="123" height="123" fill="#D76FA0"/>
<rect x="246" width="123" height="123" fill="#E9B3CA"/>
<rect x="369" width="123" height="123" fill="#F5F5F5"/>
<rect x="615" width="123" height="123" fill="#7FC8AE"/>
<rect x="492" width="123" height="123" fill="#BBDFD1"/>
<rect x="738" width="123" height="123" fill="#32B08C"/>
<path d="M7.15826 167.847H17.5548V171H3.28087V141.302H7.15826V167.847ZM42.9769 158.43C42.9769 159.169 42.9343 159.95 42.849 160.774H24.1864C24.3285 163.075 25.1096 164.879 26.5299 166.185C27.9786 167.463 29.7256 168.103 31.7708 168.103C33.4467 168.103 34.8386 167.719 35.9464 166.952C37.0827 166.157 37.878 165.106 38.3325 163.799H42.5082C41.8832 166.043 40.6334 167.875 38.7586 169.296C36.8838 170.688 34.5545 171.383 31.7708 171.383C29.5551 171.383 27.5667 170.886 25.8056 169.892C24.0728 168.898 22.7093 167.492 21.7151 165.674C20.7209 163.828 20.2238 161.697 20.2238 159.283C20.2238 156.868 20.7067 154.752 21.6725 152.934C22.6383 151.116 23.9876 149.724 25.7203 148.758C27.4815 147.764 29.4983 147.267 31.7708 147.267C33.9864 147.267 35.9464 147.75 37.6508 148.716C39.3551 149.681 40.6618 151.017 41.5708 152.721C42.5082 154.397 42.9769 156.3 42.9769 158.43ZM38.9716 157.621C38.9716 156.144 38.645 154.88 37.9916 153.829C37.3383 152.749 36.4435 151.94 35.3073 151.4C34.1995 150.832 32.9638 150.548 31.6003 150.548C29.6403 150.548 27.9644 151.173 26.5725 152.423C25.209 153.672 24.4279 155.405 24.229 157.621H38.9716ZM56.361 171.383C54.5714 171.383 52.9665 171.085 51.5462 170.489C50.1259 169.864 49.0039 169.012 48.1801 167.932C47.3563 166.824 46.9019 165.56 46.8166 164.14H50.8219C50.9355 165.305 51.4752 166.256 52.441 166.995C53.4352 167.733 54.7276 168.103 56.3184 168.103C57.7955 168.103 58.9601 167.776 59.8123 167.123C60.6645 166.469 61.0905 165.646 61.0905 164.651C61.0905 163.629 60.6361 162.876 59.7271 162.393C58.8181 161.882 57.412 161.385 55.5088 160.902C53.7761 160.447 52.3558 159.993 51.2479 159.538C50.1685 159.055 49.2311 158.359 48.4358 157.45C47.6688 156.513 47.2853 155.292 47.2853 153.786C47.2853 152.593 47.6404 151.499 48.3505 150.505C49.0607 149.511 50.0691 148.73 51.3758 148.162C52.6824 147.565 54.1737 147.267 55.8497 147.267C58.4346 147.267 60.5224 147.92 62.1132 149.227C63.7039 150.534 64.5561 152.323 64.6697 154.596H60.7923C60.7071 153.374 60.21 152.394 59.301 151.656C58.4204 150.917 57.2274 150.548 55.7219 150.548C54.33 150.548 53.2221 150.846 52.3984 151.443C51.5746 152.039 51.1627 152.82 51.1627 153.786C51.1627 154.553 51.4042 155.192 51.8871 155.703C52.3984 156.186 53.0233 156.584 53.7619 156.897C54.5288 157.181 55.5798 157.507 56.9149 157.877C58.5908 158.331 59.9543 158.786 61.0053 159.24C62.0563 159.666 62.9511 160.319 63.6897 161.2C64.4566 162.081 64.8543 163.231 64.8827 164.651C64.8827 165.93 64.5276 167.08 63.8175 168.103C63.1074 169.125 62.099 169.935 60.7923 170.531C59.514 171.099 58.0369 171.383 56.361 171.383ZM78.6224 171.383C76.8328 171.383 75.2279 171.085 73.8076 170.489C72.3873 169.864 71.2653 169.012 70.4415 167.932C69.6177 166.824 69.1632 165.56 69.078 164.14H73.0832C73.1969 165.305 73.7366 166.256 74.7024 166.995C75.6966 167.733 76.989 168.103 78.5798 168.103C80.0569 168.103 81.2215 167.776 82.0737 167.123C82.9258 166.469 83.3519 165.646 83.3519 164.651C83.3519 163.629 82.8974 162.876 81.9885 162.393C81.0795 161.882 79.6734 161.385 77.7702 160.902C76.0374 160.447 74.6171 159.993 73.5093 159.538C72.4299 159.055 71.4925 158.359 70.6971 157.45C69.9302 156.513 69.5467 155.292 69.5467 153.786C69.5467 152.593 69.9018 151.499 70.6119 150.505C71.3221 149.511 72.3305 148.73 73.6371 148.162C74.9438 147.565 76.4351 147.267 78.1111 147.267C80.696 147.267 82.7838 147.92 84.3745 149.227C85.9653 150.534 86.8174 152.323 86.9311 154.596H83.0537C82.9685 153.374 82.4714 152.394 81.5624 151.656C80.6818 150.917 79.4887 150.548 77.9832 150.548C76.5914 150.548 75.4835 150.846 74.6598 151.443C73.836 152.039 73.4241 152.82 73.4241 153.786C73.4241 154.553 73.6656 155.192 74.1485 155.703C74.6598 156.186 75.2847 156.584 76.0232 156.897C76.7902 157.181 77.8412 157.507 79.1763 157.877C80.8522 158.331 82.2157 158.786 83.2667 159.24C84.3177 159.666 85.2125 160.319 85.9511 161.2C86.718 162.081 87.1157 163.231 87.1441 164.651C87.1441 165.93 86.789 167.08 86.0789 168.103C85.3687 169.125 84.3603 169.935 83.0537 170.531C81.7754 171.099 80.2983 171.383 78.6224 171.383ZM121.532 164.396H108.579L106.193 171H102.102L112.84 141.472H117.314L128.009 171H123.918L121.532 164.396ZM120.424 161.243L115.055 146.244L109.687 161.243H120.424ZM131.239 159.283C131.239 156.868 131.722 154.766 132.688 152.977C133.654 151.159 134.989 149.752 136.693 148.758C138.426 147.764 140.4 147.267 142.616 147.267C145.485 147.267 147.843 147.963 149.689 149.355C151.564 150.747 152.799 152.678 153.396 155.15H149.22C148.823 153.729 148.041 152.607 146.877 151.783C145.741 150.96 144.32 150.548 142.616 150.548C140.4 150.548 138.611 151.315 137.247 152.849C135.884 154.354 135.202 156.499 135.202 159.283C135.202 162.095 135.884 164.268 137.247 165.802C138.611 167.336 140.4 168.103 142.616 168.103C144.32 168.103 145.741 167.705 146.877 166.91C148.013 166.114 148.794 164.978 149.22 163.501H153.396C152.771 165.887 151.521 167.804 149.646 169.253C147.772 170.673 145.428 171.383 142.616 171.383C140.4 171.383 138.426 170.886 136.693 169.892C134.989 168.898 133.654 167.492 132.688 165.674C131.722 163.856 131.239 161.726 131.239 159.283ZM157.121 159.283C157.121 156.868 157.604 154.766 158.57 152.977C159.535 151.159 160.87 149.752 162.575 148.758C164.308 147.764 166.282 147.267 168.497 147.267C171.366 147.267 173.724 147.963 175.57 149.355C177.445 150.747 178.681 152.678 179.277 155.15H175.102C174.704 153.729 173.923 152.607 172.758 151.783C171.622 150.96 170.202 150.548 168.497 150.548C166.282 150.548 164.492 151.315 163.129 152.849C161.765 154.354 161.084 156.499 161.084 159.283C161.084 162.095 161.765 164.268 163.129 165.802C164.492 167.336 166.282 168.103 168.497 168.103C170.202 168.103 171.622 167.705 172.758 166.91C173.895 166.114 174.676 164.978 175.102 163.501H179.277C178.652 165.887 177.403 167.804 175.528 169.253C173.653 170.673 171.31 171.383 168.497 171.383C166.282 171.383 164.308 170.886 162.575 169.892C160.87 168.898 159.535 167.492 158.57 165.674C157.604 163.856 157.121 161.726 157.121 159.283ZM205.755 158.43C205.755 159.169 205.713 159.95 205.628 160.774H186.965C187.107 163.075 187.888 164.879 189.308 166.185C190.757 167.463 192.504 168.103 194.549 168.103C196.225 168.103 197.617 167.719 198.725 166.952C199.861 166.157 200.657 165.106 201.111 163.799H205.287C204.662 166.043 203.412 167.875 201.537 169.296C199.662 170.688 197.333 171.383 194.549 171.383C192.334 171.383 190.345 170.886 188.584 169.892C186.851 168.898 185.488 167.492 184.494 165.674C183.499 163.828 183.002 161.697 183.002 159.283C183.002 156.868 183.485 154.752 184.451 152.934C185.417 151.116 186.766 149.724 188.499 148.758C190.26 147.764 192.277 147.267 194.549 147.267C196.765 147.267 198.725 147.75 200.429 148.716C202.134 149.681 203.44 151.017 204.349 152.721C205.287 154.397 205.755 156.3 205.755 158.43ZM201.75 157.621C201.75 156.144 201.424 154.88 200.77 153.829C200.117 152.749 199.222 151.94 198.086 151.4C196.978 150.832 195.742 150.548 194.379 150.548C192.419 150.548 190.743 151.173 189.351 152.423C187.988 153.672 187.206 155.405 187.008 157.621H201.75ZM219.14 171.383C217.35 171.383 215.745 171.085 214.325 170.489C212.904 169.864 211.782 169.012 210.959 167.932C210.135 166.824 209.68 165.56 209.595 164.14H213.6C213.714 165.305 214.254 166.256 215.22 166.995C216.214 167.733 217.506 168.103 219.097 168.103C220.574 168.103 221.739 167.776 222.591 167.123C223.443 166.469 223.869 165.646 223.869 164.651C223.869 163.629 223.415 162.876 222.506 162.393C221.597 161.882 220.191 161.385 218.287 160.902C216.555 160.447 215.134 159.993 214.026 159.538C212.947 159.055 212.01 158.359 211.214 157.45C210.447 156.513 210.064 155.292 210.064 153.786C210.064 152.593 210.419 151.499 211.129 150.505C211.839 149.511 212.848 148.73 214.154 148.162C215.461 147.565 216.952 147.267 218.628 147.267C221.213 147.267 223.301 147.92 224.892 149.227C226.482 150.534 227.335 152.323 227.448 154.596H223.571C223.486 153.374 222.989 152.394 222.08 151.656C221.199 150.917 220.006 150.548 218.5 150.548C217.109 150.548 216.001 150.846 215.177 151.443C214.353 152.039 213.941 152.82 213.941 153.786C213.941 154.553 214.183 155.192 214.666 155.703C215.177 156.186 215.802 156.584 216.54 156.897C217.307 157.181 218.358 157.507 219.693 157.877C221.369 158.331 222.733 158.786 223.784 159.24C224.835 159.666 225.73 160.319 226.468 161.2C227.235 162.081 227.633 163.231 227.661 164.651C227.661 165.93 227.306 167.08 226.596 168.103C225.886 169.125 224.877 169.935 223.571 170.531C222.293 171.099 220.815 171.383 219.14 171.383ZM241.401 171.383C239.611 171.383 238.006 171.085 236.586 170.489C235.166 169.864 234.044 169.012 233.22 167.932C232.396 166.824 231.942 165.56 231.857 164.14H235.862C235.975 165.305 236.515 166.256 237.481 166.995C238.475 167.733 239.768 168.103 241.358 168.103C242.835 168.103 244 167.776 244.852 167.123C245.704 166.469 246.13 165.646 246.13 164.651C246.13 163.629 245.676 162.876 244.767 162.393C243.858 161.882 242.452 161.385 240.549 160.902C238.816 160.447 237.396 159.993 236.288 159.538C235.208 159.055 234.271 158.359 233.476 157.45C232.709 156.513 232.325 155.292 232.325 153.786C232.325 152.593 232.68 151.499 233.39 150.505C234.101 149.511 235.109 148.73 236.416 148.162C237.722 147.565 239.214 147.267 240.89 147.267C243.475 147.267 245.562 147.92 247.153 149.227C248.744 150.534 249.596 152.323 249.71 154.596H245.832C245.747 153.374 245.25 152.394 244.341 151.656C243.46 150.917 242.267 150.548 240.762 150.548C239.37 150.548 238.262 150.846 237.438 151.443C236.615 152.039 236.203 152.82 236.203 153.786C236.203 154.553 236.444 155.192 236.927 155.703C237.438 156.186 238.063 156.584 238.802 156.897C239.569 157.181 240.62 157.507 241.955 157.877C243.631 158.331 244.994 158.786 246.045 159.24C247.096 159.666 247.991 160.319 248.73 161.2C249.497 162.081 249.894 163.231 249.923 164.651C249.923 165.93 249.568 167.08 248.857 168.103C248.147 169.125 247.139 169.935 245.832 170.531C244.554 171.099 243.077 171.383 241.401 171.383ZM271.485 150.846V164.609C271.485 165.745 271.727 166.554 272.21 167.037C272.693 167.492 273.531 167.719 274.724 167.719H277.578V171H274.084C271.926 171 270.306 170.503 269.227 169.509C268.148 168.514 267.608 166.881 267.608 164.609V150.846H264.583V147.65H267.608V141.77H271.485V147.65H277.578V150.846H271.485ZM292.46 171.383C290.273 171.383 288.284 170.886 286.495 169.892C284.733 168.898 283.342 167.492 282.319 165.674C281.325 163.828 280.828 161.697 280.828 159.283C280.828 156.897 281.339 154.794 282.362 152.977C283.413 151.13 284.833 149.724 286.622 148.758C288.412 147.764 290.415 147.267 292.63 147.267C294.846 147.267 296.848 147.764 298.638 148.758C300.428 149.724 301.834 151.116 302.856 152.934C303.907 154.752 304.433 156.868 304.433 159.283C304.433 161.697 303.893 163.828 302.814 165.674C301.763 167.492 300.328 168.898 298.51 169.892C296.692 170.886 294.675 171.383 292.46 171.383ZM292.46 167.975C293.852 167.975 295.158 167.648 296.38 166.995C297.601 166.341 298.581 165.361 299.32 164.055C300.087 162.748 300.47 161.157 300.47 159.283C300.47 157.408 300.101 155.817 299.362 154.51C298.624 153.204 297.658 152.238 296.465 151.613C295.272 150.96 293.979 150.633 292.588 150.633C291.167 150.633 289.861 150.96 288.668 151.613C287.503 152.238 286.566 153.204 285.855 154.51C285.145 155.817 284.79 157.408 284.79 159.283C284.79 161.186 285.131 162.791 285.813 164.097C286.523 165.404 287.46 166.384 288.625 167.037C289.79 167.662 291.068 167.975 292.46 167.975ZM25.7783 196.909C24.9545 195.176 23.7615 193.841 22.1991 192.903C20.6368 191.938 18.8188 191.455 16.7452 191.455C14.6716 191.455 12.7968 191.938 11.1209 192.903C9.47333 193.841 8.16667 195.204 7.20087 196.994C6.26348 198.755 5.79478 200.8 5.79478 203.13C5.79478 205.459 6.26348 207.504 7.20087 209.265C8.16667 211.026 9.47333 212.39 11.1209 213.356C12.7968 214.293 14.6716 214.762 16.7452 214.762C19.6426 214.762 22.0287 213.895 23.9035 212.163C25.7783 210.43 26.8719 208.086 27.1843 205.132H15.3391V201.979H31.3174V204.962C31.0901 207.405 30.3232 209.649 29.0165 211.694C27.7099 213.711 25.9913 215.316 23.8609 216.509C21.7304 217.673 19.3586 218.256 16.7452 218.256C13.9899 218.256 11.4759 217.617 9.20348 216.338C6.93101 215.032 5.12725 213.228 3.79217 210.927C2.48551 208.626 1.83217 206.027 1.83217 203.13C1.83217 200.232 2.48551 197.633 3.79217 195.332C5.12725 193.003 6.93101 191.199 9.20348 189.921C11.4759 188.614 13.9899 187.961 16.7452 187.961C19.8983 187.961 22.682 188.742 25.0965 190.304C27.5394 191.867 29.3148 194.068 30.4226 196.909H25.7783ZM40.3215 198.443C41.0032 197.108 41.969 196.071 43.2189 195.332C44.4971 194.594 46.0452 194.224 47.8632 194.224V198.23H46.8406C42.4945 198.23 40.3215 200.587 40.3215 205.303V218H36.4441V194.65H40.3215V198.443ZM73.6435 205.43C73.6435 206.169 73.6009 206.95 73.5156 207.774H54.853C54.9951 210.075 55.7762 211.879 57.1965 213.185C58.6452 214.463 60.3922 215.103 62.4374 215.103C64.1133 215.103 65.5052 214.719 66.613 213.952C67.7493 213.157 68.5446 212.106 68.9991 210.799H73.1748C72.5498 213.043 71.3 214.875 69.4252 216.296C67.5504 217.688 65.2212 218.383 62.4374 218.383C60.2217 218.383 58.2333 217.886 56.4722 216.892C54.7394 215.898 53.3759 214.492 52.3817 212.674C51.3875 210.828 50.8904 208.697 50.8904 206.283C50.8904 203.868 51.3733 201.752 52.3391 199.934C53.3049 198.116 54.6542 196.724 56.3869 195.758C58.1481 194.764 60.1649 194.267 62.4374 194.267C64.653 194.267 66.613 194.75 68.3174 195.716C70.0217 196.681 71.3284 198.017 72.2374 199.721C73.1748 201.397 73.6435 203.3 73.6435 205.43ZM69.6383 204.621C69.6383 203.144 69.3116 201.88 68.6583 200.829C68.0049 199.749 67.1101 198.94 65.9739 198.4C64.8661 197.832 63.6304 197.548 62.2669 197.548C60.3069 197.548 58.631 198.173 57.2391 199.423C55.8756 200.672 55.0945 202.405 54.8956 204.621H69.6383ZM100.066 205.43C100.066 206.169 100.023 206.95 99.938 207.774H81.2754C81.4174 210.075 82.1986 211.879 83.6189 213.185C85.0676 214.463 86.8146 215.103 88.8598 215.103C90.5357 215.103 91.9276 214.719 93.0354 213.952C94.1717 213.157 94.967 212.106 95.4215 210.799H99.5972C98.9722 213.043 97.7224 214.875 95.8476 216.296C93.9728 217.688 91.6435 218.383 88.8598 218.383C86.6441 218.383 84.6557 217.886 82.8946 216.892C81.1618 215.898 79.7983 214.492 78.8041 212.674C77.8099 210.828 77.3128 208.697 77.3128 206.283C77.3128 203.868 77.7957 201.752 78.7615 199.934C79.7273 198.116 81.0766 196.724 82.8093 195.758C84.5705 194.764 86.5873 194.267 88.8598 194.267C91.0754 194.267 93.0354 194.75 94.7398 195.716C96.4441 196.681 97.7508 198.017 98.6598 199.721C99.5972 201.397 100.066 203.3 100.066 205.43ZM96.0606 204.621C96.0606 203.144 95.734 201.88 95.0806 200.829C94.4273 199.749 93.5325 198.94 92.3963 198.4C91.2885 197.832 90.0528 197.548 88.6893 197.548C86.7293 197.548 85.0534 198.173 83.6615 199.423C82.298 200.672 81.5169 202.405 81.318 204.621H96.0606ZM116.56 194.224C119.401 194.224 121.702 195.091 123.463 196.823C125.224 198.528 126.105 200.999 126.105 204.237V218H122.27V204.791C122.27 202.462 121.688 200.687 120.523 199.465C119.358 198.215 117.768 197.59 115.751 197.59C113.706 197.59 112.072 198.23 110.851 199.508C109.658 200.786 109.061 202.647 109.061 205.09V218H105.184V194.65H109.061V197.974C109.828 196.781 110.865 195.858 112.172 195.204C113.507 194.551 114.97 194.224 116.56 194.224ZM153.215 218.298C151.255 218.298 149.493 217.957 147.931 217.276C146.397 216.566 145.19 215.6 144.309 214.378C143.429 213.128 142.974 211.694 142.946 210.075H147.079C147.221 211.467 147.789 212.646 148.783 213.611C149.806 214.549 151.283 215.017 153.215 215.017C155.061 215.017 156.51 214.563 157.561 213.654C158.64 212.717 159.18 211.523 159.18 210.075C159.18 208.939 158.867 208.015 158.242 207.305C157.617 206.595 156.836 206.055 155.899 205.686C154.961 205.317 153.697 204.919 152.107 204.493C150.147 203.982 148.57 203.47 147.377 202.959C146.213 202.448 145.204 201.652 144.352 200.573C143.528 199.465 143.116 197.988 143.116 196.142C143.116 194.523 143.528 193.088 144.352 191.838C145.176 190.588 146.326 189.623 147.803 188.941C149.309 188.259 151.027 187.918 152.959 187.918C155.743 187.918 158.015 188.614 159.776 190.006C161.566 191.398 162.574 193.244 162.801 195.545H158.541C158.399 194.409 157.802 193.415 156.751 192.563C155.7 191.682 154.308 191.242 152.575 191.242C150.956 191.242 149.635 191.668 148.613 192.52C147.59 193.344 147.079 194.508 147.079 196.014C147.079 197.093 147.377 197.974 147.974 198.656C148.599 199.337 149.351 199.863 150.232 200.232C151.141 200.573 152.405 200.971 154.024 201.425C155.984 201.965 157.561 202.505 158.754 203.044C159.947 203.556 160.969 204.365 161.821 205.473C162.674 206.552 163.1 208.03 163.1 209.904C163.1 211.353 162.716 212.717 161.949 213.995C161.182 215.273 160.046 216.31 158.541 217.105C157.035 217.901 155.26 218.298 153.215 218.298ZM172.683 198.954C173.45 197.619 174.586 196.511 176.092 195.63C177.626 194.721 179.401 194.267 181.418 194.267C183.491 194.267 185.366 194.764 187.042 195.758C188.747 196.752 190.082 198.159 191.047 199.977C192.013 201.766 192.496 203.854 192.496 206.24C192.496 208.598 192.013 210.7 191.047 212.546C190.082 214.392 188.747 215.827 187.042 216.85C185.366 217.872 183.491 218.383 181.418 218.383C179.429 218.383 177.668 217.943 176.134 217.063C174.629 216.154 173.478 215.032 172.683 213.697V229.078H168.806V194.65H172.683V198.954ZM188.533 206.24C188.533 204.479 188.178 202.945 187.468 201.638C186.758 200.332 185.792 199.337 184.571 198.656C183.378 197.974 182.057 197.633 180.608 197.633C179.188 197.633 177.867 197.988 176.646 198.698C175.453 199.38 174.487 200.388 173.748 201.723C173.038 203.03 172.683 204.55 172.683 206.283C172.683 208.044 173.038 209.592 173.748 210.927C174.487 212.234 175.453 213.242 176.646 213.952C177.867 214.634 179.188 214.975 180.608 214.975C182.057 214.975 183.378 214.634 184.571 213.952C185.792 213.242 186.758 212.234 187.468 210.927C188.178 209.592 188.533 208.03 188.533 206.24ZM196.151 206.24C196.151 203.854 196.634 201.766 197.6 199.977C198.566 198.159 199.886 196.752 201.562 195.758C203.267 194.764 205.156 194.267 207.229 194.267C209.275 194.267 211.05 194.707 212.555 195.588C214.061 196.468 215.183 197.576 215.922 198.911V194.65H219.842V218H215.922V213.654C215.155 215.017 214.004 216.154 212.47 217.063C210.965 217.943 209.204 218.383 207.187 218.383C205.113 218.383 203.238 217.872 201.562 216.85C199.886 215.827 198.566 214.392 197.6 212.546C196.634 210.7 196.151 208.598 196.151 206.24ZM215.922 206.283C215.922 204.521 215.566 202.988 214.856 201.681C214.146 200.374 213.18 199.38 211.959 198.698C210.766 197.988 209.445 197.633 207.996 197.633C206.548 197.633 205.227 197.974 204.034 198.656C202.841 199.337 201.889 200.332 201.179 201.638C200.469 202.945 200.114 204.479 200.114 206.24C200.114 208.03 200.469 209.592 201.179 210.927C201.889 212.234 202.841 213.242 204.034 213.952C205.227 214.634 206.548 214.975 207.996 214.975C209.445 214.975 210.766 214.634 211.959 213.952C213.18 213.242 214.146 212.234 214.856 210.927C215.566 209.592 215.922 208.044 215.922 206.283ZM224.945 206.283C224.945 203.868 225.428 201.766 226.394 199.977C227.36 198.159 228.695 196.752 230.399 195.758C232.132 194.764 234.106 194.267 236.322 194.267C239.191 194.267 241.548 194.963 243.395 196.355C245.27 197.747 246.505 199.678 247.102 202.15H242.926C242.528 200.729 241.747 199.607 240.583 198.783C239.446 197.96 238.026 197.548 236.322 197.548C234.106 197.548 232.317 198.315 230.953 199.849C229.59 201.354 228.908 203.499 228.908 206.283C228.908 209.095 229.59 211.268 230.953 212.802C232.317 214.336 234.106 215.103 236.322 215.103C238.026 215.103 239.446 214.705 240.583 213.91C241.719 213.114 242.5 211.978 242.926 210.501H247.102C246.477 212.887 245.227 214.804 243.352 216.253C241.477 217.673 239.134 218.383 236.322 218.383C234.106 218.383 232.132 217.886 230.399 216.892C228.695 215.898 227.36 214.492 226.394 212.674C225.428 210.856 224.945 208.726 224.945 206.283ZM273.58 205.43C273.58 206.169 273.537 206.95 273.452 207.774H254.789C254.931 210.075 255.713 211.879 257.133 213.185C258.582 214.463 260.328 215.103 262.374 215.103C264.05 215.103 265.442 214.719 266.549 213.952C267.686 213.157 268.481 212.106 268.935 210.799H273.111C272.486 213.043 271.236 214.875 269.362 216.296C267.487 217.688 265.157 218.383 262.374 218.383C260.158 218.383 258.17 217.886 256.408 216.892C254.676 215.898 253.312 214.492 252.318 212.674C251.324 210.828 250.827 208.697 250.827 206.283C250.827 203.868 251.31 201.752 252.275 199.934C253.241 198.116 254.591 196.724 256.323 195.758C258.084 194.764 260.101 194.267 262.374 194.267C264.589 194.267 266.549 194.75 268.254 195.716C269.958 196.681 271.265 198.017 272.174 199.721C273.111 201.397 273.58 203.3 273.58 205.43ZM269.575 204.621C269.575 203.144 269.248 201.88 268.595 200.829C267.941 199.749 267.046 198.94 265.91 198.4C264.802 197.832 263.567 197.548 262.203 197.548C260.243 197.548 258.567 198.173 257.175 199.423C255.812 200.672 255.031 202.405 254.832 204.621H269.575Z" fill="black"/>
<path d="M570.22 141.515V171H566.343V149.014L556.543 171H553.816L543.973 148.971V171H540.096V141.515H544.271L555.179 165.887L566.087 141.515H570.22ZM586.979 171.383C584.792 171.383 582.803 170.886 581.014 169.892C579.253 168.898 577.861 167.492 576.838 165.674C575.844 163.828 575.347 161.697 575.347 159.283C575.347 156.897 575.858 154.794 576.881 152.977C577.932 151.13 579.352 149.724 581.142 148.758C582.931 147.764 584.934 147.267 587.15 147.267C589.365 147.267 591.368 147.764 593.157 148.758C594.947 149.724 596.353 151.116 597.376 152.934C598.427 154.752 598.952 156.868 598.952 159.283C598.952 161.697 598.412 163.828 597.333 165.674C596.282 167.492 594.848 168.898 593.03 169.892C591.212 170.886 589.195 171.383 586.979 171.383ZM586.979 167.975C588.371 167.975 589.678 167.648 590.899 166.995C592.121 166.341 593.101 165.361 593.839 164.055C594.606 162.748 594.99 161.157 594.99 159.283C594.99 157.408 594.62 155.817 593.882 154.51C593.143 153.204 592.177 152.238 590.984 151.613C589.791 150.96 588.499 150.633 587.107 150.633C585.687 150.633 584.38 150.96 583.187 151.613C582.022 152.238 581.085 153.204 580.375 154.51C579.665 155.817 579.31 157.408 579.31 159.283C579.31 161.186 579.65 162.791 580.332 164.097C581.042 165.404 581.98 166.384 583.144 167.037C584.309 167.662 585.587 167.975 586.979 167.975ZM607.928 151.443C608.609 150.108 609.575 149.071 610.825 148.332C612.103 147.594 613.651 147.224 615.469 147.224V151.23H614.447C610.101 151.23 607.928 153.587 607.928 158.303V171H604.05V147.65H607.928V151.443ZM641.25 158.43C641.25 159.169 641.207 159.95 641.122 160.774H622.459C622.601 163.075 623.382 164.879 624.803 166.185C626.251 167.463 627.998 168.103 630.044 168.103C631.719 168.103 633.111 167.719 634.219 166.952C635.355 166.157 636.151 165.106 636.605 163.799H640.781C640.156 166.043 638.906 167.875 637.031 169.296C635.157 170.688 632.827 171.383 630.044 171.383C627.828 171.383 625.839 170.886 624.078 169.892C622.346 168.898 620.982 167.492 619.988 165.674C618.994 163.828 618.497 161.697 618.497 159.283C618.497 156.868 618.979 154.752 619.945 152.934C620.911 151.116 622.26 149.724 623.993 148.758C625.754 147.764 627.771 147.267 630.044 147.267C632.259 147.267 634.219 147.75 635.924 148.716C637.628 149.681 638.935 151.017 639.844 152.721C640.781 154.397 641.25 156.3 641.25 158.43ZM637.244 157.621C637.244 156.144 636.918 154.88 636.264 153.829C635.611 152.749 634.716 151.94 633.58 151.4C632.472 150.832 631.237 150.548 629.873 150.548C627.913 150.548 626.237 151.173 624.845 152.423C623.482 153.672 622.701 155.405 622.502 157.621H637.244ZM675.282 164.396H662.329L659.943 171H655.852L666.59 141.472H671.064L681.758 171H677.668L675.282 164.396ZM674.174 161.243L668.805 146.244L663.437 161.243H674.174ZM684.989 159.283C684.989 156.868 685.472 154.766 686.438 152.977C687.404 151.159 688.739 149.752 690.443 148.758C692.176 147.764 694.15 147.267 696.366 147.267C699.235 147.267 701.593 147.963 703.439 149.355C705.314 150.747 706.549 152.678 707.146 155.15H702.97C702.573 153.729 701.791 152.607 700.627 151.783C699.491 150.96 698.07 150.548 696.366 150.548C694.15 150.548 692.361 151.315 690.997 152.849C689.634 154.354 688.952 156.499 688.952 159.283C688.952 162.095 689.634 164.268 690.997 165.802C692.361 167.336 694.15 168.103 696.366 168.103C698.07 168.103 699.491 167.705 700.627 166.91C701.763 166.114 702.544 164.978 702.97 163.501H707.146C706.521 165.887 705.271 167.804 703.396 169.253C701.522 170.673 699.178 171.383 696.366 171.383C694.15 171.383 692.176 170.886 690.443 169.892C688.739 168.898 687.404 167.492 686.438 165.674C685.472 163.856 684.989 161.726 684.989 159.283ZM710.871 159.283C710.871 156.868 711.354 154.766 712.32 152.977C713.285 151.159 714.62 149.752 716.325 148.758C718.058 147.764 720.032 147.267 722.247 147.267C725.116 147.267 727.474 147.963 729.32 149.355C731.195 150.747 732.431 152.678 733.027 155.15H728.852C728.454 153.729 727.673 152.607 726.508 151.783C725.372 150.96 723.952 150.548 722.247 150.548C720.032 150.548 718.242 151.315 716.879 152.849C715.515 154.354 714.833 156.499 714.833 159.283C714.833 162.095 715.515 164.268 716.879 165.802C718.242 167.336 720.032 168.103 722.247 168.103C723.952 168.103 725.372 167.705 726.508 166.91C727.645 166.114 728.426 164.978 728.852 163.501H733.027C732.402 165.887 731.153 167.804 729.278 169.253C727.403 170.673 725.06 171.383 722.247 171.383C720.032 171.383 718.058 170.886 716.325 169.892C714.62 168.898 713.285 167.492 712.32 165.674C711.354 163.856 710.871 161.726 710.871 159.283ZM759.505 158.43C759.505 159.169 759.463 159.95 759.378 160.774H740.715C740.857 163.075 741.638 164.879 743.058 166.185C744.507 167.463 746.254 168.103 748.299 168.103C749.975 168.103 751.367 167.719 752.475 166.952C753.611 166.157 754.407 165.106 754.861 163.799H759.037C758.412 166.043 757.162 167.875 755.287 169.296C753.412 170.688 751.083 171.383 748.299 171.383C746.084 171.383 744.095 170.886 742.334 169.892C740.601 168.898 739.238 167.492 738.244 165.674C737.249 163.828 736.752 161.697 736.752 159.283C736.752 156.868 737.235 154.752 738.201 152.934C739.167 151.116 740.516 149.724 742.249 148.758C744.01 147.764 746.027 147.267 748.299 147.267C750.515 147.267 752.475 147.75 754.179 148.716C755.884 149.681 757.19 151.017 758.099 152.721C759.037 154.397 759.505 156.3 759.505 158.43ZM755.5 157.621C755.5 156.144 755.173 154.88 754.52 153.829C753.867 152.749 752.972 151.94 751.836 151.4C750.728 150.832 749.492 150.548 748.129 150.548C746.169 150.548 744.493 151.173 743.101 152.423C741.738 153.672 740.956 155.405 740.758 157.621H755.5ZM772.89 171.383C771.1 171.383 769.495 171.085 768.075 170.489C766.654 169.864 765.532 169.012 764.709 167.932C763.885 166.824 763.43 165.56 763.345 164.14H767.35C767.464 165.305 768.004 166.256 768.97 166.995C769.964 167.733 771.256 168.103 772.847 168.103C774.324 168.103 775.489 167.776 776.341 167.123C777.193 166.469 777.619 165.646 777.619 164.651C777.619 163.629 777.165 162.876 776.256 162.393C775.347 161.882 773.941 161.385 772.037 160.902C770.305 160.447 768.884 159.993 767.776 159.538C766.697 159.055 765.76 158.359 764.964 157.45C764.197 156.513 763.814 155.292 763.814 153.786C763.814 152.593 764.169 151.499 764.879 150.505C765.589 149.511 766.598 148.73 767.904 148.162C769.211 147.565 770.702 147.267 772.378 147.267C774.963 147.267 777.051 147.92 778.642 149.227C780.232 150.534 781.085 152.323 781.198 154.596H777.321C777.236 153.374 776.739 152.394 775.83 151.656C774.949 150.917 773.756 150.548 772.25 150.548C770.859 150.548 769.751 150.846 768.927 151.443C768.103 152.039 767.691 152.82 767.691 153.786C767.691 154.553 767.933 155.192 768.416 155.703C768.927 156.186 769.552 156.584 770.29 156.897C771.057 157.181 772.108 157.507 773.443 157.877C775.119 158.331 776.483 158.786 777.534 159.24C778.585 159.666 779.48 160.319 780.218 161.2C780.985 162.081 781.383 163.231 781.411 164.651C781.411 165.93 781.056 167.08 780.346 168.103C779.636 169.125 778.627 169.935 777.321 170.531C776.043 171.099 774.565 171.383 772.89 171.383ZM795.151 171.383C793.361 171.383 791.756 171.085 790.336 170.489C788.916 169.864 787.794 169.012 786.97 167.932C786.146 166.824 785.692 165.56 785.607 164.14H789.612C789.725 165.305 790.265 166.256 791.231 166.995C792.225 167.733 793.518 168.103 795.108 168.103C796.585 168.103 797.75 167.776 798.602 167.123C799.454 166.469 799.88 165.646 799.88 164.651C799.88 163.629 799.426 162.876 798.517 162.393C797.608 161.882 796.202 161.385 794.299 160.902C792.566 160.447 791.146 159.993 790.038 159.538C788.958 159.055 788.021 158.359 787.226 157.45C786.459 156.513 786.075 155.292 786.075 153.786C786.075 152.593 786.43 151.499 787.14 150.505C787.851 149.511 788.859 148.73 790.166 148.162C791.472 147.565 792.964 147.267 794.64 147.267C797.225 147.267 799.312 147.92 800.903 149.227C802.494 150.534 803.346 152.323 803.46 154.596H799.582C799.497 153.374 799 152.394 798.091 151.656C797.21 150.917 796.017 150.548 794.512 150.548C793.12 150.548 792.012 150.846 791.188 151.443C790.365 152.039 789.953 152.82 789.953 153.786C789.953 154.553 790.194 155.192 790.677 155.703C791.188 156.186 791.813 156.584 792.552 156.897C793.319 157.181 794.37 157.507 795.705 157.877C797.381 158.331 798.744 158.786 799.795 159.24C800.846 159.666 801.741 160.319 802.48 161.2C803.247 162.081 803.644 163.231 803.673 164.651C803.673 165.93 803.318 167.08 802.607 168.103C801.897 169.125 800.889 169.935 799.582 170.531C798.304 171.099 796.827 171.383 795.151 171.383ZM825.235 150.846V164.609C825.235 165.745 825.477 166.554 825.96 167.037C826.443 167.492 827.281 167.719 828.474 167.719H831.328V171H827.834C825.676 171 824.056 170.503 822.977 169.509C821.898 168.514 821.358 166.881 821.358 164.609V150.846H818.333V147.65H821.358V141.77H825.235V147.65H831.328V150.846H825.235ZM846.21 171.383C844.022 171.383 842.034 170.886 840.245 169.892C838.483 168.898 837.091 167.492 836.069 165.674C835.075 163.828 834.578 161.697 834.578 159.283C834.578 156.897 835.089 154.794 836.111 152.977C837.162 151.13 838.583 149.724 840.372 148.758C842.162 147.764 844.165 147.267 846.38 147.267C848.596 147.267 850.598 147.764 852.388 148.758C854.178 149.724 855.584 151.116 856.606 152.934C857.657 154.752 858.183 156.868 858.183 159.283C858.183 161.697 857.643 163.828 856.564 165.674C855.513 167.492 854.078 168.898 852.26 169.892C850.442 170.886 848.425 171.383 846.21 171.383ZM846.21 167.975C847.602 167.975 848.908 167.648 850.13 166.995C851.351 166.341 852.331 165.361 853.07 164.055C853.837 162.748 854.22 161.157 854.22 159.283C854.22 157.408 853.851 155.817 853.112 154.51C852.374 153.204 851.408 152.238 850.215 151.613C849.022 150.96 847.729 150.633 846.338 150.633C844.917 150.633 843.611 150.96 842.418 151.613C841.253 152.238 840.316 153.204 839.605 154.51C838.895 155.817 838.54 157.408 838.54 159.283C838.54 161.186 838.881 162.791 839.563 164.097C840.273 165.404 841.21 166.384 842.375 167.037C843.54 167.662 844.818 167.975 846.21 167.975ZM610.361 196.909C609.538 195.176 608.345 193.841 606.782 192.903C605.22 191.938 603.402 191.455 601.328 191.455C599.255 191.455 597.38 191.938 595.704 192.903C594.056 193.841 592.75 195.204 591.784 196.994C590.847 198.755 590.378 200.8 590.378 203.13C590.378 205.459 590.847 207.504 591.784 209.265C592.75 211.026 594.056 212.39 595.704 213.356C597.38 214.293 599.255 214.762 601.328 214.762C604.226 214.762 606.612 213.895 608.487 212.163C610.361 210.43 611.455 208.086 611.767 205.132H599.922V201.979H615.9V204.962C615.673 207.405 614.906 209.649 613.6 211.694C612.293 213.711 610.574 215.316 608.444 216.509C606.314 217.673 603.942 218.256 601.328 218.256C598.573 218.256 596.059 217.617 593.787 216.338C591.514 215.032 589.71 213.228 588.375 210.927C587.069 208.626 586.415 206.027 586.415 203.13C586.415 200.232 587.069 197.633 588.375 195.332C589.71 193.003 591.514 191.199 593.787 189.921C596.059 188.614 598.573 187.961 601.328 187.961C604.481 187.961 607.265 188.742 609.68 190.304C612.122 191.867 613.898 194.068 615.006 196.909H610.361ZM624.905 198.443C625.586 197.108 626.552 196.071 627.802 195.332C629.08 194.594 630.628 194.224 632.446 194.224V198.23H631.424C627.078 198.23 624.905 200.587 624.905 205.303V218H621.027V194.65H624.905V198.443ZM658.227 205.43C658.227 206.169 658.184 206.95 658.099 207.774H639.436C639.578 210.075 640.359 211.879 641.78 213.185C643.228 214.463 644.975 215.103 647.02 215.103C648.696 215.103 650.088 214.719 651.196 213.952C652.332 213.157 653.128 212.106 653.582 210.799H657.758C657.133 213.043 655.883 214.875 654.008 216.296C652.134 217.688 649.804 218.383 647.02 218.383C644.805 218.383 642.816 217.886 641.055 216.892C639.322 215.898 637.959 214.492 636.965 212.674C635.971 210.828 635.474 208.697 635.474 206.283C635.474 203.868 635.956 201.752 636.922 199.934C637.888 198.116 639.237 196.724 640.97 195.758C642.731 194.764 644.748 194.267 647.02 194.267C649.236 194.267 651.196 194.75 652.9 195.716C654.605 196.681 655.911 198.017 656.82 199.721C657.758 201.397 658.227 203.3 658.227 205.43ZM654.221 204.621C654.221 203.144 653.895 201.88 653.241 200.829C652.588 199.749 651.693 198.94 650.557 198.4C649.449 197.832 648.214 197.548 646.85 197.548C644.89 197.548 643.214 198.173 641.822 199.423C640.459 200.672 639.678 202.405 639.479 204.621H654.221ZM684.649 205.43C684.649 206.169 684.606 206.95 684.521 207.774H665.858C666.001 210.075 666.782 211.879 668.202 213.185C669.651 214.463 671.398 215.103 673.443 215.103C675.119 215.103 676.511 214.719 677.618 213.952C678.755 213.157 679.55 212.106 680.005 210.799H684.18C683.555 213.043 682.305 214.875 680.431 216.296C678.556 217.688 676.227 218.383 673.443 218.383C671.227 218.383 669.239 217.886 667.478 216.892C665.745 215.898 664.381 214.492 663.387 212.674C662.393 210.828 661.896 208.697 661.896 206.283C661.896 203.868 662.379 201.752 663.345 199.934C664.31 198.116 665.66 196.724 667.392 195.758C669.154 194.764 671.17 194.267 673.443 194.267C675.658 194.267 677.618 194.75 679.323 195.716C681.027 196.681 682.334 198.017 683.243 199.721C684.18 201.397 684.649 203.3 684.649 205.43ZM680.644 204.621C680.644 203.144 680.317 201.88 679.664 200.829C679.01 199.749 678.116 198.94 676.979 198.4C675.872 197.832 674.636 197.548 673.272 197.548C671.312 197.548 669.636 198.173 668.245 199.423C666.881 200.672 666.1 202.405 665.901 204.621H680.644ZM701.143 194.224C703.984 194.224 706.285 195.091 708.046 196.823C709.807 198.528 710.688 200.999 710.688 204.237V218H706.853V204.791C706.853 202.462 706.271 200.687 705.106 199.465C703.941 198.215 702.351 197.59 700.334 197.59C698.289 197.59 696.655 198.23 695.434 199.508C694.241 200.786 693.644 202.647 693.644 205.09V218H689.767V194.65H693.644V197.974C694.411 196.781 695.448 195.858 696.755 195.204C698.09 194.551 699.553 194.224 701.143 194.224ZM737.798 218.298C735.838 218.298 734.076 217.957 732.514 217.276C730.98 216.566 729.773 215.6 728.892 214.378C728.012 213.128 727.557 211.694 727.529 210.075H731.662C731.804 211.467 732.372 212.646 733.366 213.611C734.389 214.549 735.866 215.017 737.798 215.017C739.644 215.017 741.093 214.563 742.144 213.654C743.223 212.717 743.763 211.523 743.763 210.075C743.763 208.939 743.45 208.015 742.825 207.305C742.201 206.595 741.419 206.055 740.482 205.686C739.545 205.317 738.281 204.919 736.69 204.493C734.73 203.982 733.153 203.47 731.96 202.959C730.796 202.448 729.787 201.652 728.935 200.573C728.111 199.465 727.699 197.988 727.699 196.142C727.699 194.523 728.111 193.088 728.935 191.838C729.759 190.588 730.909 189.623 732.386 188.941C733.892 188.259 735.61 187.918 737.542 187.918C740.326 187.918 742.598 188.614 744.359 190.006C746.149 191.398 747.157 193.244 747.385 195.545H743.124C742.982 194.409 742.385 193.415 741.334 192.563C740.283 191.682 738.891 191.242 737.158 191.242C735.539 191.242 734.218 191.668 733.196 192.52C732.173 193.344 731.662 194.508 731.662 196.014C731.662 197.093 731.96 197.974 732.557 198.656C733.182 199.337 733.934 199.863 734.815 200.232C735.724 200.573 736.988 200.971 738.607 201.425C740.567 201.965 742.144 202.505 743.337 203.044C744.53 203.556 745.552 204.365 746.405 205.473C747.257 206.552 747.683 208.03 747.683 209.904C747.683 211.353 747.299 212.717 746.532 213.995C745.765 215.273 744.629 216.31 743.124 217.105C741.618 217.901 739.843 218.298 737.798 218.298ZM757.266 198.954C758.033 197.619 759.169 196.511 760.675 195.63C762.209 194.721 763.984 194.267 766.001 194.267C768.075 194.267 769.949 194.764 771.625 195.758C773.33 196.752 774.665 198.159 775.63 199.977C776.596 201.766 777.079 203.854 777.079 206.24C777.079 208.598 776.596 210.7 775.63 212.546C774.665 214.392 773.33 215.827 771.625 216.85C769.949 217.872 768.075 218.383 766.001 218.383C764.012 218.383 762.251 217.943 760.717 217.063C759.212 216.154 758.061 215.032 757.266 213.697V229.078H753.389V194.65H757.266V198.954ZM773.117 206.24C773.117 204.479 772.761 202.945 772.051 201.638C771.341 200.332 770.375 199.337 769.154 198.656C767.961 197.974 766.64 197.633 765.191 197.633C763.771 197.633 762.45 197.988 761.229 198.698C760.036 199.38 759.07 200.388 758.331 201.723C757.621 203.03 757.266 204.55 757.266 206.283C757.266 208.044 757.621 209.592 758.331 210.927C759.07 212.234 760.036 213.242 761.229 213.952C762.45 214.634 763.771 214.975 765.191 214.975C766.64 214.975 767.961 214.634 769.154 213.952C770.375 213.242 771.341 212.234 772.051 210.927C772.761 209.592 773.117 208.03 773.117 206.24ZM780.734 206.24C780.734 203.854 781.217 201.766 782.183 199.977C783.149 198.159 784.47 196.752 786.146 195.758C787.85 194.764 789.739 194.267 791.812 194.267C793.858 194.267 795.633 194.707 797.139 195.588C798.644 196.468 799.766 197.576 800.505 198.911V194.65H804.425V218H800.505V213.654C799.738 215.017 798.587 216.154 797.053 217.063C795.548 217.943 793.787 218.383 791.77 218.383C789.696 218.383 787.821 217.872 786.146 216.85C784.47 215.827 783.149 214.392 782.183 212.546C781.217 210.7 780.734 208.598 780.734 206.24ZM800.505 206.283C800.505 204.521 800.15 202.988 799.439 201.681C798.729 200.374 797.763 199.38 796.542 198.698C795.349 197.988 794.028 197.633 792.579 197.633C791.131 197.633 789.81 197.974 788.617 198.656C787.424 199.337 786.472 200.332 785.762 201.638C785.052 202.945 784.697 204.479 784.697 206.24C784.697 208.03 785.052 209.592 785.762 210.927C786.472 212.234 787.424 213.242 788.617 213.952C789.81 214.634 791.131 214.975 792.579 214.975C794.028 214.975 795.349 214.634 796.542 213.952C797.763 213.242 798.729 212.234 799.439 210.927C800.15 209.592 800.505 208.044 800.505 206.283ZM809.528 206.283C809.528 203.868 810.011 201.766 810.977 199.977C811.943 198.159 813.278 196.752 814.982 195.758C816.715 194.764 818.689 194.267 820.905 194.267C823.774 194.267 826.132 194.963 827.978 196.355C829.853 197.747 831.088 199.678 831.685 202.15H827.509C827.112 200.729 826.33 199.607 825.166 198.783C824.03 197.96 822.609 197.548 820.905 197.548C818.689 197.548 816.9 198.315 815.536 199.849C814.173 201.354 813.491 203.499 813.491 206.283C813.491 209.095 814.173 211.268 815.536 212.802C816.9 214.336 818.689 215.103 820.905 215.103C822.609 215.103 824.03 214.705 825.166 213.91C826.302 213.114 827.083 211.978 827.509 210.501H831.685C831.06 212.887 829.81 214.804 827.935 216.253C826.061 217.673 823.717 218.383 820.905 218.383C818.689 218.383 816.715 217.886 814.982 216.892C813.278 215.898 811.943 214.492 810.977 212.674C810.011 210.856 809.528 208.726 809.528 206.283ZM858.163 205.43C858.163 206.169 858.12 206.95 858.035 207.774H839.372C839.514 210.075 840.296 211.879 841.716 213.185C843.165 214.463 844.912 215.103 846.957 215.103C848.633 215.103 850.025 214.719 851.132 213.952C852.269 213.157 853.064 212.106 853.519 210.799H857.694C857.069 213.043 855.819 214.875 853.945 216.296C852.07 217.688 849.741 218.383 846.957 218.383C844.741 218.383 842.753 217.886 840.992 216.892C839.259 215.898 837.895 214.492 836.901 212.674C835.907 210.828 835.41 208.697 835.41 206.283C835.41 203.868 835.893 201.752 836.859 199.934C837.824 198.116 839.174 196.724 840.906 195.758C842.667 194.764 844.684 194.267 846.957 194.267C849.172 194.267 851.132 194.75 852.837 195.716C854.541 196.681 855.848 198.017 856.757 199.721C857.694 201.397 858.163 203.3 858.163 205.43ZM854.158 204.621C854.158 203.144 853.831 201.88 853.178 200.829C852.524 199.749 851.63 198.94 850.493 198.4C849.385 197.832 848.15 197.548 846.786 197.548C844.826 197.548 843.15 198.173 841.759 199.423C840.395 200.672 839.614 202.405 839.415 204.621H854.158Z" fill="black"/>
</svg>
