<svg width="861" height="227" viewBox="0 0 861 227" fill="none" xmlns="http://www.w3.org/2000/svg">
<rect width="861" height="123" fill="#32B08C"/>
<path d="M230.158 60.4052V49.4974H235.868C240.299 49.4974 242.174 51.5426 242.174 54.9939C242.174 58.3174 240.299 60.4052 235.868 60.4052H230.158ZM246.137 54.9939C246.137 50.1365 242.856 46.3017 235.868 46.3017H226.281V76H230.158V63.6009H235.868C243.239 63.6009 246.137 59.5104 246.137 54.9939ZM271.663 52.6504H267.786V65.4757C267.786 70.5035 265.102 72.9748 261.097 72.9748C257.177 72.9748 254.577 70.5461 254.577 65.8165V52.6504H250.743V66.3278C250.743 73.0174 254.961 76.3409 260.33 76.3409C263.44 76.3409 266.295 74.9774 267.786 72.5487V76H271.663V52.6504ZM282.088 56.9965V44.4696H278.21V76H282.088V71.6965C283.536 74.253 286.562 76.3835 290.822 76.3835C297.086 76.3835 301.901 71.4835 301.901 64.24C301.901 56.9539 297.128 52.267 290.822 52.267C286.689 52.267 283.579 54.3974 282.088 56.9965ZM297.938 64.24C297.938 69.7365 294.316 72.9748 290.013 72.9748C285.795 72.9748 282.088 69.7791 282.088 64.2826C282.088 58.8713 285.795 55.633 290.013 55.633C294.316 55.633 297.938 58.7435 297.938 64.24ZM307.004 76H310.882V44.4696H307.004V76ZM317.49 76H321.367V52.6504H317.49V76ZM319.493 48.8583C320.899 48.8583 322.049 47.7078 322.049 46.2165C322.049 44.7252 320.899 43.5748 319.493 43.5748C318.001 43.5748 316.851 44.7252 316.851 46.2165C316.851 47.7078 318.001 48.8583 319.493 48.8583ZM326.527 64.2826C326.527 71.6965 331.257 76.3835 337.904 76.3835C343.698 76.3835 347.491 73.1452 348.684 68.5009H344.508C343.656 71.4409 341.355 73.1026 337.904 73.1026C333.643 73.1026 330.49 70.0774 330.49 64.2826C330.49 58.573 333.643 55.5478 337.904 55.5478C341.355 55.5478 343.698 57.3374 344.508 60.1496H348.684C347.491 55.2496 343.698 52.267 337.904 52.267C331.257 52.267 326.527 56.9539 326.527 64.2826ZM378.681 45.9609C370.33 45.9609 363.768 52.2243 363.768 61.1296C363.768 70.0348 370.33 76.2557 378.681 76.2557C386.734 76.2557 392.572 70.333 393.253 62.9617V59.9791H377.275V63.1322H389.12C388.524 69.0122 384.519 72.7617 378.681 72.7617C372.418 72.7617 367.731 68.2452 367.731 61.1296C367.731 53.9713 372.418 49.4548 378.681 49.4548C382.857 49.4548 386.095 51.4574 387.714 54.9087H392.359C390.143 49.1991 384.945 45.9609 378.681 45.9609ZM402.257 63.3026C402.257 57.8913 405.07 56.2296 408.777 56.2296H409.799V52.2243C406.092 52.2243 403.578 53.8435 402.257 56.4426V52.6504H398.38V76H402.257V63.3026ZM424.203 55.5478C428.208 55.5478 431.617 58.0617 431.574 62.6209H416.832C417.258 58.0617 420.411 55.5478 424.203 55.5478ZM435.111 68.7991H430.935C430.083 71.313 427.867 73.1026 424.373 73.1026C420.411 73.1026 417.087 70.5035 416.789 65.7739H435.452C435.537 64.9643 435.579 64.2826 435.579 63.4304C435.579 57.0391 431.148 52.267 424.373 52.267C417.556 52.267 412.826 56.9113 412.826 64.2826C412.826 71.6965 417.726 76.3835 424.373 76.3835C430.168 76.3835 433.918 73.06 435.111 68.7991ZM450.625 55.5478C454.631 55.5478 458.039 58.0617 457.997 62.6209H443.254C443.68 58.0617 446.833 55.5478 450.625 55.5478ZM461.533 68.7991H457.357C456.505 71.313 454.29 73.1026 450.796 73.1026C446.833 73.1026 443.51 70.5035 443.211 65.7739H461.874C461.959 64.9643 462.002 64.2826 462.002 63.4304C462.002 57.0391 457.571 52.267 450.796 52.267C443.978 52.267 439.249 56.9113 439.249 64.2826C439.249 71.6965 444.149 76.3835 450.796 76.3835C456.591 76.3835 460.34 73.06 461.533 68.7991ZM484.206 76H488.041V62.2374C488.041 55.5478 483.908 52.2243 478.496 52.2243C475.343 52.2243 472.531 53.5452 470.997 55.9739V52.6504H467.12V76H470.997V63.0896C470.997 58.0617 473.724 55.5904 477.687 55.5904C481.607 55.5904 484.206 58.0191 484.206 62.7913V76ZM525.036 67.9043C525.036 56.9113 509.015 61.6835 509.015 54.0139C509.015 50.8183 511.529 49.1565 514.724 49.2417C518.346 49.2843 520.221 51.5426 520.477 53.5452H524.737C524.269 49.0287 520.562 45.9183 514.895 45.9183C509.015 45.9183 505.052 49.2417 505.052 54.1417C505.052 65.1774 521.116 60.0643 521.116 68.0748C521.116 70.887 518.9 73.0174 515.151 73.0174C511.017 73.0174 509.271 70.5461 509.015 68.0748H504.882C504.967 72.9748 509.185 76.2983 515.151 76.2983C521.584 76.2983 525.036 72.1226 525.036 67.9043ZM534.619 56.9539V52.6504H530.742V87.0783H534.619V71.6965C536.068 74.0826 539.093 76.3835 543.354 76.3835C549.617 76.3835 554.432 71.4835 554.432 64.24C554.432 56.9539 549.617 52.267 543.354 52.267C539.093 52.267 536.025 54.4826 534.619 56.9539ZM550.469 64.24C550.469 69.7365 546.848 72.9748 542.544 72.9748C538.326 72.9748 534.619 69.7791 534.619 64.2826C534.619 58.8713 538.326 55.633 542.544 55.633C546.848 55.633 550.469 58.7435 550.469 64.24ZM558.087 64.24C558.087 71.4835 562.902 76.3835 569.123 76.3835C573.426 76.3835 576.451 74.1678 577.858 71.6539V76H581.778V52.6504H577.858V56.9113C576.494 54.4826 573.511 52.267 569.165 52.267C562.902 52.267 558.087 56.9539 558.087 64.24ZM577.858 64.2826C577.858 69.7791 574.193 72.9748 569.932 72.9748C565.671 72.9748 562.05 69.7365 562.05 64.24C562.05 58.7435 565.671 55.633 569.932 55.633C574.193 55.633 577.858 58.8713 577.858 64.2826ZM586.881 64.2826C586.881 71.6965 591.611 76.3835 598.258 76.3835C604.053 76.3835 607.845 73.1452 609.038 68.5009H604.862C604.01 71.4409 601.709 73.1026 598.258 73.1026C593.997 73.1026 590.844 70.0774 590.844 64.2826C590.844 58.573 593.997 55.5478 598.258 55.5478C601.709 55.5478 604.053 57.3374 604.862 60.1496H609.038C607.845 55.2496 604.053 52.267 598.258 52.267C591.611 52.267 586.881 56.9539 586.881 64.2826ZM624.139 55.5478C628.144 55.5478 631.553 58.0617 631.511 62.6209H616.768C617.194 58.0617 620.347 55.5478 624.139 55.5478ZM635.047 68.7991H630.871C630.019 71.313 627.804 73.1026 624.31 73.1026C620.347 73.1026 617.024 70.5035 616.725 65.7739H635.388C635.473 64.9643 635.516 64.2826 635.516 63.4304C635.516 57.0391 631.084 52.267 624.31 52.267C617.492 52.267 612.763 56.9113 612.763 64.2826C612.763 71.6965 617.663 76.3835 624.31 76.3835C630.104 76.3835 633.854 73.06 635.047 68.7991Z" fill="white"/>
</svg>
