<svg width="246" height="66" viewBox="0 0 246 66" fill="none" xmlns="http://www.w3.org/2000/svg">
<rect width="35" height="35" transform="matrix(-1 0 0 1 245.5 0.519043)" fill="#BF0978"/>
<rect width="35" height="35" transform="matrix(-1 0 0 1 210.5 0.519043)" fill="#D76FA0"/>
<rect width="35" height="35" transform="matrix(-1 0 0 1 175.5 0.519043)" fill="#E9B3CA"/>
<rect width="35" height="35" transform="matrix(-1 0 0 1 140.5 0.519043)" fill="#F5F5F5"/>
<rect width="35" height="35" transform="matrix(-1 0 0 1 70.5 0.519043)" fill="#7FC8AE"/>
<rect width="35" height="35" transform="matrix(-1 0 0 1 105.5 0.519043)" fill="#BBDFD1"/>
<rect width="35" height="35" transform="matrix(-1 0 0 1 35.5 0.519043)" fill="#32B08C"/>
<path d="M3.14312 49.3767L0.778862 40.9139H1.95493L3.79784 48.0794L5.83475 40.9139H7.07144L9.01135 48.0552L10.8664 40.9139H12.0546L9.60544 49.3646H8.36875L6.4046 42.5628L4.36769 49.3646L3.14312 49.3767ZM13.262 49.3646V42.7204H14.3653V49.3646H13.262ZM13.8318 41.6414C13.4075 41.6414 13.0801 41.314 13.0801 40.8896C13.0801 40.4653 13.4075 40.1379 13.8318 40.1379C14.232 40.1379 14.5593 40.4653 14.5593 40.8896C14.5593 41.314 14.232 41.6414 13.8318 41.6414ZM15.8335 46.0183C15.8335 43.945 17.2036 42.6113 18.998 42.6113C20.0407 42.6113 20.9985 43.1448 21.4592 43.9086V40.3925H22.5747V49.3646H21.4592V48.1158C21.0591 48.8554 20.1983 49.4737 18.9859 49.4737C17.2036 49.4737 15.8335 48.0794 15.8335 46.0183ZM21.4592 46.0304C21.4592 44.4906 20.4165 43.5691 19.2041 43.5691C17.9917 43.5691 16.9611 44.4542 16.9611 46.0183C16.9611 47.5823 17.9917 48.5038 19.2041 48.5038C20.4165 48.5038 21.4592 47.5945 21.4592 46.0304ZM27.2642 43.5449C26.1851 43.5449 25.2879 44.2602 25.1667 45.5576H29.3617C29.3738 44.2602 28.4039 43.5449 27.2642 43.5449ZM30.3681 47.3156C30.0286 48.528 28.9616 49.4737 27.3127 49.4737C25.4213 49.4737 24.027 48.1401 24.027 46.0304C24.027 43.9329 25.3728 42.6113 27.3127 42.6113C29.2405 42.6113 30.5014 43.9693 30.5014 45.7879C30.5014 46.0304 30.4893 46.2244 30.465 46.4548H25.1545C25.2394 47.8006 26.1851 48.5402 27.3127 48.5402C28.3069 48.5402 28.9374 48.0309 29.1799 47.3156H30.3681ZM33.0611 45.7515V49.3646H31.9578V42.7204H33.0611V43.7995C33.4369 43.0599 34.1523 42.5992 35.2071 42.5992V43.7389H34.9161C33.8613 43.7389 33.0611 44.2117 33.0611 45.7515ZM2.5369 56.945C2.93701 56.2418 3.80997 55.6113 5.02241 55.6113C6.8047 55.6113 8.17476 56.945 8.17476 59.0183C8.17476 61.0794 6.8047 62.4737 5.02241 62.4737C3.80997 62.4737 2.94913 61.819 2.5369 61.1401V65.517H1.43358V55.7204H2.5369V56.945ZM7.04719 59.0183C7.04719 57.4542 6.01661 56.5691 4.79205 56.5691C3.59173 56.5691 2.5369 57.4906 2.5369 59.0304C2.5369 60.5945 3.59173 61.5038 4.79205 61.5038C6.01661 61.5038 7.04719 60.5823 7.04719 59.0183ZM9.21481 59.0183C9.21481 56.945 10.5849 55.6113 12.3672 55.6113C13.6039 55.6113 14.4526 56.2418 14.8405 56.9329V55.7204H15.956V62.3646H14.8405V61.1279C14.4404 61.8433 13.5796 62.4737 12.355 62.4737C10.5849 62.4737 9.21481 61.0794 9.21481 59.0183ZM14.8405 59.0304C14.8405 57.4906 13.7978 56.5691 12.5854 56.5691C11.373 56.5691 10.3424 57.4542 10.3424 59.0183C10.3424 60.5823 11.373 61.5038 12.5854 61.5038C13.7978 61.5038 14.8405 60.5945 14.8405 59.0304ZM17.0324 55.7204H18.2206L20.2939 61.3462L22.355 55.7204H23.5311L20.9244 62.3646H19.6392L17.0324 55.7204ZM27.4418 56.5449C26.3627 56.5449 25.4655 57.2602 25.3443 58.5576H29.5393C29.5514 57.2602 28.5815 56.5449 27.4418 56.5449ZM30.5457 60.3156C30.2062 61.528 29.1392 62.4737 27.4903 62.4737C25.5989 62.4737 24.2046 61.1401 24.2046 59.0304C24.2046 56.9329 25.5504 55.6113 27.4903 55.6113C29.4181 55.6113 30.679 56.9693 30.679 58.7879C30.679 59.0304 30.6669 59.2244 30.6426 59.4548H25.3321C25.417 60.8006 26.3627 61.5402 27.4903 61.5402C28.4845 61.5402 29.115 61.0309 29.3575 60.3156H30.5457ZM41.7258 62.3646V58.6061C41.7258 57.2481 40.9983 56.557 39.9071 56.557C38.7917 56.557 38.0278 57.2724 38.0278 58.703V62.3646H36.9366V58.6061C36.9366 57.2481 36.2092 56.557 35.118 56.557C34.0025 56.557 33.2387 57.2724 33.2387 58.703V62.3646H32.1354V55.7204H33.2387V56.6783C33.6752 55.9751 34.4633 55.5992 35.3362 55.5992C36.4274 55.5992 37.3368 56.0842 37.7732 57.0784C38.1612 56.1205 39.1069 55.5992 40.1254 55.5992C41.6409 55.5992 42.817 56.5449 42.817 58.4484V62.3646H41.7258ZM47.4518 56.5449C46.3728 56.5449 45.4756 57.2602 45.3543 58.5576H49.5494C49.5615 57.2602 48.5915 56.5449 47.4518 56.5449ZM50.5557 60.3156C50.2162 61.528 49.1493 62.4737 47.5003 62.4737C45.6089 62.4737 44.2146 61.1401 44.2146 59.0304C44.2146 56.9329 45.5604 55.6113 47.5003 55.6113C49.4281 55.6113 50.6891 56.9693 50.6891 58.7879C50.6891 59.0304 50.6769 59.2244 50.6527 59.4548H45.3422C45.4271 60.8006 46.3728 61.5402 47.5003 61.5402C48.4945 61.5402 49.125 61.0309 49.3675 60.3156H50.5557ZM57.0073 62.3646V58.6061C57.0073 57.2481 56.2677 56.557 55.1523 56.557C54.0247 56.557 53.2487 57.2602 53.2487 58.6909V62.3646H52.1454V55.7204H53.2487V56.6661C53.6852 55.9751 54.4854 55.5992 55.3826 55.5992C56.9224 55.5992 58.0985 56.5449 58.0985 58.4484V62.3646H57.0073ZM60.1433 60.546V56.6298H59.2824V55.7204H60.1433V54.0473H61.2466V55.7204H62.9804V56.6298H61.2466V60.546C61.2466 61.2007 61.4891 61.431 62.168 61.431H62.9804V62.3646H61.9862C60.8101 62.3646 60.1433 61.8796 60.1433 60.546ZM69.0942 60.5581C69.0942 61.6493 68.1364 62.4737 66.6693 62.4737C65.1174 62.4737 64.0262 61.625 63.9535 60.4126H65.0932C65.1538 61.0552 65.7236 61.5402 66.6572 61.5402C67.5302 61.5402 68.0151 61.1037 68.0151 60.5581C68.0151 59.0789 64.0868 59.9397 64.0868 57.4664C64.0868 56.4479 65.0447 55.6113 66.5238 55.6113C67.9909 55.6113 68.9609 56.3994 69.0336 57.6967H67.9303C67.8818 57.0299 67.3726 56.5449 66.4875 56.5449C65.6751 56.5449 65.1902 56.9329 65.1902 57.4664C65.1902 59.0425 69.0457 58.1817 69.0942 60.5581Z" fill="black"/>
<path d="M196.183 40.9018H197.286V49.3646H196.183L191.745 42.6356V49.3646H190.642V40.9018H191.745L196.183 47.6187V40.9018ZM198.755 46.0183C198.755 43.945 200.125 42.6113 201.907 42.6113C203.144 42.6113 203.992 43.2418 204.38 43.9329V42.7204H205.496V49.3646H204.38V48.1279C203.98 48.8433 203.119 49.4737 201.895 49.4737C200.125 49.4737 198.755 48.0794 198.755 46.0183ZM204.38 46.0304C204.38 44.4906 203.338 43.5691 202.125 43.5691C200.913 43.5691 199.882 44.4542 199.882 46.0183C199.882 47.5823 200.913 48.5038 202.125 48.5038C203.338 48.5038 204.38 47.5945 204.38 46.0304ZM208.464 45.7515V49.3646H207.36V42.7204H208.464V43.7995C208.84 43.0599 209.555 42.5992 210.61 42.5992V43.7389H210.319C209.264 43.7389 208.464 44.2117 208.464 45.7515ZM212.987 45.7515V49.3646H211.883V42.7204H212.987V43.7995C213.362 43.0599 214.078 42.5992 215.133 42.5992V43.7389H214.842C213.787 43.7389 212.987 44.2117 212.987 45.7515ZM222.711 46.0304C222.711 48.1401 221.195 49.4737 219.304 49.4737C217.425 49.4737 215.994 48.1401 215.994 46.0304C215.994 43.9329 217.473 42.6113 219.353 42.6113C221.244 42.6113 222.711 43.9329 222.711 46.0304ZM217.122 46.0304C217.122 47.7157 218.152 48.5038 219.304 48.5038C220.456 48.5038 221.583 47.7157 221.583 46.0304C221.583 44.3572 220.48 43.5691 219.34 43.5691C218.176 43.5691 217.122 44.3572 217.122 46.0304ZM225.459 49.3646L223.374 42.7204H224.501L226.029 48.2977L227.678 42.7204H228.805L230.418 48.3098L231.921 42.7204H233.013L230.939 49.3646H229.8L228.199 44.0905L226.599 49.3646H225.459ZM236.932 43.5449C235.853 43.5449 234.956 44.2602 234.835 45.5576H239.03C239.042 44.2602 238.072 43.5449 236.932 43.5449ZM240.036 47.3156C239.697 48.528 238.63 49.4737 236.981 49.4737C235.09 49.4737 233.695 48.1401 233.695 46.0304C233.695 43.9329 235.041 42.6113 236.981 42.6113C238.909 42.6113 240.17 43.9693 240.17 45.7879C240.17 46.0304 240.158 46.2244 240.133 46.4548H234.823C234.908 47.8006 235.853 48.5402 236.981 48.5402C237.975 48.5402 238.606 48.0309 238.848 47.3156H240.036ZM242.729 45.7515V49.3646H241.626V42.7204H242.729V43.7995C243.105 43.0599 243.821 42.5992 244.875 42.5992V43.7389H244.584C243.53 43.7389 242.729 44.2117 242.729 45.7515ZM178.034 56.945C178.434 56.2418 179.307 55.6113 180.52 55.6113C182.302 55.6113 183.672 56.945 183.672 59.0183C183.672 61.0794 182.302 62.4737 180.52 62.4737C179.307 62.4737 178.446 61.819 178.034 61.1401V65.517H176.931V55.7204H178.034V56.945ZM182.544 59.0183C182.544 57.4542 181.514 56.5691 180.289 56.5691C179.089 56.5691 178.034 57.4906 178.034 59.0304C178.034 60.5945 179.089 61.5038 180.289 61.5038C181.514 61.5038 182.544 60.5823 182.544 59.0183ZM184.712 59.0183C184.712 56.945 186.082 55.6113 187.864 55.6113C189.101 55.6113 189.95 56.2418 190.338 56.9329V55.7204H191.453V62.3646H190.338V61.1279C189.938 61.8433 189.077 62.4737 187.852 62.4737C186.082 62.4737 184.712 61.0794 184.712 59.0183ZM190.338 59.0304C190.338 57.4906 189.295 56.5691 188.083 56.5691C186.87 56.5691 185.84 57.4542 185.84 59.0183C185.84 60.5823 186.87 61.5038 188.083 61.5038C189.295 61.5038 190.338 60.5945 190.338 59.0304ZM192.53 55.7204H193.718L195.791 61.3462L197.852 55.7204H199.028L196.422 62.3646H195.136L192.53 55.7204ZM202.939 56.5449C201.86 56.5449 200.963 57.2602 200.842 58.5576H205.037C205.049 57.2602 204.079 56.5449 202.939 56.5449ZM206.043 60.3156C205.703 61.528 204.637 62.4737 202.988 62.4737C201.096 62.4737 199.702 61.1401 199.702 59.0304C199.702 56.9329 201.048 55.6113 202.988 55.6113C204.915 55.6113 206.176 56.9693 206.176 58.7879C206.176 59.0304 206.164 59.2244 206.14 59.4548H200.829C200.914 60.8006 201.86 61.5402 202.988 61.5402C203.982 61.5402 204.612 61.0309 204.855 60.3156H206.043ZM217.223 62.3646V58.6061C217.223 57.2481 216.496 56.557 215.404 56.557C214.289 56.557 213.525 57.2724 213.525 58.703V62.3646H212.434V58.6061C212.434 57.2481 211.706 56.557 210.615 56.557C209.5 56.557 208.736 57.2724 208.736 58.703V62.3646H207.633V55.7204H208.736V56.6783C209.172 55.9751 209.961 55.5992 210.834 55.5992C211.925 55.5992 212.834 56.0842 213.271 57.0784C213.659 56.1205 214.604 55.5992 215.623 55.5992C217.138 55.5992 218.314 56.5449 218.314 58.4484V62.3646H217.223ZM222.949 56.5449C221.87 56.5449 220.973 57.2602 220.852 58.5576H225.047C225.059 57.2602 224.089 56.5449 222.949 56.5449ZM226.053 60.3156C225.714 61.528 224.647 62.4737 222.998 62.4737C221.106 62.4737 219.712 61.1401 219.712 59.0304C219.712 56.9329 221.058 55.6113 222.998 55.6113C224.925 55.6113 226.186 56.9693 226.186 58.7879C226.186 59.0304 226.174 59.2244 226.15 59.4548H220.839C220.924 60.8006 221.87 61.5402 222.998 61.5402C223.992 61.5402 224.622 61.0309 224.865 60.3156H226.053ZM232.505 62.3646V58.6061C232.505 57.2481 231.765 56.557 230.65 56.557C229.522 56.557 228.746 57.2602 228.746 58.6909V62.3646H227.643V55.7204H228.746V56.6661C229.183 55.9751 229.983 55.5992 230.88 55.5992C232.42 55.5992 233.596 56.5449 233.596 58.4484V62.3646H232.505ZM235.641 60.546V56.6298H234.78V55.7204H235.641V54.0473H236.744V55.7204H238.478V56.6298H236.744V60.546C236.744 61.2007 236.986 61.431 237.665 61.431H238.478V62.3646H237.483C236.307 62.3646 235.641 61.8796 235.641 60.546ZM244.592 60.5581C244.592 61.6493 243.634 62.4737 242.167 62.4737C240.615 62.4737 239.523 61.625 239.451 60.4126H240.59C240.651 61.0552 241.221 61.5402 242.155 61.5402C243.027 61.5402 243.512 61.1037 243.512 60.5581C243.512 59.0789 239.584 59.9397 239.584 57.4664C239.584 56.4479 240.542 55.6113 242.021 55.6113C243.488 55.6113 244.458 56.3994 244.531 57.6967H243.428C243.379 57.0299 242.87 56.5449 241.985 56.5449C241.172 56.5449 240.687 56.9329 240.687 57.4664C240.687 59.0425 244.543 58.1817 244.592 60.5581Z" fill="black"/>
</svg>
