<svg width="246" height="68" viewBox="0 0 246 68" fill="none" xmlns="http://www.w3.org/2000/svg">
<rect width="35" height="35" transform="matrix(-1 0 0 1 245.5 1.24829)" fill="#BF0978"/>
<rect width="35" height="35" transform="matrix(-1 0 0 1 210.5 1.24829)" fill="#D76FA0"/>
<rect width="35" height="35" transform="matrix(-1 0 0 1 175.5 1.24829)" fill="#E9B3CA"/>
<rect width="35" height="35" transform="matrix(-1 0 0 1 140.5 1.24829)" fill="#F5F5F5"/>
<rect width="35" height="35" transform="matrix(-1 0 0 1 70.5 1.24829)" fill="#7FC8AE"/>
<rect width="35" height="35" transform="matrix(-1 0 0 1 105.5 1.24829)" fill="#BBDFD1"/>
<rect width="35" height="35" transform="matrix(-1 0 0 1 35.5 1.24829)" fill="#32B08C"/>
<path d="M1.43358 50.0939V41.7038H2.62177L5.72563 48.6389L8.82948 41.7038H10.0056V50.0939H8.90223V43.8377L6.11361 50.0939H5.33765L2.5369 43.8255V50.0939H1.43358ZM18.1814 46.7597C18.1814 48.8693 16.6658 50.203 14.7744 50.203C12.8951 50.203 11.4645 48.8693 11.4645 46.7597C11.4645 44.6621 12.9436 43.3406 14.8229 43.3406C16.7143 43.3406 18.1814 44.6621 18.1814 46.7597ZM12.592 46.7597C12.592 48.445 13.6226 49.233 14.7744 49.233C15.9262 49.233 17.0538 48.445 17.0538 46.7597C17.0538 45.0865 15.9505 44.2984 14.8108 44.2984C13.6469 44.2984 12.592 45.0865 12.592 46.7597ZM20.7354 46.4808V50.0939H19.6321V43.4497H20.7354V44.5288C21.1112 43.7892 21.8266 43.3284 22.8814 43.3284V44.4681H22.5904C21.5356 44.4681 20.7354 44.941 20.7354 46.4808ZM26.98 44.2741C25.901 44.2741 25.0037 44.9895 24.8825 46.2868H29.0776C29.0897 44.9895 28.1197 44.2741 26.98 44.2741ZM30.0839 48.0448C29.7444 49.2573 28.6775 50.203 27.0285 50.203C25.1371 50.203 23.7428 48.8693 23.7428 46.7597C23.7428 44.6621 25.0886 43.3406 27.0285 43.3406C28.9563 43.3406 30.2173 44.6985 30.2173 46.5172C30.2173 46.7597 30.2051 46.9536 30.1809 47.184H24.8704C24.9553 48.5298 25.901 49.2694 27.0285 49.2694C28.0227 49.2694 28.6532 48.7602 28.8957 48.0448H30.0839ZM34.4938 46.7475C34.4938 44.6743 35.8638 43.3406 37.6461 43.3406C38.8828 43.3406 39.7315 43.971 40.1195 44.6621V43.4497H41.2349V50.0939H40.1195V48.8572C39.7194 49.5725 38.8586 50.203 37.634 50.203C35.8638 50.203 34.4938 48.8087 34.4938 46.7475ZM40.1195 46.7597C40.1195 45.2199 39.0768 44.2984 37.8644 44.2984C36.6519 44.2984 35.6213 45.1835 35.6213 46.7475C35.6213 48.3116 36.6519 49.233 37.8644 49.233C39.0768 49.233 40.1195 48.3237 40.1195 46.7597ZM42.6872 46.7597C42.6872 44.6743 44.033 43.3406 45.9244 43.3406C47.5734 43.3406 48.6524 44.1893 48.9919 45.5836H47.8037C47.5734 44.7834 46.9065 44.2741 45.9244 44.2741C44.712 44.2741 43.8148 45.135 43.8148 46.7597C43.8148 48.4086 44.712 49.2694 45.9244 49.2694C46.9065 49.2694 47.5612 48.7966 47.8037 47.96H48.9919C48.6524 49.2815 47.5734 50.203 45.9244 50.203C44.033 50.203 42.6872 48.8693 42.6872 46.7597ZM50.0519 46.7597C50.0519 44.6743 51.3977 43.3406 53.2891 43.3406C54.938 43.3406 56.0171 44.1893 56.3566 45.5836H55.1684C54.938 44.7834 54.2712 44.2741 53.2891 44.2741C52.0766 44.2741 51.1794 45.135 51.1794 46.7597C51.1794 48.4086 52.0766 49.2694 53.2891 49.2694C54.2712 49.2694 54.9259 48.7966 55.1684 47.96H56.3566C56.0171 49.2815 54.938 50.203 53.2891 50.203C51.3977 50.203 50.0519 48.8693 50.0519 46.7597ZM60.6537 44.2741C59.5747 44.2741 58.6774 44.9895 58.5562 46.2868H62.7513C62.7634 44.9895 61.7934 44.2741 60.6537 44.2741ZM63.7576 48.0448C63.4181 49.2573 62.3511 50.203 60.7022 50.203C58.8108 50.203 57.4165 48.8693 57.4165 46.7597C57.4165 44.6621 58.7623 43.3406 60.7022 43.3406C62.63 43.3406 63.891 44.6985 63.891 46.5172C63.891 46.7597 63.8788 46.9536 63.8546 47.184H58.5441C58.6289 48.5298 59.5747 49.2694 60.7022 49.2694C61.6964 49.2694 62.3269 48.7602 62.5694 48.0448H63.7576ZM70.1243 48.2873C70.1243 49.3785 69.1665 50.203 67.6994 50.203C66.1475 50.203 65.0563 49.3543 64.9836 48.1418H66.1233C66.1839 48.7844 66.7537 49.2694 67.6873 49.2694C68.5603 49.2694 69.0453 48.8329 69.0453 48.2873C69.0453 46.8082 65.1169 47.669 65.1169 45.1956C65.1169 44.1772 66.0748 43.3406 67.5539 43.3406C69.021 43.3406 69.991 44.1287 70.0637 45.426H68.9604C68.9119 44.7591 68.4027 44.2741 67.5176 44.2741C66.7052 44.2741 66.2203 44.6621 66.2203 45.1956C66.2203 46.7718 70.0758 45.9109 70.1243 48.2873ZM76.4589 48.2873C76.4589 49.3785 75.501 50.203 74.034 50.203C72.4821 50.203 71.3909 49.3543 71.3181 48.1418H72.4578C72.5184 48.7844 73.0883 49.2694 74.0219 49.2694C74.8948 49.2694 75.3798 48.8329 75.3798 48.2873C75.3798 46.8082 71.4515 47.669 71.4515 45.1956C71.4515 44.1772 72.4093 43.3406 73.8885 43.3406C75.3555 43.3406 76.3255 44.1287 76.3982 45.426H75.2949C75.2464 44.7591 74.7372 44.2741 73.8521 44.2741C73.0398 44.2741 72.5548 44.6621 72.5548 45.1956C72.5548 46.7718 76.4104 45.9109 76.4589 48.2873ZM81.4913 48.2752V44.359H80.6304V43.4497H81.4913V41.7765H82.5946V43.4497H84.3284V44.359H82.5946V48.2752C82.5946 48.9299 82.8371 49.1603 83.516 49.1603H84.3284V50.0939H83.3342C82.1581 50.0939 81.4913 49.6089 81.4913 48.2752ZM91.9699 46.7597C91.9699 48.8693 90.4543 50.203 88.5629 50.203C86.6836 50.203 85.253 48.8693 85.253 46.7597C85.253 44.6621 86.7321 43.3406 88.6114 43.3406C90.5028 43.3406 91.9699 44.6621 91.9699 46.7597ZM86.3805 46.7597C86.3805 48.445 87.4111 49.233 88.5629 49.233C89.7147 49.233 90.8423 48.445 90.8423 46.7597C90.8423 45.0865 89.739 44.2984 88.5993 44.2984C87.4354 44.2984 86.3805 45.0865 86.3805 46.7597ZM1.02135 59.7475C1.02135 57.6743 2.39141 56.3406 4.1737 56.3406C5.38614 56.3406 6.2591 56.9468 6.64708 57.6621V56.4497H7.76253V63.2394C7.76253 65.0702 6.53796 66.3675 4.58593 66.3675C2.84001 66.3675 1.5912 65.4824 1.37296 64.0638H2.46416C2.70665 64.864 3.49473 65.4096 4.58593 65.4096C5.762 65.4096 6.64708 64.6579 6.64708 63.2394V61.8451C6.24698 62.5604 5.38614 63.203 4.1737 63.203C2.39141 63.203 1.02135 61.8087 1.02135 59.7475ZM6.64708 59.7597C6.64708 58.2199 5.60438 57.2984 4.39194 57.2984C3.1795 57.2984 2.14892 58.1835 2.14892 59.7475C2.14892 61.3116 3.1795 62.233 4.39194 62.233C5.60438 62.233 6.64708 61.3237 6.64708 59.7597ZM10.7304 59.4808V63.0939H9.62704V56.4497H10.7304V57.5288C11.1062 56.7892 11.8216 56.3284 12.8764 56.3284V57.4681H12.5854C11.5306 57.4681 10.7304 57.941 10.7304 59.4808ZM16.975 57.2741C15.8959 57.2741 14.9987 57.9895 14.8775 59.2868H19.0725C19.0847 57.9895 18.1147 57.2741 16.975 57.2741ZM20.0789 61.0448C19.7394 62.2573 18.6724 63.203 17.0235 63.203C15.1321 63.203 13.7378 61.8693 13.7378 59.7597C13.7378 57.6621 15.0836 56.3406 17.0235 56.3406C18.9513 56.3406 20.2122 57.6985 20.2122 59.5172C20.2122 59.7597 20.2001 59.9536 20.1759 60.184H14.8654C14.9502 61.5298 15.8959 62.2694 17.0235 62.2694C18.0177 62.2694 18.6482 61.7602 18.8907 61.0448H20.0789ZM24.4936 57.2741C23.4145 57.2741 22.5173 57.9895 22.3961 59.2868H26.5911C26.6032 57.9895 25.6333 57.2741 24.4936 57.2741ZM27.5974 61.0448C27.2579 62.2573 26.191 63.203 24.5421 63.203C22.6507 63.203 21.2564 61.8693 21.2564 59.7597C21.2564 57.6621 22.6022 56.3406 24.5421 56.3406C26.4699 56.3406 27.7308 57.6985 27.7308 59.5172C27.7308 59.7597 27.7187 59.9536 27.6944 60.184H22.3839C22.4688 61.5298 23.4145 62.2694 24.5421 62.2694C25.5363 62.2694 26.1667 61.7602 26.4092 61.0448H27.5974ZM34.049 63.0939V59.3353C34.049 57.9774 33.3095 57.2863 32.194 57.2863C31.0664 57.2863 30.2905 57.9895 30.2905 59.4202V63.0939H29.1871V56.4497H30.2905V57.3954C30.727 56.7043 31.5272 56.3284 32.4244 56.3284C33.9642 56.3284 35.1402 57.2741 35.1402 59.1777V63.0939H34.049ZM44.9519 61.2873C44.9519 62.3785 43.9941 63.203 42.527 63.203C40.9751 63.203 39.8839 62.3543 39.8112 61.1418H40.9509C41.0115 61.7844 41.5813 62.2694 42.5149 62.2694C43.3879 62.2694 43.8729 61.8329 43.8729 61.2873C43.8729 59.8082 39.9445 60.669 39.9445 58.1956C39.9445 57.1772 40.9024 56.3406 42.3816 56.3406C43.8486 56.3406 44.8186 57.1287 44.8913 58.426H43.788C43.7395 57.7591 43.2303 57.2741 42.3452 57.2741C41.5328 57.2741 41.0479 57.6621 41.0479 58.1956C41.0479 59.7718 44.9034 58.9109 44.9519 61.2873ZM47.6128 57.6743C48.0129 56.971 48.8858 56.3406 50.0983 56.3406C51.8806 56.3406 53.2506 57.6743 53.2506 59.7475C53.2506 61.8087 51.8806 63.203 50.0983 63.203C48.8858 63.203 48.025 62.5483 47.6128 61.8693V66.2462H46.5094V56.4497H47.6128V57.6743ZM52.1231 59.7475C52.1231 58.1835 51.0925 57.2984 49.8679 57.2984C48.6676 57.2984 47.6128 58.2199 47.6128 59.7597C47.6128 61.3237 48.6676 62.233 49.8679 62.233C51.0925 62.233 52.1231 61.3116 52.1231 59.7475ZM54.2907 59.7475C54.2907 57.6743 55.6607 56.3406 57.443 56.3406C58.6797 56.3406 59.5284 56.971 59.9164 57.6621V56.4497H61.0319V63.0939H59.9164V61.8572C59.5163 62.5725 58.6555 63.203 57.4309 63.203C55.6607 63.203 54.2907 61.8087 54.2907 59.7475ZM59.9164 59.7597C59.9164 58.2199 58.8737 57.2984 57.6613 57.2984C56.4488 57.2984 55.4183 58.1835 55.4183 59.7475C55.4183 61.3116 56.4488 62.233 57.6613 62.233C58.8737 62.233 59.9164 61.3237 59.9164 59.7597ZM62.4841 59.7597C62.4841 57.6743 63.8299 56.3406 65.7214 56.3406C67.3703 56.3406 68.4494 57.1893 68.7888 58.5836H67.6006C67.3703 57.7834 66.7034 57.2741 65.7214 57.2741C64.5089 57.2741 63.6117 58.135 63.6117 59.7597C63.6117 61.4086 64.5089 62.2694 65.7214 62.2694C66.7034 62.2694 67.3582 61.7966 67.6006 60.96H68.7888C68.4494 62.2815 67.3703 63.203 65.7214 63.203C63.8299 63.203 62.4841 61.8693 62.4841 59.7597ZM73.086 57.2741C72.0069 57.2741 71.1097 57.9895 70.9885 59.2868H75.1835C75.1957 57.9895 74.2257 57.2741 73.086 57.2741ZM76.1899 61.0448C75.8504 62.2573 74.7834 63.203 73.1345 63.203C71.2431 63.203 69.8488 61.8693 69.8488 59.7597C69.8488 57.6621 71.1946 56.3406 73.1345 56.3406C75.0623 56.3406 76.3232 57.6985 76.3232 59.5172C76.3232 59.7597 76.3111 59.9536 76.2869 60.184H70.9764C71.0612 61.5298 72.0069 62.2694 73.1345 62.2694C74.1287 62.2694 74.7592 61.7602 75.0017 61.0448H76.1899Z" fill="black"/>
<path d="M158.981 41.6431H160.084V49.1967H163.043V50.0939H158.981V41.6431ZM167.039 44.2741C165.96 44.2741 165.063 44.9895 164.942 46.2868H169.137C169.149 44.9895 168.179 44.2741 167.039 44.2741ZM170.143 48.0448C169.804 49.2573 168.737 50.203 167.088 50.203C165.197 50.203 163.802 48.8693 163.802 46.7597C163.802 44.6621 165.148 43.3406 167.088 43.3406C169.016 43.3406 170.277 44.6985 170.277 46.5172C170.277 46.7597 170.265 46.9536 170.24 47.184H164.93C165.015 48.5298 165.96 49.2694 167.088 49.2694C168.082 49.2694 168.713 48.7602 168.955 48.0448H170.143ZM176.51 48.2873C176.51 49.3785 175.552 50.203 174.085 50.203C172.533 50.203 171.442 49.3543 171.369 48.1418H172.509C172.57 48.7844 173.139 49.2694 174.073 49.2694C174.946 49.2694 175.431 48.8329 175.431 48.2873C175.431 46.8082 171.503 47.669 171.503 45.1956C171.503 44.1772 172.46 43.3406 173.94 43.3406C175.407 43.3406 176.377 44.1287 176.449 45.426H175.346C175.298 44.7591 174.788 44.2741 173.903 44.2741C173.091 44.2741 172.606 44.6621 172.606 45.1956C172.606 46.7718 176.462 45.9109 176.51 48.2873ZM182.845 48.2873C182.845 49.3785 181.887 50.203 180.42 50.203C178.868 50.203 177.777 49.3543 177.704 48.1418H178.843C178.904 48.7844 179.474 49.2694 180.408 49.2694C181.281 49.2694 181.765 48.8329 181.765 48.2873C181.765 46.8082 177.837 47.669 177.837 45.1956C177.837 44.1772 178.795 43.3406 180.274 43.3406C181.741 43.3406 182.711 44.1287 182.784 45.426H181.681C181.632 44.7591 181.123 44.2741 180.238 44.2741C179.425 44.2741 178.94 44.6621 178.94 45.1956C178.94 46.7718 182.796 45.9109 182.845 48.2873ZM187.222 46.7475C187.222 44.6743 188.592 43.3406 190.375 43.3406C191.611 43.3406 192.46 43.971 192.848 44.6621V43.4497H193.963V50.0939H192.848V48.8572C192.448 49.5725 191.587 50.203 190.362 50.203C188.592 50.203 187.222 48.8087 187.222 46.7475ZM192.848 46.7597C192.848 45.2199 191.805 44.2984 190.593 44.2984C189.38 44.2984 188.35 45.1835 188.35 46.7475C188.35 48.3116 189.38 49.233 190.593 49.233C191.805 49.233 192.848 48.3237 192.848 46.7597ZM195.416 46.7597C195.416 44.6743 196.762 43.3406 198.653 43.3406C200.302 43.3406 201.381 44.1893 201.72 45.5836H200.532C200.302 44.7834 199.635 44.2741 198.653 44.2741C197.44 44.2741 196.543 45.135 196.543 46.7597C196.543 48.4086 197.44 49.2694 198.653 49.2694C199.635 49.2694 200.29 48.7966 200.532 47.96H201.72C201.381 49.2815 200.302 50.203 198.653 50.203C196.762 50.203 195.416 48.8693 195.416 46.7597ZM202.78 46.7597C202.78 44.6743 204.126 43.3406 206.018 43.3406C207.666 43.3406 208.746 44.1893 209.085 45.5836H207.897C207.666 44.7834 207 44.2741 206.018 44.2741C204.805 44.2741 203.908 45.135 203.908 46.7597C203.908 48.4086 204.805 49.2694 206.018 49.2694C207 49.2694 207.654 48.7966 207.897 47.96H209.085C208.746 49.2815 207.666 50.203 206.018 50.203C204.126 50.203 202.78 48.8693 202.78 46.7597ZM213.382 44.2741C212.303 44.2741 211.406 44.9895 211.285 46.2868H215.48C215.492 44.9895 214.522 44.2741 213.382 44.2741ZM216.486 48.0448C216.147 49.2573 215.08 50.203 213.431 50.203C211.539 50.203 210.145 48.8693 210.145 46.7597C210.145 44.6621 211.491 43.3406 213.431 43.3406C215.358 43.3406 216.619 44.6985 216.619 46.5172C216.619 46.7597 216.607 46.9536 216.583 47.184H211.273C211.357 48.5298 212.303 49.2694 213.431 49.2694C214.425 49.2694 215.055 48.7602 215.298 48.0448H216.486ZM222.853 48.2873C222.853 49.3785 221.895 50.203 220.428 50.203C218.876 50.203 217.785 49.3543 217.712 48.1418H218.852C218.912 48.7844 219.482 49.2694 220.416 49.2694C221.289 49.2694 221.774 48.8329 221.774 48.2873C221.774 46.8082 217.845 47.669 217.845 45.1956C217.845 44.1772 218.803 43.3406 220.282 43.3406C221.749 43.3406 222.719 44.1287 222.792 45.426H221.689C221.64 44.7591 221.131 44.2741 220.246 44.2741C219.434 44.2741 218.949 44.6621 218.949 45.1956C218.949 46.7718 222.804 45.9109 222.853 48.2873ZM229.187 48.2873C229.187 49.3785 228.23 50.203 226.762 50.203C225.211 50.203 224.119 49.3543 224.047 48.1418H225.186C225.247 48.7844 225.817 49.2694 226.75 49.2694C227.623 49.2694 228.108 48.8329 228.108 48.2873C228.108 46.8082 224.18 47.669 224.18 45.1956C224.18 44.1772 225.138 43.3406 226.617 43.3406C228.084 43.3406 229.054 44.1287 229.127 45.426H228.023C227.975 44.7591 227.466 44.2741 226.581 44.2741C225.768 44.2741 225.283 44.6621 225.283 45.1956C225.283 46.7718 229.139 45.9109 229.187 48.2873ZM234.22 48.2752V44.359H233.359V43.4497H234.22V41.7765H235.323V43.4497H237.057V44.359H235.323V48.2752C235.323 48.9299 235.566 49.1603 236.245 49.1603H237.057V50.0939H236.063C234.887 50.0939 234.22 49.6089 234.22 48.2752ZM244.698 46.7597C244.698 48.8693 243.183 50.203 241.291 50.203C239.412 50.203 237.981 48.8693 237.981 46.7597C237.981 44.6621 239.461 43.3406 241.34 43.3406C243.231 43.3406 244.698 44.6621 244.698 46.7597ZM239.109 46.7597C239.109 48.445 240.14 49.233 241.291 49.233C242.443 49.233 243.571 48.445 243.571 46.7597C243.571 45.0865 242.467 44.2984 241.328 44.2984C240.164 44.2984 239.109 45.0865 239.109 46.7597ZM169.391 59.7475C169.391 57.6743 170.761 56.3406 172.543 56.3406C173.756 56.3406 174.629 56.9468 175.017 57.6621V56.4497H176.132V63.2394C176.132 65.0702 174.907 66.3675 172.955 66.3675C171.209 66.3675 169.961 65.4824 169.742 64.0638H170.834C171.076 64.864 171.864 65.4096 172.955 65.4096C174.131 65.4096 175.017 64.6579 175.017 63.2394V61.8451C174.616 62.5604 173.756 63.203 172.543 63.203C170.761 63.203 169.391 61.8087 169.391 59.7475ZM175.017 59.7597C175.017 58.2199 173.974 57.2984 172.761 57.2984C171.549 57.2984 170.518 58.1835 170.518 59.7475C170.518 61.3116 171.549 62.233 172.761 62.233C173.974 62.233 175.017 61.3237 175.017 59.7597ZM179.1 59.4808V63.0939H177.996V56.4497H179.1V57.5288C179.476 56.7892 180.191 56.3284 181.246 56.3284V57.4681H180.955C179.9 57.4681 179.1 57.941 179.1 59.4808ZM185.344 57.2741C184.265 57.2741 183.368 57.9895 183.247 59.2868H187.442C187.454 57.9895 186.484 57.2741 185.344 57.2741ZM188.448 61.0448C188.109 62.2573 187.042 63.203 185.393 63.203C183.502 63.203 182.107 61.8693 182.107 59.7597C182.107 57.6621 183.453 56.3406 185.393 56.3406C187.321 56.3406 188.582 57.6985 188.582 59.5172C188.582 59.7597 188.57 59.9536 188.545 60.184H183.235C183.32 61.5298 184.265 62.2694 185.393 62.2694C186.387 62.2694 187.018 61.7602 187.26 61.0448H188.448ZM192.863 57.2741C191.784 57.2741 190.887 57.9895 190.766 59.2868H194.961C194.973 57.9895 194.003 57.2741 192.863 57.2741ZM195.967 61.0448C195.627 62.2573 194.56 63.203 192.912 63.203C191.02 63.203 189.626 61.8693 189.626 59.7597C189.626 57.6621 190.972 56.3406 192.912 56.3406C194.839 56.3406 196.1 57.6985 196.1 59.5172C196.1 59.7597 196.088 59.9536 196.064 60.184H190.753C190.838 61.5298 191.784 62.2694 192.912 62.2694C193.906 62.2694 194.536 61.7602 194.779 61.0448H195.967ZM202.418 63.0939V59.3353C202.418 57.9774 201.679 57.2863 200.563 57.2863C199.436 57.2863 198.66 57.9895 198.66 59.4202V63.0939H197.557V56.4497H198.66V57.3954C199.096 56.7043 199.897 56.3284 200.794 56.3284C202.334 56.3284 203.51 57.2741 203.51 59.1777V63.0939H202.418ZM213.321 61.2873C213.321 62.3785 212.364 63.203 210.896 63.203C209.345 63.203 208.253 62.3543 208.181 61.1418H209.32C209.381 61.7844 209.951 62.2694 210.884 62.2694C211.757 62.2694 212.242 61.8329 212.242 61.2873C212.242 59.8082 208.314 60.669 208.314 58.1956C208.314 57.1772 209.272 56.3406 210.751 56.3406C212.218 56.3406 213.188 57.1287 213.261 58.426H212.157C212.109 57.7591 211.6 57.2741 210.715 57.2741C209.902 57.2741 209.417 57.6621 209.417 58.1956C209.417 59.7718 213.273 58.9109 213.321 61.2873ZM215.982 57.6743C216.382 56.971 217.255 56.3406 218.468 56.3406C220.25 56.3406 221.62 57.6743 221.62 59.7475C221.62 61.8087 220.25 63.203 218.468 63.203C217.255 63.203 216.394 62.5483 215.982 61.8693V66.2462H214.879V56.4497H215.982V57.6743ZM220.493 59.7475C220.493 58.1835 219.462 57.2984 218.237 57.2984C217.037 57.2984 215.982 58.2199 215.982 59.7597C215.982 61.3237 217.037 62.233 218.237 62.233C219.462 62.233 220.493 61.3116 220.493 59.7475ZM222.66 59.7475C222.66 57.6743 224.03 56.3406 225.812 56.3406C227.049 56.3406 227.898 56.971 228.286 57.6621V56.4497H229.401V63.0939H228.286V61.8572C227.886 62.5725 227.025 63.203 225.8 63.203C224.03 63.203 222.66 61.8087 222.66 59.7475ZM228.286 59.7597C228.286 58.2199 227.243 57.2984 226.031 57.2984C224.818 57.2984 223.788 58.1835 223.788 59.7475C223.788 61.3116 224.818 62.233 226.031 62.233C227.243 62.233 228.286 61.3237 228.286 59.7597ZM230.854 59.7597C230.854 57.6743 232.199 56.3406 234.091 56.3406C235.74 56.3406 236.819 57.1893 237.158 58.5836H235.97C235.74 57.7834 235.073 57.2741 234.091 57.2741C232.878 57.2741 231.981 58.135 231.981 59.7597C231.981 61.4086 232.878 62.2694 234.091 62.2694C235.073 62.2694 235.728 61.7966 235.97 60.96H237.158C236.819 62.2815 235.74 63.203 234.091 63.203C232.199 63.203 230.854 61.8693 230.854 59.7597ZM241.455 57.2741C240.376 57.2741 239.479 57.9895 239.358 59.2868H243.553C243.565 57.9895 242.595 57.2741 241.455 57.2741ZM244.559 61.0448C244.22 62.2573 243.153 63.203 241.504 63.203C239.613 63.203 238.218 61.8693 238.218 59.7597C238.218 57.6621 239.564 56.3406 241.504 56.3406C243.432 56.3406 244.693 57.6985 244.693 59.5172C244.693 59.7597 244.681 59.9536 244.656 60.184H239.346C239.431 61.5298 240.376 62.2694 241.504 62.2694C242.498 62.2694 243.129 61.7602 243.371 61.0448H244.559Z" fill="black"/>
</svg>
