<svg width="246" height="54" viewBox="0 0 246 54" fill="none" xmlns="http://www.w3.org/2000/svg">
<rect width="35" height="35" transform="matrix(-1 0 0 1 245.5 0.883667)" fill="#BF0978"/>
<rect width="35" height="35" transform="matrix(-1 0 0 1 210.5 0.883667)" fill="#D76FA0"/>
<rect width="35" height="35" transform="matrix(-1 0 0 1 175.5 0.883667)" fill="#E9B3CA"/>
<rect width="35" height="35" transform="matrix(-1 0 0 1 140.5 0.883667)" fill="#F5F5F5"/>
<rect width="35" height="35" transform="matrix(-1 0 0 1 70.5 0.883667)" fill="#7FC8AE"/>
<rect width="35" height="35" transform="matrix(-1 0 0 1 105.5 0.883667)" fill="#BBDFD1"/>
<rect width="35" height="35" transform="matrix(-1 0 0 1 35.5 0.883667)" fill="#32B08C"/>
<path d="M1.43358 49.7292V41.2785H6.2106V42.1757H2.5369V45.025H5.51951V45.9222H2.5369V49.7292H1.43358ZM10.3681 43.9095C9.28907 43.9095 8.39186 44.6249 8.27062 45.9222H12.4657C12.4778 44.6249 11.5078 43.9095 10.3681 43.9095ZM13.472 47.6802C13.1325 48.8927 12.0656 49.8384 10.4166 49.8384C8.52523 49.8384 7.13092 48.5047 7.13092 46.395C7.13092 44.2975 8.47674 42.9759 10.4166 42.9759C12.3444 42.9759 13.6054 44.3339 13.6054 46.1525C13.6054 46.395 13.5932 46.589 13.569 46.8194H8.2585C8.34337 48.1652 9.28907 48.9048 10.4166 48.9048C11.4108 48.9048 12.0413 48.3956 12.2838 47.6802H13.472ZM16.359 49.7292L14.2736 43.0851H15.4012L16.9289 48.6623L18.5778 43.0851H19.7054L21.3179 48.6744L22.8214 43.0851H23.9126L21.8393 49.7292H20.6996L19.0992 44.4551L17.4987 49.7292H16.359ZM27.8325 43.9095C26.7535 43.9095 25.8562 44.6249 25.735 45.9222H29.9301C29.9422 44.6249 28.9722 43.9095 27.8325 43.9095ZM30.9364 47.6802C30.5969 48.8927 29.5299 49.8384 27.881 49.8384C25.9896 49.8384 24.5953 48.5047 24.5953 46.395C24.5953 44.2975 25.9411 42.9759 27.881 42.9759C29.8088 42.9759 31.0697 44.3339 31.0697 46.1525C31.0697 46.395 31.0576 46.589 31.0334 46.8194H25.7229C25.8077 48.1652 26.7535 48.9048 27.881 48.9048C28.8752 48.9048 29.5057 48.3956 29.7482 47.6802H30.9364ZM33.6294 46.1162V49.7292H32.5261V43.0851H33.6294V44.1641C34.0053 43.4245 34.7206 42.9638 35.7754 42.9638V44.1035H35.4845C34.4296 44.1035 33.6294 44.5764 33.6294 46.1162ZM39.8692 46.395C39.8692 44.3096 41.2151 42.9759 43.1065 42.9759C44.7554 42.9759 45.8345 43.8247 46.1739 45.219H44.9858C44.7554 44.4187 44.0885 43.9095 43.1065 43.9095C41.894 43.9095 40.9968 44.7704 40.9968 46.395C40.9968 48.044 41.894 48.9048 43.1065 48.9048C44.0885 48.9048 44.7433 48.4319 44.9858 47.5953H46.1739C45.8345 48.9169 44.7554 49.8384 43.1065 49.8384C41.2151 49.8384 39.8692 48.5047 39.8692 46.395ZM50.168 48.4683L52.2291 43.0851H53.3688L49.3678 52.8574H48.2281L49.5375 49.6565L46.858 43.0851H48.0826L50.168 48.4683ZM54.0657 46.395C54.0657 44.3096 55.4115 42.9759 57.3029 42.9759C58.9519 42.9759 60.0309 43.8247 60.3704 45.219H59.1822C58.9519 44.4187 58.285 43.9095 57.3029 43.9095C56.0905 43.9095 55.1933 44.7704 55.1933 46.395C55.1933 48.044 56.0905 48.9048 57.3029 48.9048C58.285 48.9048 58.9397 48.4319 59.1822 47.5953H60.3704C60.0309 48.9169 58.9519 49.8384 57.3029 49.8384C55.4115 49.8384 54.0657 48.5047 54.0657 46.395ZM61.8426 49.7292V40.7572H62.9459V49.7292H61.8426ZM64.8263 49.7292V43.0851H65.9297V49.7292H64.8263ZM65.3962 42.006C64.9718 42.006 64.6445 41.6786 64.6445 41.2543C64.6445 40.8299 64.9718 40.5026 65.3962 40.5026C65.7963 40.5026 66.1236 40.8299 66.1236 41.2543C66.1236 41.6786 65.7963 42.006 65.3962 42.006ZM72.5871 47.9227C72.5871 49.0139 71.6293 49.8384 70.1622 49.8384C68.6103 49.8384 67.5191 48.9897 67.4463 47.7772H68.586C68.6467 48.4198 69.2165 48.9048 70.1501 48.9048C71.023 48.9048 71.508 48.4683 71.508 47.9227C71.508 46.4435 67.5797 47.3044 67.5797 44.831C67.5797 43.8125 68.5375 42.9759 70.0167 42.9759C71.4838 42.9759 72.4537 43.764 72.5265 45.0613H71.4232C71.3747 44.3945 70.8654 43.9095 69.9803 43.9095C69.168 43.9095 68.683 44.2975 68.683 44.831C68.683 46.4072 72.5386 45.5463 72.5871 47.9227ZM74.3871 47.9106V43.9944H73.5263V43.0851H74.3871V41.4119H75.4904V43.0851H77.2242V43.9944H75.4904V47.9106C75.4904 48.5653 75.7329 48.7957 76.4119 48.7957H77.2242V49.7292H76.23C75.0539 49.7292 74.3871 49.2443 74.3871 47.9106ZM83.3381 47.9227C83.3381 49.0139 82.3802 49.8384 80.9132 49.8384C79.3612 49.8384 78.27 48.9897 78.1973 47.7772H79.337C79.3976 48.4198 79.9675 48.9048 80.901 48.9048C81.774 48.9048 82.259 48.4683 82.259 47.9227C82.259 46.4435 78.3307 47.3044 78.3307 44.831C78.3307 43.8125 79.2885 42.9759 80.7677 42.9759C82.2347 42.9759 83.2047 43.764 83.2774 45.0613H82.1741C82.1256 44.3945 81.6164 43.9095 80.7313 43.9095C79.919 43.9095 79.434 44.2975 79.434 44.831C79.434 46.4072 83.2896 45.5463 83.3381 47.9227Z" fill="black"/>
<path d="M168.063 49.7292V41.3391H169.251L172.355 48.2743L175.458 41.3391H176.634V49.7292H175.531V43.473L172.743 49.7292H171.967L169.166 43.4609V49.7292H168.063ZM184.81 46.395C184.81 48.5047 183.295 49.8384 181.403 49.8384C179.524 49.8384 178.093 48.5047 178.093 46.395C178.093 44.2975 179.573 42.9759 181.452 42.9759C183.343 42.9759 184.81 44.2975 184.81 46.395ZM179.221 46.395C179.221 48.0803 180.252 48.8684 181.403 48.8684C182.555 48.8684 183.683 48.0803 183.683 46.395C183.683 44.7219 182.579 43.9338 181.44 43.9338C180.276 43.9338 179.221 44.7219 179.221 46.395ZM187.364 46.1162V49.7292H186.261V43.0851H187.364V44.1641C187.74 43.4245 188.456 42.9638 189.51 42.9638V44.1035H189.219C188.165 44.1035 187.364 44.5764 187.364 46.1162ZM193.609 43.9095C192.53 43.9095 191.633 44.6249 191.511 45.9222H195.706C195.719 44.6249 194.749 43.9095 193.609 43.9095ZM196.713 47.6802C196.373 48.8927 195.306 49.8384 193.657 49.8384C191.766 49.8384 190.372 48.5047 190.372 46.395C190.372 44.2975 191.718 42.9759 193.657 42.9759C195.585 42.9759 196.846 44.3339 196.846 46.1525C196.846 46.395 196.834 46.589 196.81 46.8194H191.499C191.584 48.1652 192.53 48.9048 193.657 48.9048C194.652 48.9048 195.282 48.3956 195.525 47.6802H196.713ZM201.123 46.395C201.123 44.3096 202.469 42.9759 204.36 42.9759C206.009 42.9759 207.088 43.8247 207.427 45.219H206.239C206.009 44.4187 205.342 43.9095 204.36 43.9095C203.147 43.9095 202.25 44.7704 202.25 46.395C202.25 48.044 203.147 48.9048 204.36 48.9048C205.342 48.9048 205.997 48.4319 206.239 47.5953H207.427C207.088 48.9169 206.009 49.8384 204.36 49.8384C202.469 49.8384 201.123 48.5047 201.123 46.395ZM211.421 48.4683L213.483 43.0851H214.622L210.621 52.8574H209.482L210.791 49.6565L208.111 43.0851H209.336L211.421 48.4683ZM215.319 46.395C215.319 44.3096 216.665 42.9759 218.556 42.9759C220.205 42.9759 221.284 43.8247 221.624 45.219H220.436C220.205 44.4187 219.538 43.9095 218.556 43.9095C217.344 43.9095 216.447 44.7704 216.447 46.395C216.447 48.044 217.344 48.9048 218.556 48.9048C219.538 48.9048 220.193 48.4319 220.436 47.5953H221.624C221.284 48.9169 220.205 49.8384 218.556 49.8384C216.665 49.8384 215.319 48.5047 215.319 46.395ZM223.096 49.7292V40.7572H224.199V49.7292H223.096ZM226.08 49.7292V43.0851H227.183V49.7292H226.08ZM226.65 42.006C226.225 42.006 225.898 41.6786 225.898 41.2543C225.898 40.8299 226.225 40.5026 226.65 40.5026C227.05 40.5026 227.377 40.8299 227.377 41.2543C227.377 41.6786 227.05 42.006 226.65 42.006ZM233.841 47.9227C233.841 49.0139 232.883 49.8384 231.416 49.8384C229.864 49.8384 228.773 48.9897 228.7 47.7772H229.84C229.9 48.4198 230.47 48.9048 231.404 48.9048C232.277 48.9048 232.761 48.4683 232.761 47.9227C232.761 46.4435 228.833 47.3044 228.833 44.831C228.833 43.8125 229.791 42.9759 231.27 42.9759C232.737 42.9759 233.707 43.764 233.78 45.0613H232.677C232.628 44.3945 232.119 43.9095 231.234 43.9095C230.421 43.9095 229.936 44.2975 229.936 44.831C229.936 46.4072 233.792 45.5463 233.841 47.9227ZM235.641 47.9106V43.9944H234.78V43.0851H235.641V41.4119H236.744V43.0851H238.478V43.9944H236.744V47.9106C236.744 48.5653 236.986 48.7957 237.665 48.7957H238.478V49.7292H237.483C236.307 49.7292 235.641 49.2443 235.641 47.9106ZM244.592 47.9227C244.592 49.0139 243.634 49.8384 242.167 49.8384C240.615 49.8384 239.524 48.9897 239.451 47.7772H240.59C240.651 48.4198 241.221 48.9048 242.155 48.9048C243.027 48.9048 243.512 48.4683 243.512 47.9227C243.512 46.4435 239.584 47.3044 239.584 44.831C239.584 43.8125 240.542 42.9759 242.021 42.9759C243.488 42.9759 244.458 43.764 244.531 45.0613H243.428C243.379 44.3945 242.87 43.9095 241.985 43.9095C241.172 43.9095 240.687 44.2975 240.687 44.831C240.687 46.4072 244.543 45.5463 244.592 47.9227Z" fill="black"/>
</svg>
