<svg width="246" height="54" viewBox="0 0 246 54" fill="none" xmlns="http://www.w3.org/2000/svg">
<rect width="35" height="35" transform="matrix(-1 0 0 1 245.5 0.883667)" fill="#BF0978"/>
<rect width="35" height="35" transform="matrix(-1 0 0 1 210.5 0.883667)" fill="#D76FA0"/>
<rect width="35" height="35" transform="matrix(-1 0 0 1 175.5 0.883667)" fill="#E9B3CA"/>
<rect width="35" height="35" transform="matrix(-1 0 0 1 140.5 0.883667)" fill="#F5F5F5"/>
<rect width="35" height="35" transform="matrix(-1 0 0 1 70.5 0.883667)" fill="#7FC8AE"/>
<rect width="35" height="35" transform="matrix(-1 0 0 1 105.5 0.883667)" fill="#BBDFD1"/>
<rect width="35" height="35" transform="matrix(-1 0 0 1 35.5 0.883667)" fill="#32B08C"/>
<path d="M1.43358 41.2785H2.5369V48.832H5.49526V49.7292H1.43358V41.2785ZM12.9717 46.395C12.9717 48.5047 11.4561 49.8384 9.56471 49.8384C7.68543 49.8384 6.25474 48.5047 6.25474 46.395C6.25474 44.2975 7.73392 42.9759 9.61321 42.9759C11.5046 42.9759 12.9717 44.2975 12.9717 46.395ZM7.38232 46.395C7.38232 48.0803 8.41289 48.8684 9.56471 48.8684C10.7165 48.8684 11.8441 48.0803 11.8441 46.395C11.8441 44.7219 10.7408 43.9338 9.60109 43.9338C8.43714 43.9338 7.38232 44.7219 7.38232 46.395ZM15.7197 49.7292L13.6343 43.0851H14.7618L16.2895 48.6623L17.9384 43.0851H19.066L20.6785 48.6744L22.182 43.0851H23.2732L21.1999 49.7292H20.0602L18.4598 44.4551L16.8594 49.7292H15.7197ZM27.1932 43.9095C26.1141 43.9095 25.2169 44.6249 25.0956 45.9222H29.2907C29.3028 44.6249 28.3328 43.9095 27.1932 43.9095ZM30.297 47.6802C29.9575 48.8927 28.8906 49.8384 27.2417 49.8384C25.3502 49.8384 23.9559 48.5047 23.9559 46.395C23.9559 44.2975 25.3017 42.9759 27.2417 42.9759C29.1694 42.9759 30.4304 44.3339 30.4304 46.1525C30.4304 46.395 30.4183 46.589 30.394 46.8194H25.0835C25.1684 48.1652 26.1141 48.9048 27.2417 48.9048C28.2359 48.9048 28.8663 48.3956 29.1088 47.6802H30.297ZM32.9901 46.1162V49.7292H31.8867V43.0851H32.9901V44.1641C33.3659 43.4245 34.0812 42.9638 35.1361 42.9638V44.1035H34.8451C33.7903 44.1035 32.9901 44.5764 32.9901 46.1162ZM39.8482 49.7292V43.9944H38.9874V43.0851H39.8482V42.6122C39.8482 41.133 40.5757 40.4662 42.2731 40.4662V41.3876C41.2789 41.3876 40.9515 41.7514 40.9515 42.6122V43.0851H42.3458V43.9944H40.9515V49.7292H39.8482ZM43.6323 49.7292V40.7572H44.7356V49.7292H43.6323ZM52.9207 46.395C52.9207 48.5047 51.4052 49.8384 49.5137 49.8384C47.6345 49.8384 46.2038 48.5047 46.2038 46.395C46.2038 44.2975 47.683 42.9759 49.5622 42.9759C51.4537 42.9759 52.9207 44.2975 52.9207 46.395ZM47.3314 46.395C47.3314 48.0803 48.3619 48.8684 49.5137 48.8684C50.6656 48.8684 51.7931 48.0803 51.7931 46.395C51.7931 44.7219 50.6898 43.9338 49.5501 43.9338C48.3862 43.9338 47.3314 44.7219 47.3314 46.395ZM60.6761 46.395C60.6761 48.5047 59.1605 49.8384 57.2691 49.8384C55.3898 49.8384 53.9592 48.5047 53.9592 46.395C53.9592 44.2975 55.4383 42.9759 57.3176 42.9759C59.209 42.9759 60.6761 44.2975 60.6761 46.395ZM55.0867 46.395C55.0867 48.0803 56.1173 48.8684 57.2691 48.8684C58.4209 48.8684 59.5485 48.0803 59.5485 46.395C59.5485 44.7219 58.4452 43.9338 57.3055 43.9338C56.1415 43.9338 55.0867 44.7219 55.0867 46.395ZM61.7145 46.3829C61.7145 44.3096 63.0846 42.9759 64.879 42.9759C65.9217 42.9759 66.8795 43.5094 67.3403 44.2733V40.7572H68.4557V49.7292H67.3403V48.4804C66.9402 49.22 66.0793 49.8384 64.8669 49.8384C63.0846 49.8384 61.7145 48.4441 61.7145 46.3829ZM67.3403 46.395C67.3403 44.8552 66.2976 43.9338 65.0851 43.9338C63.8727 43.9338 62.8421 44.8189 62.8421 46.3829C62.8421 47.947 63.8727 48.8684 65.0851 48.8684C66.2976 48.8684 67.3403 47.9591 67.3403 46.395ZM74.6559 46.1162V49.7292H73.5526V43.0851H74.6559V44.1641C75.0318 43.4245 75.7471 42.9638 76.8019 42.9638V44.1035H76.511C75.4561 44.1035 74.6559 44.5764 74.6559 46.1162ZM78.0756 49.7292V43.0851H79.1789V49.7292H78.0756ZM78.6454 42.006C78.2211 42.006 77.8937 41.6786 77.8937 41.2543C77.8937 40.8299 78.2211 40.5026 78.6454 40.5026C79.0455 40.5026 79.3729 40.8299 79.3729 41.2543C79.3729 41.6786 79.0455 42.006 78.6454 42.006ZM85.8364 47.9227C85.8364 49.0139 84.8785 49.8384 83.4115 49.8384C81.8595 49.8384 80.7683 48.9897 80.6956 47.7772H81.8353C81.8959 48.4198 82.4658 48.9048 83.3993 48.9048C84.2723 48.9048 84.7573 48.4683 84.7573 47.9227C84.7573 46.4435 80.829 47.3044 80.829 44.831C80.829 43.8125 81.7868 42.9759 83.266 42.9759C84.733 42.9759 85.703 43.764 85.7757 45.0613H84.6724C84.6239 44.3945 84.1147 43.9095 83.2296 43.9095C82.4173 43.9095 81.9323 44.2975 81.9323 44.831C81.9323 46.4072 85.7879 45.5463 85.8364 47.9227ZM87.3939 49.7292V40.7572H88.4972V46.0313L91.0554 43.0851H92.5952L89.4671 46.395L92.6074 49.7292H91.1039L88.4972 46.7951V49.7292H87.3939Z" fill="black"/>
<path d="M146.627 41.1815C148.409 41.1815 149.888 42.103 150.519 43.7277H149.197C148.736 42.7456 147.815 42.1757 146.627 42.1757C144.844 42.1757 143.511 43.4609 143.511 45.4978C143.511 47.5226 144.844 48.8078 146.627 48.8078C148.288 48.8078 149.427 47.7408 149.597 46.0677H146.227V45.1705H150.773V46.0192C150.579 48.1167 148.918 49.802 146.627 49.802C144.25 49.802 142.383 48.0318 142.383 45.4978C142.383 42.9638 144.25 41.1815 146.627 41.1815ZM153.335 46.1162V49.7292H152.232V43.0851H153.335V44.1641C153.711 43.4245 154.427 42.9638 155.481 42.9638V44.1035H155.19C154.136 44.1035 153.335 44.5764 153.335 46.1162ZM159.58 43.9095C158.501 43.9095 157.604 44.6249 157.483 45.9222H161.678C161.69 44.6249 160.72 43.9095 159.58 43.9095ZM162.684 47.6802C162.344 48.8927 161.277 49.8384 159.629 49.8384C157.737 49.8384 156.343 48.5047 156.343 46.395C156.343 44.2975 157.689 42.9759 159.629 42.9759C161.556 42.9759 162.817 44.3339 162.817 46.1525C162.817 46.395 162.805 46.589 162.781 46.8194H157.47C157.555 48.1652 158.501 48.9048 159.629 48.9048C160.623 48.9048 161.253 48.3956 161.496 47.6802H162.684ZM163.861 46.3829C163.861 44.3096 165.231 42.9759 167.014 42.9759C168.25 42.9759 169.099 43.6064 169.487 44.2975V43.0851H170.603V49.7292H169.487V48.4926C169.087 49.2079 168.226 49.8384 167.002 49.8384C165.231 49.8384 163.861 48.4441 163.861 46.3829ZM169.487 46.395C169.487 44.8552 168.444 43.9338 167.232 43.9338C166.02 43.9338 164.989 44.8189 164.989 46.3829C164.989 47.947 166.02 48.8684 167.232 48.8684C168.444 48.8684 169.487 47.9591 169.487 46.395ZM172.71 47.9106V43.9944H171.849V43.0851H172.71V41.4119H173.813V43.0851H175.547V43.9944H173.813V47.9106C173.813 48.5653 174.055 48.7957 174.734 48.7957H175.547V49.7292H174.552C173.376 49.7292 172.71 49.2443 172.71 47.9106ZM179.709 43.9095C178.629 43.9095 177.732 44.6249 177.611 45.9222H181.806C181.818 44.6249 180.848 43.9095 179.709 43.9095ZM182.812 47.6802C182.473 48.8927 181.406 49.8384 179.757 49.8384C177.866 49.8384 176.471 48.5047 176.471 46.395C176.471 44.2975 177.817 42.9759 179.757 42.9759C181.685 42.9759 182.946 44.3339 182.946 46.1525C182.946 46.395 182.934 46.589 182.909 46.8194H177.599C177.684 48.1652 178.629 48.9048 179.757 48.9048C180.751 48.9048 181.382 48.3956 181.624 47.6802H182.812ZM185.505 46.1162V49.7292H184.402V43.0851H185.505V44.1641C185.881 43.4245 186.597 42.9638 187.651 42.9638V44.1035H187.36C186.306 44.1035 185.505 44.5764 185.505 46.1162ZM192.364 49.7292V43.9944H191.503V43.0851H192.364V42.6122C192.364 41.133 193.091 40.4662 194.788 40.4662V41.3876C193.794 41.3876 193.467 41.7514 193.467 42.6122V43.0851H194.861V43.9944H193.467V49.7292H192.364ZM196.148 49.7292V40.7572H197.251V49.7292H196.148ZM205.436 46.395C205.436 48.5047 203.921 49.8384 202.029 49.8384C200.15 49.8384 198.719 48.5047 198.719 46.395C198.719 44.2975 200.198 42.9759 202.078 42.9759C203.969 42.9759 205.436 44.2975 205.436 46.395ZM199.847 46.395C199.847 48.0803 200.877 48.8684 202.029 48.8684C203.181 48.8684 204.308 48.0803 204.308 46.395C204.308 44.7219 203.205 43.9338 202.065 43.9338C200.902 43.9338 199.847 44.7219 199.847 46.395ZM213.191 46.395C213.191 48.5047 211.676 49.8384 209.784 49.8384C207.905 49.8384 206.474 48.5047 206.474 46.395C206.474 44.2975 207.954 42.9759 209.833 42.9759C211.724 42.9759 213.191 44.2975 213.191 46.395ZM207.602 46.395C207.602 48.0803 208.633 48.8684 209.784 48.8684C210.936 48.8684 212.064 48.0803 212.064 46.395C212.064 44.7219 210.961 43.9338 209.821 43.9338C208.657 43.9338 207.602 44.7219 207.602 46.395ZM214.23 46.3829C214.23 44.3096 215.6 42.9759 217.394 42.9759C218.437 42.9759 219.395 43.5094 219.856 44.2733V40.7572H220.971V49.7292H219.856V48.4804C219.455 49.22 218.595 49.8384 217.382 49.8384C215.6 49.8384 214.23 48.4441 214.23 46.3829ZM219.856 46.395C219.856 44.8552 218.813 43.9338 217.6 43.9338C216.388 43.9338 215.357 44.8189 215.357 46.3829C215.357 47.947 216.388 48.8684 217.6 48.8684C218.813 48.8684 219.856 47.9591 219.856 46.395ZM227.171 46.1162V49.7292H226.068V43.0851H227.171V44.1641C227.547 43.4245 228.262 42.9638 229.317 42.9638V44.1035H229.026C227.971 44.1035 227.171 44.5764 227.171 46.1162ZM230.591 49.7292V43.0851H231.694V49.7292H230.591ZM231.161 42.006C230.736 42.006 230.409 41.6786 230.409 41.2543C230.409 40.8299 230.736 40.5026 231.161 40.5026C231.561 40.5026 231.888 40.8299 231.888 41.2543C231.888 41.6786 231.561 42.006 231.161 42.006ZM238.352 47.9227C238.352 49.0139 237.394 49.8384 235.927 49.8384C234.375 49.8384 233.284 48.9897 233.211 47.7772H234.351C234.411 48.4198 234.981 48.9048 235.915 48.9048C236.788 48.9048 237.273 48.4683 237.273 47.9227C237.273 46.4435 233.344 47.3044 233.344 44.831C233.344 43.8125 234.302 42.9759 235.781 42.9759C237.248 42.9759 238.218 43.764 238.291 45.0613H237.188C237.139 44.3945 236.63 43.9095 235.745 43.9095C234.933 43.9095 234.448 44.2975 234.448 44.831C234.448 46.4072 238.303 45.5463 238.352 47.9227ZM239.909 49.7292V40.7572H241.013V46.0313L243.571 43.0851H245.111L241.982 46.395L245.123 49.7292H243.619L241.013 46.7951V49.7292H239.909Z" fill="black"/>
</svg>
