<svg width="246" height="79" viewBox="0 0 246 79" fill="none" xmlns="http://www.w3.org/2000/svg">
<rect width="35" height="35" transform="matrix(-1 0 0 1 245.5 0.883667)" fill="#BF0978"/>
<rect width="35" height="35" transform="matrix(-1 0 0 1 210.5 0.883667)" fill="#D76FA0"/>
<rect width="35" height="35" transform="matrix(-1 0 0 1 175.5 0.883667)" fill="#E9B3CA"/>
<rect width="35" height="35" transform="matrix(-1 0 0 1 140.5 0.883667)" fill="#F5F5F5"/>
<rect width="35" height="35" transform="matrix(-1 0 0 1 70.5 0.883667)" fill="#7FC8AE"/>
<rect width="35" height="35" transform="matrix(-1 0 0 1 105.5 0.883667)" fill="#BBDFD1"/>
<rect width="35" height="35" transform="matrix(-1 0 0 1 35.5 0.883667)" fill="#32B08C"/>
<path d="M1.43358 49.7292V41.2785H6.2106V42.1757H2.5369V45.025H5.51951V45.9222H2.5369V49.7292H1.43358ZM10.3681 43.9095C9.28907 43.9095 8.39186 44.6249 8.27062 45.9222H12.4657C12.4778 44.6249 11.5078 43.9095 10.3681 43.9095ZM13.472 47.6802C13.1325 48.8927 12.0656 49.8384 10.4166 49.8384C8.52523 49.8384 7.13092 48.5047 7.13092 46.395C7.13092 44.2975 8.47674 42.9759 10.4166 42.9759C12.3444 42.9759 13.6054 44.3339 13.6054 46.1525C13.6054 46.395 13.5932 46.589 13.569 46.8194H8.2585C8.34337 48.1652 9.28907 48.9048 10.4166 48.9048C11.4108 48.9048 12.0413 48.3956 12.2838 47.6802H13.472ZM16.359 49.7292L14.2736 43.0851H15.4012L16.9289 48.6623L18.5778 43.0851H19.7054L21.3179 48.6744L22.8214 43.0851H23.9126L21.8393 49.7292H20.6996L19.0992 44.4551L17.4987 49.7292H16.359ZM27.8325 43.9095C26.7535 43.9095 25.8562 44.6249 25.735 45.9222H29.9301C29.9422 44.6249 28.9722 43.9095 27.8325 43.9095ZM30.9364 47.6802C30.5969 48.8927 29.5299 49.8384 27.881 49.8384C25.9896 49.8384 24.5953 48.5047 24.5953 46.395C24.5953 44.2975 25.9411 42.9759 27.881 42.9759C29.8088 42.9759 31.0697 44.3339 31.0697 46.1525C31.0697 46.395 31.0576 46.589 31.0334 46.8194H25.7229C25.8077 48.1652 26.7535 48.9048 27.881 48.9048C28.8752 48.9048 29.5057 48.3956 29.7482 47.6802H30.9364ZM33.6294 46.1162V49.7292H32.5261V43.0851H33.6294V44.1641C34.0053 43.4245 34.7206 42.9638 35.7754 42.9638V44.1035H35.4845C34.4296 44.1035 33.6294 44.5764 33.6294 46.1162ZM41.3848 44.3096C41.7849 43.6064 42.6579 42.9759 43.8703 42.9759C45.6526 42.9759 47.0227 44.3096 47.0227 46.3829C47.0227 48.4441 45.6526 49.8384 43.8703 49.8384C42.6579 49.8384 41.797 49.1836 41.3848 48.5047V52.8816H40.2815V43.0851H41.3848V44.3096ZM45.8951 46.3829C45.8951 44.8189 44.8645 43.9338 43.6399 43.9338C42.4396 43.9338 41.3848 44.8552 41.3848 46.395C41.3848 47.9591 42.4396 48.8684 43.6399 48.8684C44.8645 48.8684 45.8951 47.947 45.8951 46.3829ZM51.2999 43.9095C50.2208 43.9095 49.3236 44.6249 49.2024 45.9222H53.3974C53.4096 44.6249 52.4396 43.9095 51.2999 43.9095ZM54.4038 47.6802C54.0643 48.8927 52.9973 49.8384 51.3484 49.8384C49.457 49.8384 48.0627 48.5047 48.0627 46.395C48.0627 44.2975 49.4085 42.9759 51.3484 42.9759C53.2762 42.9759 54.5371 44.3339 54.5371 46.1525C54.5371 46.395 54.525 46.589 54.5008 46.8194H49.1903C49.2751 48.1652 50.2208 48.9048 51.3484 48.9048C52.3426 48.9048 52.9731 48.3956 53.2156 47.6802H54.4038ZM62.2982 46.395C62.2982 48.5047 60.7826 49.8384 58.8912 49.8384C57.0119 49.8384 55.5813 48.5047 55.5813 46.395C55.5813 44.2975 57.0604 42.9759 58.9397 42.9759C60.8311 42.9759 62.2982 44.2975 62.2982 46.395ZM56.7088 46.395C56.7088 48.0803 57.7394 48.8684 58.8912 48.8684C60.0431 48.8684 61.1706 48.0803 61.1706 46.395C61.1706 44.7219 60.0673 43.9338 58.9276 43.9338C57.7637 43.9338 56.7088 44.7219 56.7088 46.395ZM64.8522 44.3096C65.2523 43.6064 66.1253 42.9759 67.3377 42.9759C69.12 42.9759 70.49 44.3096 70.49 46.3829C70.49 48.4441 69.12 49.8384 67.3377 49.8384C66.1253 49.8384 65.2644 49.1836 64.8522 48.5047V52.8816H63.7489V43.0851H64.8522V44.3096ZM69.3625 46.3829C69.3625 44.8189 68.3319 43.9338 67.1073 43.9338C65.907 43.9338 64.8522 44.8552 64.8522 46.395C64.8522 47.9591 65.907 48.8684 67.1073 48.8684C68.3319 48.8684 69.3625 47.947 69.3625 46.3829ZM71.9423 49.7292V40.7572H73.0456V49.7292H71.9423ZM77.7511 43.9095C76.672 43.9095 75.7748 44.6249 75.6535 45.9222H79.8486C79.8607 44.6249 78.8908 43.9095 77.7511 43.9095ZM80.8549 47.6802C80.5154 48.8927 79.4485 49.8384 77.7996 49.8384C75.9082 49.8384 74.5138 48.5047 74.5138 46.395C74.5138 44.2975 75.8597 42.9759 77.7996 42.9759C79.7273 42.9759 80.9883 44.3339 80.9883 46.1525C80.9883 46.395 80.9762 46.589 80.9519 46.8194H75.6414C75.7263 48.1652 76.672 48.9048 77.7996 48.9048C78.7938 48.9048 79.4242 48.3956 79.6667 47.6802H80.8549ZM2.73089 62.7292L0.645493 56.0851H1.77306L3.30074 61.6623L4.94966 56.0851H6.07724L7.68979 61.6744L9.19321 56.0851H10.2844L8.21114 62.7292H7.07144L5.47101 57.4551L3.87059 62.7292H2.73089ZM11.3794 62.7292V56.0851H12.4827V62.7292H11.3794ZM11.9492 55.006C11.5249 55.006 11.1975 54.6786 11.1975 54.2543C11.1975 53.8299 11.5249 53.5026 11.9492 53.5026C12.3494 53.5026 12.6767 53.8299 12.6767 54.2543C12.6767 54.6786 12.3494 55.006 11.9492 55.006ZM14.6056 60.9106V56.9944H13.7448V56.0851H14.6056V54.4119H15.709V56.0851H17.4427V56.9944H15.709V60.9106C15.709 61.5653 15.9514 61.7957 16.6304 61.7957H17.4427V62.7292H16.4485C15.2725 62.7292 14.6056 62.2443 14.6056 60.9106ZM18.7796 62.7292V53.7572H19.8829V57.0429C20.3194 56.3397 21.1438 55.9638 22.0774 55.9638C23.5566 55.9638 24.7327 56.9095 24.7327 58.8131V62.7292H23.6415V58.9707C23.6415 57.6127 22.9019 56.9216 21.7864 56.9216C20.6588 56.9216 19.8829 57.6249 19.8829 59.0555V62.7292H18.7796ZM39.3577 62.7292V58.9707C39.3577 57.6127 38.6303 56.9216 37.5391 56.9216C36.4236 56.9216 35.6598 57.637 35.6598 59.0677V62.7292H34.5686V58.9707C34.5686 57.6127 33.8411 56.9216 32.7499 56.9216C31.6345 56.9216 30.8706 57.637 30.8706 59.0677V62.7292H29.7673V56.0851H30.8706V57.0429C31.3071 56.3397 32.0952 55.9638 32.9682 55.9638C34.0594 55.9638 34.9687 56.4488 35.4052 57.443C35.7932 56.4852 36.7389 55.9638 37.7573 55.9638C39.2729 55.9638 40.4489 56.9095 40.4489 58.8131V62.7292H39.3577ZM45.0838 56.9095C44.0047 56.9095 43.1075 57.6249 42.9863 58.9222H47.1813C47.1934 57.6249 46.2235 56.9095 45.0838 56.9095ZM48.1876 60.6802C47.8482 61.8927 46.7812 62.8384 45.1323 62.8384C43.2409 62.8384 41.8466 61.5047 41.8466 59.395C41.8466 57.2975 43.1924 55.9759 45.1323 55.9759C47.0601 55.9759 48.321 57.3339 48.321 59.1525C48.321 59.395 48.3089 59.589 48.2846 59.8194H42.9741C43.059 61.1652 44.0047 61.9048 45.1323 61.9048C46.1265 61.9048 46.757 61.3956 46.9994 60.6802H48.1876ZM54.6393 62.7292V58.9707C54.6393 57.6127 53.8997 56.9216 52.7842 56.9216C51.6566 56.9216 50.8807 57.6249 50.8807 59.0555V62.7292H49.7774V56.0851H50.8807V57.0308C51.3172 56.3397 52.1174 55.9638 53.0146 55.9638C54.5544 55.9638 55.7305 56.9095 55.7305 58.8131V62.7292H54.6393ZM57.7752 60.9106V56.9944H56.9144V56.0851H57.7752V54.4119H58.8785V56.0851H60.6123V56.9944H58.8785V60.9106C58.8785 61.5653 59.121 61.7957 59.8 61.7957H60.6123V62.7292H59.6181C58.4421 62.7292 57.7752 62.2443 57.7752 60.9106ZM61.5369 59.3829C61.5369 57.3096 62.907 55.9759 64.6893 55.9759C65.926 55.9759 66.7747 56.6064 67.1627 57.2975V56.0851H68.2781V62.7292H67.1627V61.4926C66.7625 62.2079 65.9017 62.8384 64.6771 62.8384C62.907 62.8384 61.5369 61.4441 61.5369 59.3829ZM67.1627 59.395C67.1627 57.8552 66.12 56.9338 64.9075 56.9338C63.6951 56.9338 62.6645 57.8189 62.6645 59.3829C62.6645 60.947 63.6951 61.8684 64.9075 61.8684C66.12 61.8684 67.1627 60.9591 67.1627 59.395ZM70.1426 62.7292V53.7572H71.2459V62.7292H70.1426ZM1.43358 75.7292V66.7572H2.5369V70.0429C2.97338 69.3397 3.79784 68.9638 4.73142 68.9638C6.2106 68.9638 7.38667 69.9095 7.38667 71.8131V75.7292H6.29548V71.9707C6.29548 70.6127 5.55589 69.9216 4.44044 69.9216C3.31287 69.9216 2.5369 70.6249 2.5369 72.0555V75.7292H1.43358ZM12.0139 69.9095C10.9349 69.9095 10.0377 70.6249 9.91642 71.9222H14.1115C14.1236 70.6249 13.1536 69.9095 12.0139 69.9095ZM15.1178 73.6802C14.7783 74.8927 13.7114 75.8384 12.0624 75.8384C10.171 75.8384 8.77672 74.5047 8.77672 72.395C8.77672 70.2975 10.1225 68.9759 12.0624 68.9759C13.9902 68.9759 15.2512 70.3339 15.2512 72.1525C15.2512 72.395 15.239 72.589 15.2148 72.8194H9.90429C9.98916 74.1652 10.9349 74.9048 12.0624 74.9048C13.0566 74.9048 13.6871 74.3956 13.9296 73.6802H15.1178ZM16.2953 72.3829C16.2953 70.3096 17.6653 68.9759 19.4476 68.9759C20.6843 68.9759 21.533 69.6064 21.921 70.2975V69.0851H23.0365V75.7292H21.921V74.4926C21.5209 75.2079 20.6601 75.8384 19.4355 75.8384C17.6653 75.8384 16.2953 74.4441 16.2953 72.3829ZM21.921 72.395C21.921 70.8552 20.8783 69.9338 19.6659 69.9338C18.4534 69.9338 17.4229 70.8189 17.4229 72.3829C17.4229 73.947 18.4534 74.8684 19.6659 74.8684C20.8783 74.8684 21.921 73.9591 21.921 72.395ZM24.901 75.7292V66.7572H26.0043V75.7292H24.901ZM28.1272 73.9106V69.9944H27.2664V69.0851H28.1272V67.4119H29.2305V69.0851H30.9643V69.9944H29.2305V73.9106C29.2305 74.5653 29.473 74.7957 30.152 74.7957H30.9643V75.7292H29.9701C28.7941 75.7292 28.1272 75.2443 28.1272 73.9106ZM32.3011 75.7292V66.7572H33.4045V70.0429C33.8409 69.3397 34.6654 68.9638 35.599 68.9638C37.0782 68.9638 38.2542 69.9095 38.2542 71.8131V75.7292H37.163V71.9707C37.163 70.6127 36.4234 69.9216 35.308 69.9216C34.1804 69.9216 33.4045 70.6249 33.4045 72.0555V75.7292H32.3011ZM43.2889 75.7292V69.0851H44.3922V75.7292H43.2889ZM43.8587 68.006C43.4344 68.006 43.107 67.6786 43.107 67.2543C43.107 66.8299 43.4344 66.5026 43.8587 66.5026C44.2589 66.5026 44.5862 66.8299 44.5862 67.2543C44.5862 67.6786 44.2589 68.006 43.8587 68.006ZM51.0497 73.9227C51.0497 75.0139 50.0918 75.8384 48.6248 75.8384C47.0729 75.8384 45.9817 74.9897 45.9089 73.7772H47.0486C47.1092 74.4198 47.6791 74.9048 48.6127 74.9048C49.4856 74.9048 49.9706 74.4683 49.9706 73.9227C49.9706 72.4435 46.0423 73.3044 46.0423 70.831C46.0423 69.8125 47.0001 68.9759 48.4793 68.9759C49.9463 68.9759 50.9163 69.764 50.989 71.0613H49.8857C49.8372 70.3945 49.328 69.9095 48.4429 69.9095C47.6306 69.9095 47.1456 70.2975 47.1456 70.831C47.1456 72.4072 51.0012 71.5463 51.0497 73.9227ZM57.3842 73.9227C57.3842 75.0139 56.4264 75.8384 54.9593 75.8384C53.4074 75.8384 52.3162 74.9897 52.2435 73.7772H53.3831C53.4438 74.4198 54.0136 74.9048 54.9472 74.9048C55.8202 74.9048 56.3051 74.4683 56.3051 73.9227C56.3051 72.4435 52.3768 73.3044 52.3768 70.831C52.3768 69.8125 53.3346 68.9759 54.8138 68.9759C56.2809 68.9759 57.2508 69.764 57.3236 71.0613H56.2203C56.1718 70.3945 55.6625 69.9095 54.7775 69.9095C53.9651 69.9095 53.4801 70.2975 53.4801 70.831C53.4801 72.4072 57.3357 71.5463 57.3842 73.9227ZM64.8342 69.0851V75.7292H63.7309V74.7472C63.3065 75.4383 62.4942 75.8262 61.6091 75.8262C60.0814 75.8262 58.8811 74.8805 58.8811 72.977V69.0851H59.9723V72.8315C59.9723 74.1773 60.7119 74.8684 61.8273 74.8684C62.967 74.8684 63.7309 74.1652 63.7309 72.7345V69.0851H64.8342ZM69.5221 69.9095C68.443 69.9095 67.5458 70.6249 67.4246 71.9222H71.6196C71.6317 70.6249 70.6618 69.9095 69.5221 69.9095ZM72.6259 73.6802C72.2865 74.8927 71.2195 75.8384 69.5706 75.8384C67.6792 75.8384 66.2849 74.5047 66.2849 72.395C66.2849 70.2975 67.6307 68.9759 69.5706 68.9759C71.4984 68.9759 72.7593 70.3339 72.7593 72.1525C72.7593 72.395 72.7472 72.589 72.7229 72.8194H67.4124C67.4973 74.1652 68.443 74.9048 69.5706 74.9048C70.5648 74.9048 71.1953 74.3956 71.4377 73.6802H72.6259ZM78.9927 73.9227C78.9927 75.0139 78.0348 75.8384 76.5678 75.8384C75.0159 75.8384 73.9247 74.9897 73.8519 73.7772H74.9916C75.0522 74.4198 75.6221 74.9048 76.5557 74.9048C77.4286 74.9048 77.9136 74.4683 77.9136 73.9227C77.9136 72.4435 73.9853 73.3044 73.9853 70.831C73.9853 69.8125 74.9431 68.9759 76.4223 68.9759C77.8894 68.9759 78.8593 69.764 78.9321 71.0613H77.8287C77.7802 70.3945 77.271 69.9095 76.3859 69.9095C75.5736 69.9095 75.0886 70.2975 75.0886 70.831C75.0886 72.4072 78.9442 71.5463 78.9927 73.9227Z" fill="black"/>
<path d="M167.281 49.7292V41.3391H168.469L171.573 48.2743L174.677 41.3391H175.853V49.7292H174.75V43.473L171.961 49.7292H171.185L168.384 43.4609V49.7292H167.281ZM184.029 46.395C184.029 48.5047 182.513 49.8384 180.622 49.8384C178.743 49.8384 177.312 48.5047 177.312 46.395C177.312 44.2975 178.791 42.9759 180.67 42.9759C182.562 42.9759 184.029 44.2975 184.029 46.395ZM178.44 46.395C178.44 48.0803 179.47 48.8684 180.622 48.8684C181.774 48.8684 182.901 48.0803 182.901 46.395C182.901 44.7219 181.798 43.9338 180.658 43.9338C179.494 43.9338 178.44 44.7219 178.44 46.395ZM186.583 46.1162V49.7292H185.48V43.0851H186.583V44.1641C186.959 43.4245 187.674 42.9638 188.729 42.9638V44.1035H188.438C187.383 44.1035 186.583 44.5764 186.583 46.1162ZM192.828 43.9095C191.748 43.9095 190.851 44.6249 190.73 45.9222H194.925C194.937 44.6249 193.967 43.9095 192.828 43.9095ZM195.931 47.6802C195.592 48.8927 194.525 49.8384 192.876 49.8384C190.985 49.8384 189.59 48.5047 189.59 46.395C189.59 44.2975 190.936 42.9759 192.876 42.9759C194.804 42.9759 196.065 44.3339 196.065 46.1525C196.065 46.395 196.053 46.589 196.028 46.8194H190.718C190.803 48.1652 191.748 48.9048 192.876 48.9048C193.87 48.9048 194.501 48.3956 194.743 47.6802H195.931ZM201.857 44.3096C202.257 43.6064 203.13 42.9759 204.342 42.9759C206.125 42.9759 207.495 44.3096 207.495 46.3829C207.495 48.4441 206.125 49.8384 204.342 49.8384C203.13 49.8384 202.269 49.1836 201.857 48.5047V52.8816H200.753V43.0851H201.857V44.3096ZM206.367 46.3829C206.367 44.8189 205.337 43.9338 204.112 43.9338C202.912 43.9338 201.857 44.8552 201.857 46.395C201.857 47.9591 202.912 48.8684 204.112 48.8684C205.337 48.8684 206.367 47.947 206.367 46.3829ZM211.772 43.9095C210.693 43.9095 209.796 44.6249 209.674 45.9222H213.869C213.882 44.6249 212.912 43.9095 211.772 43.9095ZM214.876 47.6802C214.536 48.8927 213.469 49.8384 211.82 49.8384C209.929 49.8384 208.535 48.5047 208.535 46.395C208.535 44.2975 209.881 42.9759 211.82 42.9759C213.748 42.9759 215.009 44.3339 215.009 46.1525C215.009 46.395 214.997 46.589 214.973 46.8194H209.662C209.747 48.1652 210.693 48.9048 211.82 48.9048C212.815 48.9048 213.445 48.3956 213.688 47.6802H214.876ZM222.77 46.395C222.77 48.5047 221.255 49.8384 219.363 49.8384C217.484 49.8384 216.053 48.5047 216.053 46.395C216.053 44.2975 217.532 42.9759 219.412 42.9759C221.303 42.9759 222.77 44.2975 222.77 46.395ZM217.181 46.395C217.181 48.0803 218.211 48.8684 219.363 48.8684C220.515 48.8684 221.643 48.0803 221.643 46.395C221.643 44.7219 220.539 43.9338 219.4 43.9338C218.236 43.9338 217.181 44.7219 217.181 46.395ZM225.324 44.3096C225.724 43.6064 226.597 42.9759 227.81 42.9759C229.592 42.9759 230.962 44.3096 230.962 46.3829C230.962 48.4441 229.592 49.8384 227.81 49.8384C226.597 49.8384 225.736 49.1836 225.324 48.5047V52.8816H224.221V43.0851H225.324V44.3096ZM229.834 46.3829C229.834 44.8189 228.804 43.9338 227.579 43.9338C226.379 43.9338 225.324 44.8552 225.324 46.395C225.324 47.9591 226.379 48.8684 227.579 48.8684C228.804 48.8684 229.834 47.947 229.834 46.3829ZM232.414 49.7292V40.7572H233.518V49.7292H232.414ZM238.223 43.9095C237.144 43.9095 236.247 44.6249 236.126 45.9222H240.321C240.333 44.6249 239.363 43.9095 238.223 43.9095ZM241.327 47.6802C240.987 48.8927 239.92 49.8384 238.272 49.8384C236.38 49.8384 234.986 48.5047 234.986 46.395C234.986 44.2975 236.332 42.9759 238.272 42.9759C240.199 42.9759 241.46 44.3339 241.46 46.1525C241.46 46.395 241.448 46.589 241.424 46.8194H236.113C236.198 48.1652 237.144 48.9048 238.272 48.9048C239.266 48.9048 239.896 48.3956 240.139 47.6802H241.327ZM175.754 62.7292L173.668 56.0851H174.796L176.323 61.6623L177.972 56.0851H179.1L180.712 61.6744L182.216 56.0851H183.307L181.234 62.7292H180.094L178.494 57.4551L176.893 62.7292H175.754ZM184.402 62.7292V56.0851H185.505V62.7292H184.402ZM184.972 55.006C184.548 55.006 184.22 54.6786 184.22 54.2543C184.22 53.8299 184.548 53.5026 184.972 53.5026C185.372 53.5026 185.699 53.8299 185.699 54.2543C185.699 54.6786 185.372 55.006 184.972 55.006ZM187.628 60.9106V56.9944H186.767V56.0851H187.628V54.4119H188.732V56.0851H190.465V56.9944H188.732V60.9106C188.732 61.5653 188.974 61.7957 189.653 61.7957H190.465V62.7292H189.471C188.295 62.7292 187.628 62.2443 187.628 60.9106ZM191.802 62.7292V53.7572H192.906V57.0429C193.342 56.3397 194.166 55.9638 195.1 55.9638C196.579 55.9638 197.755 56.9095 197.755 58.8131V62.7292H196.664V58.9707C196.664 57.6127 195.925 56.9216 194.809 56.9216C193.682 56.9216 192.906 57.6249 192.906 59.0555V62.7292H191.802ZM212.38 62.7292V58.9707C212.38 57.6127 211.653 56.9216 210.562 56.9216C209.446 56.9216 208.682 57.637 208.682 59.0677V62.7292H207.591V58.9707C207.591 57.6127 206.864 56.9216 205.773 56.9216C204.657 56.9216 203.893 57.637 203.893 59.0677V62.7292H202.79V56.0851H203.893V57.0429C204.33 56.3397 205.118 55.9638 205.991 55.9638C207.082 55.9638 207.991 56.4488 208.428 57.443C208.816 56.4852 209.762 55.9638 210.78 55.9638C212.296 55.9638 213.472 56.9095 213.472 58.8131V62.7292H212.38ZM218.106 56.9095C217.027 56.9095 216.13 57.6249 216.009 58.9222H220.204C220.216 57.6249 219.246 56.9095 218.106 56.9095ZM221.21 60.6802C220.871 61.8927 219.804 62.8384 218.155 62.8384C216.264 62.8384 214.869 61.5047 214.869 59.395C214.869 57.2975 216.215 55.9759 218.155 55.9759C220.083 55.9759 221.344 57.3339 221.344 59.1525C221.344 59.395 221.332 59.589 221.307 59.8194H215.997C216.082 61.1652 217.027 61.9048 218.155 61.9048C219.149 61.9048 219.78 61.3956 220.022 60.6802H221.21ZM227.662 62.7292V58.9707C227.662 57.6127 226.922 56.9216 225.807 56.9216C224.679 56.9216 223.903 57.6249 223.903 59.0555V62.7292H222.8V56.0851H223.903V57.0308C224.34 56.3397 225.14 55.9638 226.037 55.9638C227.577 55.9638 228.753 56.9095 228.753 58.8131V62.7292H227.662ZM230.798 60.9106V56.9944H229.937V56.0851H230.798V54.4119H231.901V56.0851H233.635V56.9944H231.901V60.9106C231.901 61.5653 232.144 61.7957 232.823 61.7957H233.635V62.7292H232.641C231.465 62.7292 230.798 62.2443 230.798 60.9106ZM234.56 59.3829C234.56 57.3096 235.93 55.9759 237.712 55.9759C238.949 55.9759 239.797 56.6064 240.185 57.2975V56.0851H241.301V62.7292H240.185V61.4926C239.785 62.2079 238.924 62.8384 237.7 62.8384C235.93 62.8384 234.56 61.4441 234.56 59.3829ZM240.185 59.395C240.185 57.8552 239.143 56.9338 237.93 56.9338C236.718 56.9338 235.687 57.8189 235.687 59.3829C235.687 60.947 236.718 61.8684 237.93 61.8684C239.143 61.8684 240.185 60.9591 240.185 59.395ZM243.165 62.7292V53.7572H244.269V62.7292H243.165ZM167.032 75.7292V66.7572H168.136V70.0429C168.572 69.3397 169.397 68.9638 170.33 68.9638C171.809 68.9638 172.986 69.9095 172.986 71.8131V75.7292H171.894V71.9707C171.894 70.6127 171.155 69.9216 170.039 69.9216C168.912 69.9216 168.136 70.6249 168.136 72.0555V75.7292H167.032ZM177.613 69.9095C176.534 69.9095 175.636 70.6249 175.515 71.9222H179.71C179.722 70.6249 178.752 69.9095 177.613 69.9095ZM180.717 73.6802C180.377 74.8927 179.31 75.8384 177.661 75.8384C175.77 75.8384 174.376 74.5047 174.376 72.395C174.376 70.2975 175.721 68.9759 177.661 68.9759C179.589 68.9759 180.85 70.3339 180.85 72.1525C180.85 72.395 180.838 72.589 180.814 72.8194H175.503C175.588 74.1652 176.534 74.9048 177.661 74.9048C178.655 74.9048 179.286 74.3956 179.528 73.6802H180.717ZM181.894 72.3829C181.894 70.3096 183.264 68.9759 185.046 68.9759C186.283 68.9759 187.132 69.6064 187.52 70.2975V69.0851H188.635V75.7292H187.52V74.4926C187.12 75.2079 186.259 75.8384 185.034 75.8384C183.264 75.8384 181.894 74.4441 181.894 72.3829ZM187.52 72.395C187.52 70.8552 186.477 69.9338 185.265 69.9338C184.052 69.9338 183.022 70.8189 183.022 72.3829C183.022 73.947 184.052 74.8684 185.265 74.8684C186.477 74.8684 187.52 73.9591 187.52 72.395ZM190.5 75.7292V66.7572H191.603V75.7292H190.5ZM193.726 73.9106V69.9944H192.865V69.0851H193.726V67.4119H194.829V69.0851H196.563V69.9944H194.829V73.9106C194.829 74.5653 195.072 74.7957 195.751 74.7957H196.563V75.7292H195.569C194.393 75.7292 193.726 75.2443 193.726 73.9106ZM197.9 75.7292V66.7572H199.003V70.0429C199.44 69.3397 200.264 68.9638 201.198 68.9638C202.677 68.9638 203.853 69.9095 203.853 71.8131V75.7292H202.762V71.9707C202.762 70.6127 202.022 69.9216 200.907 69.9216C199.779 69.9216 199.003 70.6249 199.003 72.0555V75.7292H197.9ZM208.888 75.7292V69.0851H209.991V75.7292H208.888ZM209.458 68.006C209.033 68.006 208.706 67.6786 208.706 67.2543C208.706 66.8299 209.033 66.5026 209.458 66.5026C209.858 66.5026 210.185 66.8299 210.185 67.2543C210.185 67.6786 209.858 68.006 209.458 68.006ZM216.649 73.9227C216.649 75.0139 215.691 75.8384 214.224 75.8384C212.672 75.8384 211.58 74.9897 211.508 73.7772H212.647C212.708 74.4198 213.278 74.9048 214.211 74.9048C215.084 74.9048 215.569 74.4683 215.569 73.9227C215.569 72.4435 211.641 73.3044 211.641 70.831C211.641 69.8125 212.599 68.9759 214.078 68.9759C215.545 68.9759 216.515 69.764 216.588 71.0613H215.485C215.436 70.3945 214.927 69.9095 214.042 69.9095C213.229 69.9095 212.744 70.2975 212.744 70.831C212.744 72.4072 216.6 71.5463 216.649 73.9227ZM222.983 73.9227C222.983 75.0139 222.025 75.8384 220.558 75.8384C219.006 75.8384 217.915 74.9897 217.842 73.7772H218.982C219.043 74.4198 219.612 74.9048 220.546 74.9048C221.419 74.9048 221.904 74.4683 221.904 73.9227C221.904 72.4435 217.976 73.3044 217.976 70.831C217.976 69.8125 218.933 68.9759 220.413 68.9759C221.88 68.9759 222.85 69.764 222.922 71.0613H221.819C221.771 70.3945 221.261 69.9095 220.376 69.9095C219.564 69.9095 219.079 70.2975 219.079 70.831C219.079 72.4072 222.935 71.5463 222.983 73.9227ZM230.433 69.0851V75.7292H229.33V74.7472C228.905 75.4383 228.093 75.8262 227.208 75.8262C225.68 75.8262 224.48 74.8805 224.48 72.977V69.0851H225.571V72.8315C225.571 74.1773 226.311 74.8684 227.426 74.8684C228.566 74.8684 229.33 74.1652 229.33 72.7345V69.0851H230.433ZM235.121 69.9095C234.042 69.9095 233.145 70.6249 233.023 71.9222H237.218C237.231 70.6249 236.261 69.9095 235.121 69.9095ZM238.225 73.6802C237.885 74.8927 236.818 75.8384 235.169 75.8384C233.278 75.8384 231.884 74.5047 231.884 72.395C231.884 70.2975 233.23 68.9759 235.169 68.9759C237.097 68.9759 238.358 70.3339 238.358 72.1525C238.358 72.395 238.346 72.589 238.322 72.8194H233.011C233.096 74.1652 234.042 74.9048 235.169 74.9048C236.164 74.9048 236.794 74.3956 237.037 73.6802H238.225ZM244.592 73.9227C244.592 75.0139 243.634 75.8384 242.167 75.8384C240.615 75.8384 239.523 74.9897 239.451 73.7772H240.59C240.651 74.4198 241.221 74.9048 242.155 74.9048C243.027 74.9048 243.512 74.4683 243.512 73.9227C243.512 72.4435 239.584 73.3044 239.584 70.831C239.584 69.8125 240.542 68.9759 242.021 68.9759C243.488 68.9759 244.458 69.764 244.531 71.0613H243.428C243.379 70.3945 242.87 69.9095 241.985 69.9095C241.172 69.9095 240.687 70.2975 240.687 70.831C240.687 72.4072 244.543 71.5463 244.592 73.9227Z" fill="black"/>
</svg>
