<svg width="246" height="54" viewBox="0 0 246 54" fill="none" xmlns="http://www.w3.org/2000/svg">
<rect width="35" height="35" transform="matrix(-1 0 0 1 245.5 0.883789)" fill="#BF0978"/>
<rect width="35" height="35" transform="matrix(-1 0 0 1 210.5 0.883789)" fill="#D76FA0"/>
<rect width="35" height="35" transform="matrix(-1 0 0 1 175.5 0.883789)" fill="#E9B3CA"/>
<rect width="35" height="35" transform="matrix(-1 0 0 1 140.5 0.883789)" fill="#F5F5F5"/>
<rect width="35" height="35" transform="matrix(-1 0 0 1 70.5 0.883789)" fill="#7FC8AE"/>
<rect width="35" height="35" transform="matrix(-1 0 0 1 105.5 0.883789)" fill="#BBDFD1"/>
<rect width="35" height="35" transform="matrix(-1 0 0 1 35.5 0.883789)" fill="#32B08C"/>
<path d="M1.43358 41.2785H2.5369V48.832H5.49526V49.7292H1.43358V41.2785ZM9.49197 43.9095C8.41289 43.9095 7.51569 44.6249 7.39444 45.9222H11.5895C11.6016 44.6249 10.6317 43.9095 9.49197 43.9095ZM12.5958 47.6802C12.2563 48.8927 11.1894 49.8384 9.54046 49.8384C7.64905 49.8384 6.25474 48.5047 6.25474 46.395C6.25474 44.2975 7.60056 42.9759 9.54046 42.9759C11.4682 42.9759 12.7292 44.3339 12.7292 46.1525C12.7292 46.395 12.7171 46.589 12.6928 46.8194H7.38232C7.46719 48.1652 8.41289 48.9048 9.54046 48.9048C10.5347 48.9048 11.1651 48.3956 11.4076 47.6802H12.5958ZM18.9626 47.9227C18.9626 49.0139 18.0047 49.8384 16.5377 49.8384C14.9858 49.8384 13.8946 48.9897 13.8218 47.7772H14.9615C15.0221 48.4198 15.592 48.9048 16.5256 48.9048C17.3985 48.9048 17.8835 48.4683 17.8835 47.9227C17.8835 46.4435 13.9552 47.3044 13.9552 44.831C13.9552 43.8125 14.913 42.9759 16.3922 42.9759C17.8592 42.9759 18.8292 43.764 18.9019 45.0613H17.7986C17.7501 44.3945 17.2409 43.9095 16.3558 43.9095C15.5435 43.9095 15.0585 44.2975 15.0585 44.831C15.0585 46.4072 18.9141 45.5463 18.9626 47.9227ZM25.2971 47.9227C25.2971 49.0139 24.3393 49.8384 22.8722 49.8384C21.3203 49.8384 20.2291 48.9897 20.1563 47.7772H21.296C21.3567 48.4198 21.9265 48.9048 22.8601 48.9048C23.7331 48.9048 24.218 48.4683 24.218 47.9227C24.218 46.4435 20.2897 47.3044 20.2897 44.831C20.2897 43.8125 21.2475 42.9759 22.7267 42.9759C24.1938 42.9759 25.1637 43.764 25.2365 45.0613H24.1332C24.0847 44.3945 23.5754 43.9095 22.6904 43.9095C21.878 43.9095 21.393 44.2975 21.393 44.831C21.393 46.4072 25.2486 45.5463 25.2971 47.9227ZM29.6748 46.3829C29.6748 44.3096 31.0448 42.9759 32.8393 42.9759C33.882 42.9759 34.8398 43.5094 35.3005 44.2733V40.7572H36.416V49.7292H35.3005V48.4804C34.9004 49.22 34.0396 49.8384 32.8271 49.8384C31.0448 49.8384 29.6748 48.4441 29.6748 46.3829ZM35.3005 46.395C35.3005 44.8552 34.2578 43.9338 33.0454 43.9338C31.8329 43.9338 30.8023 44.8189 30.8023 46.3829C30.8023 47.947 31.8329 48.8684 33.0454 48.8684C34.2578 48.8684 35.3005 47.9591 35.3005 46.395ZM41.1055 43.9095C40.0264 43.9095 39.1292 44.6249 39.0079 45.9222H43.203C43.2151 44.6249 42.2452 43.9095 41.1055 43.9095ZM44.2093 47.6802C43.8698 48.8927 42.8029 49.8384 41.154 49.8384C39.2625 49.8384 37.8682 48.5047 37.8682 46.395C37.8682 44.2975 39.214 42.9759 41.154 42.9759C43.0817 42.9759 44.3427 44.3339 44.3427 46.1525C44.3427 46.395 44.3306 46.589 44.3063 46.8194H38.9958C39.0807 48.1652 40.0264 48.9048 41.154 48.9048C42.1482 48.9048 42.7786 48.3956 43.0211 47.6802H44.2093ZM46.9024 44.3096C47.3025 43.6064 48.1754 42.9759 49.3879 42.9759C51.1702 42.9759 52.5402 44.3096 52.5402 46.3829C52.5402 48.4441 51.1702 49.8384 49.3879 49.8384C48.1754 49.8384 47.3146 49.1836 46.9024 48.5047V52.8816H45.799V43.0851H46.9024V44.3096ZM51.4126 46.3829C51.4126 44.8189 50.3821 43.9338 49.1575 43.9338C47.9572 43.9338 46.9024 44.8552 46.9024 46.395C46.9024 47.9591 47.9572 48.8684 49.1575 48.8684C50.3821 48.8684 51.4126 47.947 51.4126 46.3829ZM55.0958 46.1162V49.7292H53.9925V43.0851H55.0958V44.1641C55.4717 43.4245 56.187 42.9638 57.2418 42.9638V44.1035H56.9509C55.896 44.1035 55.0958 44.5764 55.0958 46.1162ZM58.5155 49.7292V43.0851H59.6188V49.7292H58.5155ZM59.0853 42.006C58.661 42.006 58.3336 41.6786 58.3336 41.2543C58.3336 40.8299 58.661 40.5026 59.0853 40.5026C59.4854 40.5026 59.8128 40.8299 59.8128 41.2543C59.8128 41.6786 59.4854 42.006 59.0853 42.006ZM60.7111 43.0851H61.8993L63.9726 48.7108L66.0338 43.0851H67.2098L64.6031 49.7292H63.3179L60.7111 43.0851ZM67.8833 46.3829C67.8833 44.3096 69.2534 42.9759 71.0356 42.9759C72.2723 42.9759 73.121 43.6064 73.509 44.2975V43.0851H74.6245V49.7292H73.509V48.4926C73.1089 49.2079 72.2481 49.8384 71.0235 49.8384C69.2534 49.8384 67.8833 48.4441 67.8833 46.3829ZM73.509 46.395C73.509 44.8552 72.4663 43.9338 71.2539 43.9338C70.0414 43.9338 69.0109 44.8189 69.0109 46.3829C69.0109 47.947 70.0414 48.8684 71.2539 48.8684C72.4663 48.8684 73.509 47.9591 73.509 46.395ZM76.7315 47.9106V43.9944H75.8706V43.0851H76.7315V41.4119H77.8348V43.0851H79.5686V43.9944H77.8348V47.9106C77.8348 48.5653 78.0773 48.7957 78.7563 48.7957H79.5686V49.7292H78.5744C77.3983 49.7292 76.7315 49.2443 76.7315 47.9106ZM80.9054 49.7292V43.0851H82.0087V49.7292H80.9054ZM81.4753 42.006C81.0509 42.006 80.7235 41.6786 80.7235 41.2543C80.7235 40.8299 81.0509 40.5026 81.4753 40.5026C81.8754 40.5026 82.2027 40.8299 82.2027 41.2543C82.2027 41.6786 81.8754 42.006 81.4753 42.006ZM90.1938 46.395C90.1938 48.5047 88.6783 49.8384 86.7869 49.8384C84.9076 49.8384 83.4769 48.5047 83.4769 46.395C83.4769 44.2975 84.9561 42.9759 86.8354 42.9759C88.7268 42.9759 90.1938 44.2975 90.1938 46.395ZM84.6045 46.395C84.6045 48.0803 85.6351 48.8684 86.7869 48.8684C87.9387 48.8684 89.0663 48.0803 89.0663 46.395C89.0663 44.7219 87.963 43.9338 86.8233 43.9338C85.6593 43.9338 84.6045 44.7219 84.6045 46.395ZM96.5064 49.7292V45.9707C96.5064 44.6127 95.7668 43.9216 94.6514 43.9216C93.5238 43.9216 92.7478 44.6249 92.7478 46.0555V49.7292H91.6445V43.0851H92.7478V44.0308C93.1843 43.3397 93.9845 42.9638 94.8817 42.9638C96.4215 42.9638 97.5976 43.9095 97.5976 45.8131V49.7292H96.5064Z" fill="black"/>
<path d="M143.364 49.7292V41.3391H144.552L147.656 48.2743L150.76 41.3391H151.936V49.7292H150.832V43.473L148.044 49.7292H147.268L144.467 43.4609V49.7292H143.364ZM160.112 46.395C160.112 48.5047 158.596 49.8384 156.705 49.8384C154.825 49.8384 153.395 48.5047 153.395 46.395C153.395 44.2975 154.874 42.9759 156.753 42.9759C158.644 42.9759 160.112 44.2975 160.112 46.395ZM154.522 46.395C154.522 48.0803 155.553 48.8684 156.705 48.8684C157.856 48.8684 158.984 48.0803 158.984 46.395C158.984 44.7219 157.881 43.9338 156.741 43.9338C155.577 43.9338 154.522 44.7219 154.522 46.395ZM162.666 46.1162V49.7292H161.562V43.0851H162.666V44.1641C163.041 43.4245 163.757 42.9638 164.812 42.9638V44.1035H164.521C163.466 44.1035 162.666 44.5764 162.666 46.1162ZM168.91 43.9095C167.831 43.9095 166.934 44.6249 166.813 45.9222H171.008C171.02 44.6249 170.05 43.9095 168.91 43.9095ZM172.014 47.6802C171.675 48.8927 170.608 49.8384 168.959 49.8384C167.067 49.8384 165.673 48.5047 165.673 46.395C165.673 44.2975 167.019 42.9759 168.959 42.9759C170.886 42.9759 172.147 44.3339 172.147 46.1525C172.147 46.395 172.135 46.589 172.111 46.8194H166.801C166.885 48.1652 167.831 48.9048 168.959 48.9048C169.953 48.9048 170.583 48.3956 170.826 47.6802H172.014ZM176.424 46.3829C176.424 44.3096 177.794 42.9759 179.588 42.9759C180.631 42.9759 181.589 43.5094 182.05 44.2733V40.7572H183.165V49.7292H182.05V48.4804C181.65 49.22 180.789 49.8384 179.576 49.8384C177.794 49.8384 176.424 48.4441 176.424 46.3829ZM182.05 46.395C182.05 44.8552 181.007 43.9338 179.795 43.9338C178.582 43.9338 177.551 44.8189 177.551 46.3829C177.551 47.947 178.582 48.8684 179.795 48.8684C181.007 48.8684 182.05 47.9591 182.05 46.395ZM187.855 43.9095C186.776 43.9095 185.878 44.6249 185.757 45.9222H189.952C189.964 44.6249 188.994 43.9095 187.855 43.9095ZM190.958 47.6802C190.619 48.8927 189.552 49.8384 187.903 49.8384C186.012 49.8384 184.617 48.5047 184.617 46.395C184.617 44.2975 185.963 42.9759 187.903 42.9759C189.831 42.9759 191.092 44.3339 191.092 46.1525C191.092 46.395 191.08 46.589 191.055 46.8194H185.745C185.83 48.1652 186.776 48.9048 187.903 48.9048C188.897 48.9048 189.528 48.3956 189.77 47.6802H190.958ZM193.651 44.3096C194.052 43.6064 194.925 42.9759 196.137 42.9759C197.919 42.9759 199.289 44.3096 199.289 46.3829C199.289 48.4441 197.919 49.8384 196.137 49.8384C194.925 49.8384 194.064 49.1836 193.651 48.5047V52.8816H192.548V43.0851H193.651V44.3096ZM198.162 46.3829C198.162 44.8189 197.131 43.9338 195.907 43.9338C194.706 43.9338 193.651 44.8552 193.651 46.395C193.651 47.9591 194.706 48.8684 195.907 48.8684C197.131 48.8684 198.162 47.947 198.162 46.3829ZM201.845 46.1162V49.7292H200.742V43.0851H201.845V44.1641C202.221 43.4245 202.936 42.9638 203.991 42.9638V44.1035H203.7C202.645 44.1035 201.845 44.5764 201.845 46.1162ZM205.265 49.7292V43.0851H206.368V49.7292H205.265ZM205.834 42.006C205.41 42.006 205.083 41.6786 205.083 41.2543C205.083 40.8299 205.41 40.5026 205.834 40.5026C206.235 40.5026 206.562 40.8299 206.562 41.2543C206.562 41.6786 206.235 42.006 205.834 42.006ZM207.46 43.0851H208.648L210.722 48.7108L212.783 43.0851H213.959L211.352 49.7292H210.067L207.46 43.0851ZM214.632 46.3829C214.632 44.3096 216.002 42.9759 217.785 42.9759C219.021 42.9759 219.87 43.6064 220.258 44.2975V43.0851H221.374V49.7292H220.258V48.4926C219.858 49.2079 218.997 49.8384 217.773 49.8384C216.002 49.8384 214.632 48.4441 214.632 46.3829ZM220.258 46.395C220.258 44.8552 219.215 43.9338 218.003 43.9338C216.791 43.9338 215.76 44.8189 215.76 46.3829C215.76 47.947 216.791 48.8684 218.003 48.8684C219.215 48.8684 220.258 47.9591 220.258 46.395ZM223.481 47.9106V43.9944H222.62V43.0851H223.481V41.4119H224.584V43.0851H226.318V43.9944H224.584V47.9106C224.584 48.5653 224.826 48.7957 225.505 48.7957H226.318V49.7292H225.324C224.147 49.7292 223.481 49.2443 223.481 47.9106ZM227.655 49.7292V43.0851H228.758V49.7292H227.655ZM228.224 42.006C227.8 42.006 227.473 41.6786 227.473 41.2543C227.473 40.8299 227.8 40.5026 228.224 40.5026C228.624 40.5026 228.952 40.8299 228.952 41.2543C228.952 41.6786 228.624 42.006 228.224 42.006ZM236.943 46.395C236.943 48.5047 235.427 49.8384 233.536 49.8384C231.657 49.8384 230.226 48.5047 230.226 46.395C230.226 44.2975 231.705 42.9759 233.585 42.9759C235.476 42.9759 236.943 44.2975 236.943 46.395ZM231.354 46.395C231.354 48.0803 232.384 48.8684 233.536 48.8684C234.688 48.8684 235.815 48.0803 235.815 46.395C235.815 44.7219 234.712 43.9338 233.572 43.9338C232.408 43.9338 231.354 44.7219 231.354 46.395ZM243.256 49.7292V45.9707C243.256 44.6127 242.516 43.9216 241.401 43.9216C240.273 43.9216 239.497 44.6249 239.497 46.0555V49.7292H238.394V43.0851H239.497V44.0308C239.933 43.3397 240.734 42.9638 241.631 42.9638C243.171 42.9638 244.347 43.9095 244.347 45.8131V49.7292H243.256Z" fill="black"/>
</svg>
