<svg width="246" height="66" viewBox="0 0 246 66" fill="none" xmlns="http://www.w3.org/2000/svg">
<rect width="35" height="35" transform="matrix(-1 0 0 1 245.5 0.519043)" fill="#BF0978"/>
<rect width="35" height="35" transform="matrix(-1 0 0 1 210.5 0.519043)" fill="#D76FA0"/>
<rect width="35" height="35" transform="matrix(-1 0 0 1 175.5 0.519043)" fill="#E9B3CA"/>
<rect width="35" height="35" transform="matrix(-1 0 0 1 140.5 0.519043)" fill="#F5F5F5"/>
<rect width="35" height="35" transform="matrix(-1 0 0 1 70.5 0.519043)" fill="#7FC8AE"/>
<rect width="35" height="35" transform="matrix(-1 0 0 1 105.5 0.519043)" fill="#BBDFD1"/>
<rect width="35" height="35" transform="matrix(-1 0 0 1 35.5 0.519043)" fill="#32B08C"/>
<path d="M1.43358 49.3646V40.9139H6.2106V41.8111H2.5369V44.6603H5.51951V45.5576H2.5369V49.3646H1.43358ZM10.3681 43.5449C9.28907 43.5449 8.39186 44.2602 8.27062 45.5576H12.4657C12.4778 44.2602 11.5078 43.5449 10.3681 43.5449ZM13.472 47.3156C13.1325 48.528 12.0656 49.4737 10.4166 49.4737C8.52523 49.4737 7.13092 48.1401 7.13092 46.0304C7.13092 43.9329 8.47674 42.6113 10.4166 42.6113C12.3444 42.6113 13.6054 43.9693 13.6054 45.7879C13.6054 46.0304 13.5932 46.2244 13.569 46.4548H8.2585C8.34337 47.8006 9.28907 48.5402 10.4166 48.5402C11.4108 48.5402 12.0413 48.0309 12.2838 47.3156H13.472ZM16.359 49.3646L14.2736 42.7204H15.4012L16.9289 48.2977L18.5778 42.7204H19.7054L21.3179 48.3098L22.8214 42.7204H23.9126L21.8393 49.3646H20.6996L19.0992 44.0905L17.4987 49.3646H16.359ZM27.8325 43.5449C26.7535 43.5449 25.8562 44.2602 25.735 45.5576H29.9301C29.9422 44.2602 28.9722 43.5449 27.8325 43.5449ZM30.9364 47.3156C30.5969 48.528 29.5299 49.4737 27.881 49.4737C25.9896 49.4737 24.5953 48.1401 24.5953 46.0304C24.5953 43.9329 25.9411 42.6113 27.881 42.6113C29.8088 42.6113 31.0697 43.9693 31.0697 45.7879C31.0697 46.0304 31.0576 46.2244 31.0334 46.4548H25.7229C25.8077 47.8006 26.7535 48.5402 27.881 48.5402C28.8752 48.5402 29.5057 48.0309 29.7482 47.3156H30.9364ZM33.6294 45.7515V49.3646H32.5261V42.7204H33.6294V43.7995C34.0053 43.0599 34.7206 42.5992 35.7754 42.5992V43.7389H35.4845C34.4296 43.7389 33.6294 44.2117 33.6294 45.7515ZM41.3848 43.945C41.7849 43.2418 42.6579 42.6113 43.8703 42.6113C45.6526 42.6113 47.0227 43.945 47.0227 46.0183C47.0227 48.0794 45.6526 49.4737 43.8703 49.4737C42.6579 49.4737 41.797 48.819 41.3848 48.1401V52.517H40.2815V42.7204H41.3848V43.945ZM45.8951 46.0183C45.8951 44.4542 44.8645 43.5691 43.6399 43.5691C42.4396 43.5691 41.3848 44.4906 41.3848 46.0304C41.3848 47.5945 42.4396 48.5038 43.6399 48.5038C44.8645 48.5038 45.8951 47.5823 45.8951 46.0183ZM48.0627 46.0183C48.0627 43.945 49.4328 42.6113 51.2151 42.6113C52.4517 42.6113 53.3005 43.2418 53.6884 43.9329V42.7204H54.8039V49.3646H53.6884V48.1279C53.2883 48.8433 52.4275 49.4737 51.2029 49.4737C49.4328 49.4737 48.0627 48.0794 48.0627 46.0183ZM53.6884 46.0304C53.6884 44.4906 52.6457 43.5691 51.4333 43.5691C50.2208 43.5691 49.1903 44.4542 49.1903 46.0183C49.1903 47.5823 50.2208 48.5038 51.4333 48.5038C52.6457 48.5038 53.6884 47.5945 53.6884 46.0304ZM57.7717 45.7515V49.3646H56.6684V42.7204H57.7717V43.7995C58.1476 43.0599 58.8629 42.5992 59.9177 42.5992V43.7389H59.6268C58.5719 43.7389 57.7717 44.2117 57.7717 45.7515ZM61.1914 49.3646V40.3925H62.2947V45.6667L64.8529 42.7204H66.3927L63.2646 46.0304L66.4049 49.3646H64.9014L62.2947 46.4305V49.3646H61.1914ZM67.4312 49.3646V42.7204H68.5345V49.3646H67.4312ZM68.001 41.6414C67.5767 41.6414 67.2493 41.314 67.2493 40.8896C67.2493 40.4653 67.5767 40.1379 68.001 40.1379C68.4011 40.1379 68.7285 40.4653 68.7285 40.8896C68.7285 41.314 68.4011 41.6414 68.001 41.6414ZM75.2768 49.3646V45.6061C75.2768 44.2481 74.5372 43.557 73.4218 43.557C72.2942 43.557 71.5183 44.2602 71.5183 45.6909V49.3646H70.4149V42.7204H71.5183V43.6661C71.9547 42.9751 72.7549 42.5992 73.6522 42.5992C75.192 42.5992 76.368 43.5449 76.368 45.4484V49.3646H75.2768ZM77.7581 46.0183C77.7581 43.945 79.1281 42.6113 80.9104 42.6113C82.1229 42.6113 82.9958 43.2175 83.3838 43.9329V42.7204H84.4993V49.5101C84.4993 51.3409 83.2747 52.6382 81.3227 52.6382C79.5767 52.6382 78.3279 51.7531 78.1097 50.3346H79.2009C79.4434 51.1348 80.2315 51.6804 81.3227 51.6804C82.4987 51.6804 83.3838 50.9287 83.3838 49.5101V48.1158C82.9837 48.8311 82.1229 49.4737 80.9104 49.4737C79.1281 49.4737 77.7581 48.0794 77.7581 46.0183ZM83.3838 46.0304C83.3838 44.4906 82.3411 43.5691 81.1287 43.5691C79.9162 43.5691 78.8856 44.4542 78.8856 46.0183C78.8856 47.5823 79.9162 48.5038 81.1287 48.5038C82.3411 48.5038 83.3838 47.5945 83.3838 46.0304ZM6.2106 60.5581C6.2106 61.6493 5.25278 62.4737 3.78572 62.4737C2.23379 62.4737 1.14259 61.625 1.06985 60.4126H2.20954C2.27017 61.0552 2.84001 61.5402 3.7736 61.5402C4.64655 61.5402 5.13153 61.1037 5.13153 60.5581C5.13153 59.0789 1.20322 59.9397 1.20322 57.4664C1.20322 56.4479 2.16105 55.6113 3.64023 55.6113C5.10728 55.6113 6.07724 56.3994 6.14998 57.6967H5.04666C4.99816 57.0299 4.48894 56.5449 3.60385 56.5449C2.79152 56.5449 2.30654 56.9329 2.30654 57.4664C2.30654 59.0425 6.16211 58.1817 6.2106 60.5581ZM8.87144 56.945C9.27155 56.2418 10.1445 55.6113 11.357 55.6113C13.1392 55.6113 14.5093 56.945 14.5093 59.0183C14.5093 61.0794 13.1392 62.4737 11.357 62.4737C10.1445 62.4737 9.28367 61.819 8.87144 61.1401V65.517H7.76812V55.7204H8.87144V56.945ZM13.3817 59.0183C13.3817 57.4542 12.3512 56.5691 11.1266 56.5691C9.92627 56.5691 8.87144 57.4906 8.87144 59.0304C8.87144 60.5945 9.92627 61.5038 11.1266 61.5038C12.3512 61.5038 13.3817 60.5823 13.3817 59.0183ZM15.5493 59.0183C15.5493 56.945 16.9194 55.6113 18.7017 55.6113C19.9384 55.6113 20.7871 56.2418 21.1751 56.9329V55.7204H22.2905V62.3646H21.1751V61.1279C20.775 61.8433 19.9141 62.4737 18.6896 62.4737C16.9194 62.4737 15.5493 61.0794 15.5493 59.0183ZM21.1751 59.0304C21.1751 57.4906 20.1324 56.5691 18.9199 56.5691C17.7075 56.5691 16.6769 57.4542 16.6769 59.0183C16.6769 60.5823 17.7075 61.5038 18.9199 61.5038C20.1324 61.5038 21.1751 60.5945 21.1751 59.0304ZM23.7428 59.0304C23.7428 56.945 25.0886 55.6113 26.98 55.6113C28.629 55.6113 29.708 56.46 30.0475 57.8543H28.8593C28.629 57.0541 27.9621 56.5449 26.98 56.5449C25.7676 56.5449 24.8704 57.4057 24.8704 59.0304C24.8704 60.6793 25.7676 61.5402 26.98 61.5402C27.9621 61.5402 28.6168 61.0673 28.8593 60.2307H30.0475C29.708 61.5523 28.629 62.4737 26.98 62.4737C25.0886 62.4737 23.7428 61.1401 23.7428 59.0304ZM34.3447 56.5449C33.2656 56.5449 32.3684 57.2602 32.2471 58.5576H36.4422C36.4543 57.2602 35.4844 56.5449 34.3447 56.5449ZM37.4485 60.3156C37.109 61.528 36.0421 62.4737 34.3932 62.4737C32.5018 62.4737 31.1074 61.1401 31.1074 59.0304C31.1074 56.9329 32.4533 55.6113 34.3932 55.6113C36.321 55.6113 37.5819 56.9693 37.5819 58.7879C37.5819 59.0304 37.5698 59.2244 37.5455 59.4548H32.235C32.3199 60.8006 33.2656 61.5402 34.3932 61.5402C35.3874 61.5402 36.0178 61.0309 36.2603 60.3156H37.4485ZM43.8153 60.5581C43.8153 61.6493 42.8574 62.4737 41.3904 62.4737C39.8385 62.4737 38.7473 61.625 38.6745 60.4126H39.8142C39.8748 61.0552 40.4447 61.5402 41.3783 61.5402C42.2512 61.5402 42.7362 61.1037 42.7362 60.5581C42.7362 59.0789 38.8079 59.9397 38.8079 57.4664C38.8079 56.4479 39.7657 55.6113 41.2449 55.6113C42.7119 55.6113 43.6819 56.3994 43.7546 57.6967H42.6513C42.6028 57.0299 42.0936 56.5449 41.2085 56.5449C40.3962 56.5449 39.9112 56.9329 39.9112 57.4664C39.9112 59.0425 43.7668 58.1817 43.8153 60.5581Z" fill="black"/>
<path d="M166.594 49.3646V40.9745H167.783L170.886 47.9097L173.99 40.9745H175.166V49.3646H174.063V43.1084L171.274 49.3646H170.498L167.698 43.0963V49.3646H166.594ZM183.342 46.0304C183.342 48.1401 181.827 49.4737 179.935 49.4737C178.056 49.4737 176.625 48.1401 176.625 46.0304C176.625 43.9329 178.104 42.6113 179.984 42.6113C181.875 42.6113 183.342 43.9329 183.342 46.0304ZM177.753 46.0304C177.753 47.7157 178.783 48.5038 179.935 48.5038C181.087 48.5038 182.215 47.7157 182.215 46.0304C182.215 44.3572 181.111 43.5691 179.972 43.5691C178.808 43.5691 177.753 44.3572 177.753 46.0304ZM185.896 45.7515V49.3646H184.793V42.7204H185.896V43.7995C186.272 43.0599 186.987 42.5992 188.042 42.5992V43.7389H187.751C186.696 43.7389 185.896 44.2117 185.896 45.7515ZM192.141 43.5449C191.062 43.5449 190.164 44.2602 190.043 45.5576H194.238C194.25 44.2602 193.28 43.5449 192.141 43.5449ZM195.245 47.3156C194.905 48.528 193.838 49.4737 192.189 49.4737C190.298 49.4737 188.904 48.1401 188.904 46.0304C188.904 43.9329 190.249 42.6113 192.189 42.6113C194.117 42.6113 195.378 43.9693 195.378 45.7879C195.378 46.0304 195.366 46.2244 195.342 46.4548H190.031C190.116 47.8006 191.062 48.5402 192.189 48.5402C193.183 48.5402 193.814 48.0309 194.056 47.3156H195.245ZM201.17 43.945C201.57 43.2418 202.443 42.6113 203.656 42.6113C205.438 42.6113 206.808 43.945 206.808 46.0183C206.808 48.0794 205.438 49.4737 203.656 49.4737C202.443 49.4737 201.582 48.819 201.17 48.1401V52.517H200.067V42.7204H201.17V43.945ZM205.68 46.0183C205.68 44.4542 204.65 43.5691 203.425 43.5691C202.225 43.5691 201.17 44.4906 201.17 46.0304C201.17 47.5945 202.225 48.5038 203.425 48.5038C204.65 48.5038 205.68 47.5823 205.68 46.0183ZM207.848 46.0183C207.848 43.945 209.218 42.6113 211 42.6113C212.237 42.6113 213.086 43.2418 213.474 43.9329V42.7204H214.589V49.3646H213.474V48.1279C213.074 48.8433 212.213 49.4737 210.988 49.4737C209.218 49.4737 207.848 48.0794 207.848 46.0183ZM213.474 46.0304C213.474 44.4906 212.431 43.5691 211.219 43.5691C210.006 43.5691 208.976 44.4542 208.976 46.0183C208.976 47.5823 210.006 48.5038 211.219 48.5038C212.431 48.5038 213.474 47.5945 213.474 46.0304ZM217.557 45.7515V49.3646H216.454V42.7204H217.557V43.7995C217.933 43.0599 218.648 42.5992 219.703 42.5992V43.7389H219.412C218.357 43.7389 217.557 44.2117 217.557 45.7515ZM220.977 49.3646V40.3925H222.08V45.6667L224.638 42.7204H226.178L223.05 46.0304L226.19 49.3646H224.687L222.08 46.4305V49.3646H220.977ZM227.216 49.3646V42.7204H228.32V49.3646H227.216ZM227.786 41.6414C227.362 41.6414 227.035 41.314 227.035 40.8896C227.035 40.4653 227.362 40.1379 227.786 40.1379C228.186 40.1379 228.514 40.4653 228.514 40.8896C228.514 41.314 228.186 41.6414 227.786 41.6414ZM235.062 49.3646V45.6061C235.062 44.2481 234.323 43.557 233.207 43.557C232.079 43.557 231.304 44.2602 231.304 45.6909V49.3646H230.2V42.7204H231.304V43.6661C231.74 42.9751 232.54 42.5992 233.437 42.5992C234.977 42.5992 236.153 43.5449 236.153 45.4484V49.3646H235.062ZM237.543 46.0183C237.543 43.945 238.913 42.6113 240.696 42.6113C241.908 42.6113 242.781 43.2175 243.169 43.9329V42.7204H244.285V49.5101C244.285 51.3409 243.06 52.6382 241.108 52.6382C239.362 52.6382 238.113 51.7531 237.895 50.3346H238.986C239.229 51.1348 240.017 51.6804 241.108 51.6804C242.284 51.6804 243.169 50.9287 243.169 49.5101V48.1158C242.769 48.8311 241.908 49.4737 240.696 49.4737C238.913 49.4737 237.543 48.0794 237.543 46.0183ZM243.169 46.0304C243.169 44.4906 242.126 43.5691 240.914 43.5691C239.701 43.5691 238.671 44.4542 238.671 46.0183C238.671 47.5823 239.701 48.5038 240.914 48.5038C242.126 48.5038 243.169 47.5945 243.169 46.0304ZM206.987 60.5581C206.987 61.6493 206.029 62.4737 204.562 62.4737C203.01 62.4737 201.919 61.625 201.846 60.4126H202.986C203.046 61.0552 203.616 61.5402 204.55 61.5402C205.423 61.5402 205.908 61.1037 205.908 60.5581C205.908 59.0789 201.979 59.9397 201.979 57.4664C201.979 56.4479 202.937 55.6113 204.416 55.6113C205.884 55.6113 206.853 56.3994 206.926 57.6967H205.823C205.774 57.0299 205.265 56.5449 204.38 56.5449C203.568 56.5449 203.083 56.9329 203.083 57.4664C203.083 59.0425 206.938 58.1817 206.987 60.5581ZM209.648 56.945C210.048 56.2418 210.921 55.6113 212.133 55.6113C213.915 55.6113 215.286 56.945 215.286 59.0183C215.286 61.0794 213.915 62.4737 212.133 62.4737C210.921 62.4737 210.06 61.819 209.648 61.1401V65.517H208.544V55.7204H209.648V56.945ZM214.158 59.0183C214.158 57.4542 213.127 56.5691 211.903 56.5691C210.703 56.5691 209.648 57.4906 209.648 59.0304C209.648 60.5945 210.703 61.5038 211.903 61.5038C213.127 61.5038 214.158 60.5823 214.158 59.0183ZM216.326 59.0183C216.326 56.945 217.696 55.6113 219.478 55.6113C220.715 55.6113 221.563 56.2418 221.951 56.9329V55.7204H223.067V62.3646H221.951V61.1279C221.551 61.8433 220.69 62.4737 219.466 62.4737C217.696 62.4737 216.326 61.0794 216.326 59.0183ZM221.951 59.0304C221.951 57.4906 220.909 56.5691 219.696 56.5691C218.484 56.5691 217.453 57.4542 217.453 59.0183C217.453 60.5823 218.484 61.5038 219.696 61.5038C220.909 61.5038 221.951 60.5945 221.951 59.0304ZM224.519 59.0304C224.519 56.945 225.865 55.6113 227.756 55.6113C229.405 55.6113 230.484 56.46 230.824 57.8543H229.636C229.405 57.0541 228.738 56.5449 227.756 56.5449C226.544 56.5449 225.647 57.4057 225.647 59.0304C225.647 60.6793 226.544 61.5402 227.756 61.5402C228.738 61.5402 229.393 61.0673 229.636 60.2307H230.824C230.484 61.5523 229.405 62.4737 227.756 62.4737C225.865 62.4737 224.519 61.1401 224.519 59.0304ZM235.121 56.5449C234.042 56.5449 233.145 57.2602 233.023 58.5576H237.218C237.231 57.2602 236.261 56.5449 235.121 56.5449ZM238.225 60.3156C237.885 61.528 236.818 62.4737 235.169 62.4737C233.278 62.4737 231.884 61.1401 231.884 59.0304C231.884 56.9329 233.23 55.6113 235.169 55.6113C237.097 55.6113 238.358 56.9693 238.358 58.7879C238.358 59.0304 238.346 59.2244 238.322 59.4548H233.011C233.096 60.8006 234.042 61.5402 235.169 61.5402C236.164 61.5402 236.794 61.0309 237.037 60.3156H238.225ZM244.592 60.5581C244.592 61.6493 243.634 62.4737 242.167 62.4737C240.615 62.4737 239.523 61.625 239.451 60.4126H240.59C240.651 61.0552 241.221 61.5402 242.155 61.5402C243.027 61.5402 243.512 61.1037 243.512 60.5581C243.512 59.0789 239.584 59.9397 239.584 57.4664C239.584 56.4479 240.542 55.6113 242.021 55.6113C243.488 55.6113 244.458 56.3994 244.531 57.6967H243.428C243.379 57.0299 242.87 56.5449 241.985 56.5449C241.172 56.5449 240.687 56.9329 240.687 57.4664C240.687 59.0425 244.543 58.1817 244.592 60.5581Z" fill="black"/>
</svg>
