<svg width="246" height="68" viewBox="0 0 246 68" fill="none" xmlns="http://www.w3.org/2000/svg">
<rect width="35" height="35" transform="matrix(-1 0 0 1 245.5 1.24829)" fill="#BF0978"/>
<rect width="35" height="35" transform="matrix(-1 0 0 1 210.5 1.24829)" fill="#D76FA0"/>
<rect width="35" height="35" transform="matrix(-1 0 0 1 175.5 1.24829)" fill="#E9B3CA"/>
<rect width="35" height="35" transform="matrix(-1 0 0 1 140.5 1.24829)" fill="#F5F5F5"/>
<rect width="35" height="35" transform="matrix(-1 0 0 1 70.5 1.24829)" fill="#7FC8AE"/>
<rect width="35" height="35" transform="matrix(-1 0 0 1 105.5 1.24829)" fill="#BBDFD1"/>
<rect width="35" height="35" transform="matrix(-1 0 0 1 35.5 1.24829)" fill="#32B08C"/>
<path d="M1.43358 50.0939V41.6431H6.2106V42.5404H2.5369V45.3896H5.51951V46.2868H2.5369V50.0939H1.43358ZM10.3681 44.2741C9.28907 44.2741 8.39186 44.9895 8.27062 46.2868H12.4657C12.4778 44.9895 11.5078 44.2741 10.3681 44.2741ZM13.472 48.0448C13.1325 49.2573 12.0656 50.203 10.4166 50.203C8.52523 50.203 7.13092 48.8693 7.13092 46.7597C7.13092 44.6621 8.47674 43.3406 10.4166 43.3406C12.3444 43.3406 13.6054 44.6985 13.6054 46.5172C13.6054 46.7597 13.5932 46.9536 13.569 47.184H8.2585C8.34337 48.5298 9.28907 49.2694 10.4166 49.2694C11.4108 49.2694 12.0413 48.7602 12.2838 48.0448H13.472ZM16.359 50.0939L14.2736 43.4497H15.4012L16.9289 49.0269L18.5778 43.4497H19.7054L21.3179 49.039L22.8214 43.4497H23.9126L21.8393 50.0939H20.6996L19.0992 44.8197L17.4987 50.0939H16.359ZM27.8325 44.2741C26.7535 44.2741 25.8562 44.9895 25.735 46.2868H29.9301C29.9422 44.9895 28.9722 44.2741 27.8325 44.2741ZM30.9364 48.0448C30.5969 49.2573 29.5299 50.203 27.881 50.203C25.9896 50.203 24.5953 48.8693 24.5953 46.7597C24.5953 44.6621 25.9411 43.3406 27.881 43.3406C29.8088 43.3406 31.0697 44.6985 31.0697 46.5172C31.0697 46.7597 31.0576 46.9536 31.0334 47.184H25.7229C25.8077 48.5298 26.7535 49.2694 27.881 49.2694C28.8752 49.2694 29.5057 48.7602 29.7482 48.0448H30.9364ZM33.6294 46.4808V50.0939H32.5261V43.4497H33.6294V44.5288C34.0053 43.7892 34.7206 43.3284 35.7754 43.3284V44.4681H35.4845C34.4296 44.4681 33.6294 44.941 33.6294 46.4808ZM41.3848 44.6743C41.7849 43.971 42.6579 43.3406 43.8703 43.3406C45.6526 43.3406 47.0227 44.6743 47.0227 46.7475C47.0227 48.8087 45.6526 50.203 43.8703 50.203C42.6579 50.203 41.797 49.5483 41.3848 48.8693V53.2462H40.2815V43.4497H41.3848V44.6743ZM45.8951 46.7475C45.8951 45.1835 44.8645 44.2984 43.6399 44.2984C42.4396 44.2984 41.3848 45.2199 41.3848 46.7597C41.3848 48.3237 42.4396 49.233 43.6399 49.233C44.8645 49.233 45.8951 48.3116 45.8951 46.7475ZM51.2999 44.2741C50.2208 44.2741 49.3236 44.9895 49.2024 46.2868H53.3974C53.4096 44.9895 52.4396 44.2741 51.2999 44.2741ZM54.4038 48.0448C54.0643 49.2573 52.9973 50.203 51.3484 50.203C49.457 50.203 48.0627 48.8693 48.0627 46.7597C48.0627 44.6621 49.4085 43.3406 51.3484 43.3406C53.2762 43.3406 54.5371 44.6985 54.5371 46.5172C54.5371 46.7597 54.525 46.9536 54.5008 47.184H49.1903C49.2751 48.5298 50.2208 49.2694 51.3484 49.2694C52.3426 49.2694 52.9731 48.7602 53.2156 48.0448H54.4038ZM62.2982 46.7597C62.2982 48.8693 60.7826 50.203 58.8912 50.203C57.0119 50.203 55.5813 48.8693 55.5813 46.7597C55.5813 44.6621 57.0604 43.3406 58.9397 43.3406C60.8311 43.3406 62.2982 44.6621 62.2982 46.7597ZM56.7088 46.7597C56.7088 48.445 57.7394 49.233 58.8912 49.233C60.0431 49.233 61.1706 48.445 61.1706 46.7597C61.1706 45.0865 60.0673 44.2984 58.9276 44.2984C57.7637 44.2984 56.7088 45.0865 56.7088 46.7597ZM64.8522 44.6743C65.2523 43.971 66.1253 43.3406 67.3377 43.3406C69.12 43.3406 70.49 44.6743 70.49 46.7475C70.49 48.8087 69.12 50.203 67.3377 50.203C66.1253 50.203 65.2644 49.5483 64.8522 48.8693V53.2462H63.7489V43.4497H64.8522V44.6743ZM69.3625 46.7475C69.3625 45.1835 68.3319 44.2984 67.1073 44.2984C65.907 44.2984 64.8522 45.2199 64.8522 46.7597C64.8522 48.3237 65.907 49.233 67.1073 49.233C68.3319 49.233 69.3625 48.3116 69.3625 46.7475ZM71.9423 50.0939V41.1218H73.0456V50.0939H71.9423ZM77.7511 44.2741C76.672 44.2741 75.7748 44.9895 75.6535 46.2868H79.8486C79.8607 44.9895 78.8908 44.2741 77.7511 44.2741ZM80.8549 48.0448C80.5154 49.2573 79.4485 50.203 77.7996 50.203C75.9082 50.203 74.5138 48.8693 74.5138 46.7597C74.5138 44.6621 75.8597 43.3406 77.7996 43.3406C79.7273 43.3406 80.9883 44.6985 80.9883 46.5172C80.9883 46.7597 80.9762 46.9536 80.9519 47.184H75.6414C75.7263 48.5298 76.672 49.2694 77.7996 49.2694C78.7938 49.2694 79.4242 48.7602 79.6667 48.0448H80.8549ZM1.67607 61.2752V57.359H0.815235V56.4497H1.67607V54.7765H2.77939V56.4497H4.51319V57.359H2.77939V61.2752C2.77939 61.9299 3.02188 62.1603 3.70085 62.1603H4.51319V63.0939H3.51898C2.34291 63.0939 1.67607 62.6089 1.67607 61.2752ZM6.95332 59.4808V63.0939H5.85V56.4497H6.95332V57.5288C7.32918 56.7892 8.04452 56.3284 9.09934 56.3284V57.4681H8.80836C7.75353 57.4681 6.95332 57.941 6.95332 59.4808ZM9.96075 59.7475C9.96075 57.6743 11.3308 56.3406 13.1131 56.3406C14.3498 56.3406 15.1985 56.971 15.5865 57.6621V56.4497H16.7019V63.0939H15.5865V61.8572C15.1864 62.5725 14.3255 63.203 13.101 63.203C11.3308 63.203 9.96075 61.8087 9.96075 59.7475ZM15.5865 59.7597C15.5865 58.2199 14.5438 57.2984 13.3313 57.2984C12.1189 57.2984 11.0883 58.1835 11.0883 59.7475C11.0883 61.3116 12.1189 62.233 13.3313 62.233C14.5438 62.233 15.5865 61.3237 15.5865 59.7597ZM17.7783 56.4497H18.9665L21.0398 62.0754L23.101 56.4497H24.277L21.6703 63.0939H20.3851L17.7783 56.4497ZM28.1877 57.2741C27.1087 57.2741 26.2115 57.9895 26.0902 59.2868H30.2853C30.2974 57.9895 29.3274 57.2741 28.1877 57.2741ZM31.2916 61.0448C30.9521 62.2573 29.8852 63.203 28.2362 63.203C26.3448 63.203 24.9505 61.8693 24.9505 59.7597C24.9505 57.6621 26.2963 56.3406 28.2362 56.3406C30.164 56.3406 31.425 57.6985 31.425 59.5172C31.425 59.7597 31.4128 59.9536 31.3886 60.184H26.0781C26.163 61.5298 27.1087 62.2694 28.2362 62.2694C29.2304 62.2694 29.8609 61.7602 30.1034 61.0448H31.2916ZM32.8813 63.0939V54.1218H33.9846V63.0939H32.8813ZM35.8651 63.0939V54.1218H36.9684V63.0939H35.8651ZM38.8488 63.0939V56.4497H39.9521V63.0939H38.8488ZM39.4186 55.3706C38.9943 55.3706 38.6669 55.0433 38.6669 54.6189C38.6669 54.1945 38.9943 53.8672 39.4186 53.8672C39.8188 53.8672 40.1461 54.1945 40.1461 54.6189C40.1461 55.0433 39.8188 55.3706 39.4186 55.3706ZM46.6944 63.0939V59.3353C46.6944 57.9774 45.9548 57.2863 44.8394 57.2863C43.7118 57.2863 42.9359 57.9895 42.9359 59.4202V63.0939H41.8325V56.4497H42.9359V57.3954C43.3723 56.7043 44.1726 56.3284 45.0698 56.3284C46.6096 56.3284 47.7856 57.2741 47.7856 59.1777V63.0939H46.6944ZM49.1757 59.7475C49.1757 57.6743 50.5457 56.3406 52.328 56.3406C53.5405 56.3406 54.4134 56.9468 54.8014 57.6621V56.4497H55.9169V63.2394C55.9169 65.0702 54.6923 66.3675 52.7403 66.3675C50.9943 66.3675 49.7455 65.4824 49.5273 64.0638H50.6185C50.861 64.864 51.6491 65.4096 52.7403 65.4096C53.9163 65.4096 54.8014 64.6579 54.8014 63.2394V61.8451C54.4013 62.5604 53.5405 63.203 52.328 63.203C50.5457 63.203 49.1757 61.8087 49.1757 59.7475ZM54.8014 59.7597C54.8014 58.2199 53.7587 57.2984 52.5463 57.2984C51.3338 57.2984 50.3033 58.1835 50.3033 59.7475C50.3033 61.3116 51.3338 62.233 52.5463 62.233C53.7587 62.233 54.8014 61.3237 54.8014 59.7597ZM67.3185 59.7597C67.3185 61.8693 65.8029 63.203 63.9115 63.203C62.0322 63.203 60.6015 61.8693 60.6015 59.7597C60.6015 57.6621 62.0807 56.3406 63.96 56.3406C65.8514 56.3406 67.3185 57.6621 67.3185 59.7597ZM61.7291 59.7597C61.7291 61.445 62.7597 62.233 63.9115 62.233C65.0633 62.233 66.1909 61.445 66.1909 59.7597C66.1909 58.0865 65.0876 57.2984 63.9479 57.2984C62.7839 57.2984 61.7291 58.0865 61.7291 59.7597ZM73.631 63.0939V59.3353C73.631 57.9774 72.8914 57.2863 71.776 57.2863C70.6484 57.2863 69.8725 57.9895 69.8725 59.4202V63.0939H68.7691V56.4497H69.8725V57.3954C70.3089 56.7043 71.1092 56.3284 72.0064 56.3284C73.5462 56.3284 74.7222 57.2741 74.7222 59.1777V63.0939H73.631ZM79.963 63.0939V57.359H79.1022V56.4497H79.963V55.9768C79.963 54.4977 80.6905 53.8308 82.3879 53.8308V54.7523C81.3937 54.7523 81.0663 55.116 81.0663 55.9768V56.4497H82.4606V57.359H81.0663V63.0939H79.963ZM90.0518 59.7597C90.0518 61.8693 88.5362 63.203 86.6448 63.203C84.7655 63.203 83.3348 61.8693 83.3348 59.7597C83.3348 57.6621 84.814 56.3406 86.6933 56.3406C88.5847 56.3406 90.0518 57.6621 90.0518 59.7597ZM84.4624 59.7597C84.4624 61.445 85.493 62.233 86.6448 62.233C87.7966 62.233 88.9242 61.445 88.9242 59.7597C88.9242 58.0865 87.8209 57.2984 86.6812 57.2984C85.5172 57.2984 84.4624 58.0865 84.4624 59.7597ZM97.8071 59.7597C97.8071 61.8693 96.2916 63.203 94.4002 63.203C92.5209 63.203 91.0902 61.8693 91.0902 59.7597C91.0902 57.6621 92.5694 56.3406 94.4487 56.3406C96.3401 56.3406 97.8071 57.6621 97.8071 59.7597ZM92.2178 59.7597C92.2178 61.445 93.2484 62.233 94.4002 62.233C95.552 62.233 96.6796 61.445 96.6796 59.7597C96.6796 58.0865 95.5762 57.2984 94.4365 57.2984C93.2726 57.2984 92.2178 58.0865 92.2178 59.7597ZM99.5003 61.2752V57.359H98.6395V56.4497H99.5003V54.7765H100.604V56.4497H102.337V57.359H100.604V61.2752C100.604 61.9299 100.846 62.1603 101.525 62.1603H102.337V63.0939H101.343C100.167 63.0939 99.5003 62.6089 99.5003 61.2752Z" fill="black"/>
<path d="M170.513 50.0939V41.7038H171.702L174.805 48.6389L177.909 41.7038H179.085V50.0939H177.982V43.8377L175.193 50.0939H174.418L171.617 43.8255V50.0939H170.513ZM187.261 46.7597C187.261 48.8693 185.746 50.203 183.854 50.203C181.975 50.203 180.544 48.8693 180.544 46.7597C180.544 44.6621 182.024 43.3406 183.903 43.3406C185.794 43.3406 187.261 44.6621 187.261 46.7597ZM181.672 46.7597C181.672 48.445 182.702 49.233 183.854 49.233C185.006 49.233 186.134 48.445 186.134 46.7597C186.134 45.0865 185.03 44.2984 183.891 44.2984C182.727 44.2984 181.672 45.0865 181.672 46.7597ZM189.815 46.4808V50.0939H188.712V43.4497H189.815V44.5288C190.191 43.7892 190.906 43.3284 191.961 43.3284V44.4681H191.67C190.615 44.4681 189.815 44.941 189.815 46.4808ZM196.06 44.2741C194.981 44.2741 194.084 44.9895 193.962 46.2868H198.157C198.17 44.9895 197.2 44.2741 196.06 44.2741ZM199.164 48.0448C198.824 49.2573 197.757 50.203 196.108 50.203C194.217 50.203 192.823 48.8693 192.823 46.7597C192.823 44.6621 194.168 43.3406 196.108 43.3406C198.036 43.3406 199.297 44.6985 199.297 46.5172C199.297 46.7597 199.285 46.9536 199.261 47.184H193.95C194.035 48.5298 194.981 49.2694 196.108 49.2694C197.103 49.2694 197.733 48.7602 197.976 48.0448H199.164ZM205.089 44.6743C205.489 43.971 206.362 43.3406 207.575 43.3406C209.357 43.3406 210.727 44.6743 210.727 46.7475C210.727 48.8087 209.357 50.203 207.575 50.203C206.362 50.203 205.501 49.5483 205.089 48.8693V53.2462H203.986V43.4497H205.089V44.6743ZM209.599 46.7475C209.599 45.1835 208.569 44.2984 207.344 44.2984C206.144 44.2984 205.089 45.2199 205.089 46.7597C205.089 48.3237 206.144 49.233 207.344 49.233C208.569 49.233 209.599 48.3116 209.599 46.7475ZM215.004 44.2741C213.925 44.2741 213.028 44.9895 212.907 46.2868H217.102C217.114 44.9895 216.144 44.2741 215.004 44.2741ZM218.108 48.0448C217.769 49.2573 216.702 50.203 215.053 50.203C213.161 50.203 211.767 48.8693 211.767 46.7597C211.767 44.6621 213.113 43.3406 215.053 43.3406C216.981 43.3406 218.242 44.6985 218.242 46.5172C218.242 46.7597 218.229 46.9536 218.205 47.184H212.895C212.98 48.5298 213.925 49.2694 215.053 49.2694C216.047 49.2694 216.677 48.7602 216.92 48.0448H218.108ZM226.003 46.7597C226.003 48.8693 224.487 50.203 222.596 50.203C220.716 50.203 219.286 48.8693 219.286 46.7597C219.286 44.6621 220.765 43.3406 222.644 43.3406C224.536 43.3406 226.003 44.6621 226.003 46.7597ZM220.413 46.7597C220.413 48.445 221.444 49.233 222.596 49.233C223.747 49.233 224.875 48.445 224.875 46.7597C224.875 45.0865 223.772 44.2984 222.632 44.2984C221.468 44.2984 220.413 45.0865 220.413 46.7597ZM228.557 44.6743C228.957 43.971 229.83 43.3406 231.042 43.3406C232.824 43.3406 234.194 44.6743 234.194 46.7475C234.194 48.8087 232.824 50.203 231.042 50.203C229.83 50.203 228.969 49.5483 228.557 48.8693V53.2462H227.453V43.4497H228.557V44.6743ZM233.067 46.7475C233.067 45.1835 232.036 44.2984 230.812 44.2984C229.611 44.2984 228.557 45.2199 228.557 46.7597C228.557 48.3237 229.611 49.233 230.812 49.233C232.036 49.233 233.067 48.3116 233.067 46.7475ZM235.647 50.0939V41.1218H236.75V50.0939H235.647ZM241.455 44.2741C240.376 44.2741 239.479 44.9895 239.358 46.2868H243.553C243.565 44.9895 242.595 44.2741 241.455 44.2741ZM244.559 48.0448C244.22 49.2573 243.153 50.203 241.504 50.203C239.613 50.203 238.218 48.8693 238.218 46.7597C238.218 44.6621 239.564 43.3406 241.504 43.3406C243.432 43.3406 244.693 44.6985 244.693 46.5172C244.693 46.7597 244.681 46.9536 244.656 47.184H239.346C239.431 48.5298 240.376 49.2694 241.504 49.2694C242.498 49.2694 243.129 48.7602 243.371 48.0448H244.559ZM144.151 61.2752V57.359H143.29V56.4497H144.151V54.7765H145.254V56.4497H146.988V57.359H145.254V61.2752C145.254 61.9299 145.497 62.1603 146.176 62.1603H146.988V63.0939H145.994C144.818 63.0939 144.151 62.6089 144.151 61.2752ZM149.428 59.4808V63.0939H148.325V56.4497H149.428V57.5288C149.804 56.7892 150.519 56.3284 151.574 56.3284V57.4681H151.283C150.228 57.4681 149.428 57.941 149.428 59.4808ZM152.436 59.7475C152.436 57.6743 153.806 56.3406 155.588 56.3406C156.825 56.3406 157.673 56.971 158.061 57.6621V56.4497H159.177V63.0939H158.061V61.8572C157.661 62.5725 156.8 63.203 155.576 63.203C153.806 63.203 152.436 61.8087 152.436 59.7475ZM158.061 59.7597C158.061 58.2199 157.019 57.2984 155.806 57.2984C154.594 57.2984 153.563 58.1835 153.563 59.7475C153.563 61.3116 154.594 62.233 155.806 62.233C157.019 62.233 158.061 61.3237 158.061 59.7597ZM160.253 56.4497H161.441L163.515 62.0754L165.576 56.4497H166.752L164.145 63.0939H162.86L160.253 56.4497ZM170.663 57.2741C169.583 57.2741 168.686 57.9895 168.565 59.2868H172.76C172.772 57.9895 171.802 57.2741 170.663 57.2741ZM173.766 61.0448C173.427 62.2573 172.36 63.203 170.711 63.203C168.82 63.203 167.425 61.8693 167.425 59.7597C167.425 57.6621 168.771 56.3406 170.711 56.3406C172.639 56.3406 173.9 57.6985 173.9 59.5172C173.9 59.7597 173.888 59.9536 173.863 60.184H168.553C168.638 61.5298 169.583 62.2694 170.711 62.2694C171.705 62.2694 172.336 61.7602 172.578 61.0448H173.766ZM175.356 63.0939V54.1218H176.459V63.0939H175.356ZM178.34 63.0939V54.1218H179.443V63.0939H178.34ZM181.324 63.0939V56.4497H182.427V63.0939H181.324ZM181.893 55.3706C181.469 55.3706 181.142 55.0433 181.142 54.6189C181.142 54.1945 181.469 53.8672 181.893 53.8672C182.294 53.8672 182.621 54.1945 182.621 54.6189C182.621 55.0433 182.294 55.3706 181.893 55.3706ZM189.169 63.0939V59.3353C189.169 57.9774 188.43 57.2863 187.314 57.2863C186.187 57.2863 185.411 57.9895 185.411 59.4202V63.0939H184.307V56.4497H185.411V57.3954C185.847 56.7043 186.647 56.3284 187.545 56.3284C189.084 56.3284 190.26 57.2741 190.26 59.1777V63.0939H189.169ZM191.65 59.7475C191.65 57.6743 193.021 56.3406 194.803 56.3406C196.015 56.3406 196.888 56.9468 197.276 57.6621V56.4497H198.392V63.2394C198.392 65.0702 197.167 66.3675 195.215 66.3675C193.469 66.3675 192.22 65.4824 192.002 64.0638H193.093C193.336 64.864 194.124 65.4096 195.215 65.4096C196.391 65.4096 197.276 64.6579 197.276 63.2394V61.8451C196.876 62.5604 196.015 63.203 194.803 63.203C193.021 63.203 191.65 61.8087 191.65 59.7475ZM197.276 59.7597C197.276 58.2199 196.234 57.2984 195.021 57.2984C193.809 57.2984 192.778 58.1835 192.778 59.7475C192.778 61.3116 193.809 62.233 195.021 62.233C196.234 62.233 197.276 61.3237 197.276 59.7597ZM209.793 59.7597C209.793 61.8693 208.278 63.203 206.386 63.203C204.507 63.203 203.076 61.8693 203.076 59.7597C203.076 57.6621 204.556 56.3406 206.435 56.3406C208.326 56.3406 209.793 57.6621 209.793 59.7597ZM204.204 59.7597C204.204 61.445 205.234 62.233 206.386 62.233C207.538 62.233 208.666 61.445 208.666 59.7597C208.666 58.0865 207.562 57.2984 206.423 57.2984C205.259 57.2984 204.204 58.0865 204.204 59.7597ZM216.106 63.0939V59.3353C216.106 57.9774 215.366 57.2863 214.251 57.2863C213.123 57.2863 212.347 57.9895 212.347 59.4202V63.0939H211.244V56.4497H212.347V57.3954C212.784 56.7043 213.584 56.3284 214.481 56.3284C216.021 56.3284 217.197 57.2741 217.197 59.1777V63.0939H216.106ZM222.438 63.0939V57.359H221.577V56.4497H222.438V55.9768C222.438 54.4977 223.165 53.8308 224.863 53.8308V54.7523C223.869 54.7523 223.541 55.116 223.541 55.9768V56.4497H224.935V57.359H223.541V63.0939H222.438ZM232.527 59.7597C232.527 61.8693 231.011 63.203 229.12 63.203C227.24 63.203 225.81 61.8693 225.81 59.7597C225.81 57.6621 227.289 56.3406 229.168 56.3406C231.06 56.3406 232.527 57.6621 232.527 59.7597ZM226.937 59.7597C226.937 61.445 227.968 62.233 229.12 62.233C230.271 62.233 231.399 61.445 231.399 59.7597C231.399 58.0865 230.296 57.2984 229.156 57.2984C227.992 57.2984 226.937 58.0865 226.937 59.7597ZM240.282 59.7597C240.282 61.8693 238.766 63.203 236.875 63.203C234.996 63.203 233.565 61.8693 233.565 59.7597C233.565 57.6621 235.044 56.3406 236.923 56.3406C238.815 56.3406 240.282 57.6621 240.282 59.7597ZM234.693 59.7597C234.693 61.445 235.723 62.233 236.875 62.233C238.027 62.233 239.154 61.445 239.154 59.7597C239.154 58.0865 238.051 57.2984 236.911 57.2984C235.747 57.2984 234.693 58.0865 234.693 59.7597ZM241.975 61.2752V57.359H241.114V56.4497H241.975V54.7765H243.078V56.4497H244.812V57.359H243.078V61.2752C243.078 61.9299 243.321 62.1603 244 62.1603H244.812V63.0939H243.818C242.642 63.0939 241.975 62.6089 241.975 61.2752Z" fill="black"/>
</svg>
