<svg width="246" height="67" viewBox="0 0 246 67" fill="none" xmlns="http://www.w3.org/2000/svg">
<rect width="35" height="35" transform="matrix(-1 0 0 1 245.5 1.24829)" fill="#BF0978"/>
<rect width="35" height="35" transform="matrix(-1 0 0 1 210.5 1.24829)" fill="#D76FA0"/>
<rect width="35" height="35" transform="matrix(-1 0 0 1 175.5 1.24829)" fill="#E9B3CA"/>
<rect width="35" height="35" transform="matrix(-1 0 0 1 140.5 1.24829)" fill="#F5F5F5"/>
<rect width="35" height="35" transform="matrix(-1 0 0 1 70.5 1.24829)" fill="#7FC8AE"/>
<rect width="35" height="35" transform="matrix(-1 0 0 1 105.5 1.24829)" fill="#BBDFD1"/>
<rect width="35" height="35" transform="matrix(-1 0 0 1 35.5 1.24829)" fill="#32B08C"/>
<path d="M1.43358 41.6431H2.5369V49.1967H5.49526V50.0939H1.43358V41.6431ZM12.9717 46.7597C12.9717 48.8693 11.4561 50.203 9.56471 50.203C7.68543 50.203 6.25474 48.8693 6.25474 46.7597C6.25474 44.6621 7.73392 43.3406 9.61321 43.3406C11.5046 43.3406 12.9717 44.6621 12.9717 46.7597ZM7.38232 46.7597C7.38232 48.445 8.41289 49.233 9.56471 49.233C10.7165 49.233 11.8441 48.445 11.8441 46.7597C11.8441 45.0865 10.7408 44.2984 9.60109 44.2984C8.43714 44.2984 7.38232 45.0865 7.38232 46.7597ZM15.7197 50.0939L13.6343 43.4497H14.7618L16.2895 49.0269L17.9384 43.4497H19.066L20.6785 49.039L22.182 43.4497H23.2732L21.1999 50.0939H20.0602L18.4598 44.8197L16.8594 50.0939H15.7197ZM27.1932 44.2741C26.1141 44.2741 25.2169 44.9895 25.0956 46.2868H29.2907C29.3028 44.9895 28.3328 44.2741 27.1932 44.2741ZM30.297 48.0448C29.9575 49.2573 28.8906 50.203 27.2417 50.203C25.3502 50.203 23.9559 48.8693 23.9559 46.7597C23.9559 44.6621 25.3017 43.3406 27.2417 43.3406C29.1694 43.3406 30.4304 44.6985 30.4304 46.5172C30.4304 46.7597 30.4183 46.9536 30.394 47.184H25.0835C25.1684 48.5298 26.1141 49.2694 27.2417 49.2694C28.2359 49.2694 28.8663 48.7602 29.1088 48.0448H30.297ZM32.9901 46.4808V50.0939H31.8867V43.4497H32.9901V44.5288C33.3659 43.7892 34.0812 43.3284 35.1361 43.3284V44.4681H34.8451C33.7903 44.4681 32.9901 44.941 32.9901 46.4808ZM40.7454 45.6563H42.3701C43.631 45.6563 44.1645 45.0622 44.1645 44.1165C44.1645 43.1345 43.631 42.5525 42.3701 42.5525H40.7454V45.6563ZM45.2921 44.1165C45.2921 45.4017 44.4676 46.5657 42.3701 46.5657H40.7454V50.0939H39.6421V41.6431H42.3701C44.3585 41.6431 45.2921 42.7343 45.2921 44.1165ZM46.6634 50.0939V41.7038H47.8516L50.9554 48.6389L54.0593 41.7038H55.2353V50.0939H54.132V43.8377L51.3434 50.0939H50.5674L47.7667 43.8255V50.0939H46.6634ZM56.7912 49.9969V49.2088C59.0949 47.3538 61.2773 45.6078 61.2773 43.8134C61.2773 42.8435 60.8529 42.116 59.6647 42.116C58.525 42.116 57.9431 42.9041 57.8946 44.0074H56.8276C56.9004 42.1402 58.0764 41.1703 59.6526 41.1703C61.3015 41.1703 62.3685 42.1402 62.3685 43.7649C62.3685 45.9473 60.0163 47.8024 58.4523 49.0754H62.6231V49.9969H56.7912ZM65.1595 49.4149C65.1595 49.8393 64.8321 50.1666 64.432 50.1666C64.0076 50.1666 63.6803 49.8393 63.6803 49.4149C63.6803 48.9905 64.0076 48.6632 64.432 48.6632C64.8321 48.6632 65.1595 48.9905 65.1595 49.4149ZM66.7594 41.3158H72.0335V42.2857H67.7779V45.0501C68.1416 44.553 68.9176 44.165 69.7784 44.165C71.9123 44.165 72.5913 45.7048 72.5913 47.0628C72.5913 48.7602 71.6456 50.1181 69.5965 50.1181C67.8506 50.1181 66.7958 49.136 66.5775 47.7175H67.6566C67.8627 48.6389 68.5781 49.1845 69.6087 49.1845C70.9423 49.1845 71.5364 48.2873 71.5364 47.087C71.5364 45.8382 70.8938 45.1107 69.6208 45.1107C68.7357 45.1107 68.0931 45.5715 67.8021 46.2626H66.7594V41.3158ZM1.02135 59.7475C1.02135 57.6743 2.39141 56.3406 4.1737 56.3406C5.41039 56.3406 6.2591 56.971 6.64708 57.6621V56.4497H7.76253V63.0939H6.64708V61.8572C6.24698 62.5725 5.38614 63.203 4.16158 63.203C2.39141 63.203 1.02135 61.8087 1.02135 59.7475ZM6.64708 59.7597C6.64708 58.2199 5.60438 57.2984 4.39194 57.2984C3.1795 57.2984 2.14892 58.1835 2.14892 59.7475C2.14892 61.3116 3.1795 62.233 4.39194 62.233C5.60438 62.233 6.64708 61.3237 6.64708 59.7597ZM9.62704 63.0939V56.4497H10.7304V63.0939H9.62704ZM10.1969 55.3706C9.77253 55.3706 9.44517 55.0433 9.44517 54.6189C9.44517 54.1945 9.77253 53.8672 10.1969 53.8672C10.597 53.8672 10.9244 54.1945 10.9244 54.6189C10.9244 55.0433 10.597 55.3706 10.1969 55.3706ZM13.7141 59.4808V63.0939H12.6108V56.4497H13.7141V57.5288C14.09 56.7892 14.8053 56.3284 15.8601 56.3284V57.4681H15.5691C14.5143 57.4681 13.7141 57.941 13.7141 59.4808ZM21.4695 57.6743C21.8696 56.971 22.7425 56.3406 23.955 56.3406C25.7373 56.3406 27.1073 57.6743 27.1073 59.7475C27.1073 61.8087 25.7373 63.203 23.955 63.203C22.7425 63.203 21.8817 62.5483 21.4695 61.8693V66.2462H20.3662V56.4497H21.4695V57.6743ZM25.9798 59.7475C25.9798 58.1835 24.9492 57.2984 23.7246 57.2984C22.5243 57.2984 21.4695 58.2199 21.4695 59.7597C21.4695 61.3237 22.5243 62.233 23.7246 62.233C24.9492 62.233 25.9798 61.3116 25.9798 59.7475ZM34.8643 59.7597C34.8643 61.8693 33.3488 63.203 31.4574 63.203C29.5781 63.203 28.1474 61.8693 28.1474 59.7597C28.1474 57.6621 29.6266 56.3406 31.5059 56.3406C33.3973 56.3406 34.8643 57.6621 34.8643 59.7597ZM29.275 59.7597C29.275 61.445 30.3055 62.233 31.4574 62.233C32.6092 62.233 33.7367 61.445 33.7367 59.7597C33.7367 58.0865 32.6334 57.2984 31.4937 57.2984C30.3298 57.2984 29.275 58.0865 29.275 59.7597ZM36.315 63.0939V54.1218H37.4183V63.0939H36.315ZM39.2987 63.0939V54.1218H40.4021V63.0939H39.2987ZM48.1749 56.4497V63.0939H47.0716V62.1118C46.6473 62.8029 45.8349 63.1909 44.9499 63.1909C43.4222 63.1909 42.2219 62.2452 42.2219 60.3416V56.4497H43.3131V60.1961C43.3131 61.5419 44.0526 62.233 45.1681 62.233C46.3078 62.233 47.0716 61.5298 47.0716 60.0991V56.4497H48.1749ZM50.2803 61.2752V57.359H49.4195V56.4497H50.2803V54.7765H51.3837V56.4497H53.1175V57.359H51.3837V61.2752C51.3837 61.9299 51.6261 62.1603 52.3051 62.1603H53.1175V63.0939H52.1232C50.9472 63.0939 50.2803 62.6089 50.2803 61.2752ZM54.4543 63.0939V56.4497H55.5576V63.0939H54.4543ZM55.0241 55.3706C54.5998 55.3706 54.2724 55.0433 54.2724 54.6189C54.2724 54.1945 54.5998 53.8672 55.0241 53.8672C55.4242 53.8672 55.7516 54.1945 55.7516 54.6189C55.7516 55.0433 55.4242 55.3706 55.0241 55.3706ZM63.7427 59.7597C63.7427 61.8693 62.2272 63.203 60.3357 63.203C58.4565 63.203 57.0258 61.8693 57.0258 59.7597C57.0258 57.6621 58.505 56.3406 60.3842 56.3406C62.2757 56.3406 63.7427 57.6621 63.7427 59.7597ZM58.1534 59.7597C58.1534 61.445 59.1839 62.233 60.3357 62.233C61.4876 62.233 62.6151 61.445 62.6151 59.7597C62.6151 58.0865 61.5118 57.2984 60.3721 57.2984C59.2082 57.2984 58.1534 58.0865 58.1534 59.7597ZM70.0553 63.0939V59.3353C70.0553 57.9774 69.3157 57.2863 68.2002 57.2863C67.0727 57.2863 66.2967 57.9895 66.2967 59.4202V63.0939H65.1934V56.4497H66.2967V57.3954C66.7332 56.7043 67.5334 56.3284 68.4306 56.3284C69.9704 56.3284 71.1465 57.2741 71.1465 59.1777V63.0939H70.0553Z" fill="black"/>
<path d="M171.137 50.0939V46.2626H166.833V50.0939H165.73V41.6431H166.833V45.3532H171.137V41.6431H172.241V50.0939H171.137ZM174.113 50.0939V43.4497H175.216V50.0939H174.113ZM174.683 42.3706C174.258 42.3706 173.931 42.0433 173.931 41.6189C173.931 41.1945 174.258 40.8672 174.683 40.8672C175.083 40.8672 175.41 41.1945 175.41 41.6189C175.41 42.0433 175.083 42.3706 174.683 42.3706ZM176.684 46.7475C176.684 44.6743 178.054 43.3406 179.837 43.3406C181.049 43.3406 181.922 43.9468 182.31 44.6621V43.4497H183.426V50.2394C183.426 52.0702 182.201 53.3675 180.249 53.3675C178.503 53.3675 177.254 52.4824 177.036 51.0638H178.127C178.37 51.864 179.158 52.4096 180.249 52.4096C181.425 52.4096 182.31 51.6579 182.31 50.2394V48.8451C181.91 49.5604 181.049 50.203 179.837 50.203C178.054 50.203 176.684 48.8087 176.684 46.7475ZM182.31 46.7597C182.31 45.2199 181.267 44.2984 180.055 44.2984C178.843 44.2984 177.812 45.1835 177.812 46.7475C177.812 48.3116 178.843 49.233 180.055 49.233C181.267 49.233 182.31 48.3237 182.31 46.7597ZM185.29 50.0939V41.1218H186.393V44.4075C186.83 43.7043 187.654 43.3284 188.588 43.3284C190.067 43.3284 191.243 44.2741 191.243 46.1777V50.0939H190.152V46.3353C190.152 44.9774 189.412 44.2863 188.297 44.2863C187.169 44.2863 186.393 44.9895 186.393 46.4202V50.0939H185.29ZM195.87 44.2741C194.791 44.2741 193.894 44.9895 193.773 46.2868H197.968C197.98 44.9895 197.01 44.2741 195.87 44.2741ZM198.974 48.0448C198.635 49.2573 197.568 50.203 195.919 50.203C194.028 50.203 192.633 48.8693 192.633 46.7597C192.633 44.6621 193.979 43.3406 195.919 43.3406C197.847 43.3406 199.108 44.6985 199.108 46.5172C199.108 46.7597 199.096 46.9536 199.071 47.184H193.761C193.846 48.5298 194.791 49.2694 195.919 49.2694C196.913 49.2694 197.544 48.7602 197.786 48.0448H198.974ZM201.667 46.4808V50.0939H200.564V43.4497H201.667V44.5288C202.043 43.7892 202.759 43.3284 203.813 43.3284V44.4681H203.522C202.468 44.4681 201.667 44.941 201.667 46.4808ZM209.423 45.6563H211.047C212.308 45.6563 212.842 45.0622 212.842 44.1165C212.842 43.1345 212.308 42.5525 211.047 42.5525H209.423V45.6563ZM213.969 44.1165C213.969 45.4017 213.145 46.5657 211.047 46.5657H209.423V50.0939H208.319V41.6431H211.047C213.036 41.6431 213.969 42.7343 213.969 44.1165ZM215.341 50.0939V41.7038H216.529L219.633 48.6389L222.737 41.7038H223.913V50.0939H222.809V43.8377L220.021 50.0939H219.245L216.444 43.8255V50.0939H215.341ZM225.469 49.9969V49.2088C227.772 47.3538 229.955 45.6078 229.955 43.8134C229.955 42.8435 229.53 42.116 228.342 42.116C227.202 42.116 226.62 42.9041 226.572 44.0074H225.505C225.578 42.1402 226.754 41.1703 228.33 41.1703C229.979 41.1703 231.046 42.1402 231.046 43.7649C231.046 45.9473 228.694 47.8024 227.13 49.0754H231.3V49.9969H225.469ZM233.837 49.4149C233.837 49.8393 233.509 50.1666 233.109 50.1666C232.685 50.1666 232.358 49.8393 232.358 49.4149C232.358 48.9905 232.685 48.6632 233.109 48.6632C233.509 48.6632 233.837 48.9905 233.837 49.4149ZM235.437 41.3158H240.711V42.2857H236.455V45.0501C236.819 44.553 237.595 44.165 238.456 44.165C240.59 44.165 241.269 45.7048 241.269 47.0628C241.269 48.7602 240.323 50.1181 238.274 50.1181C236.528 50.1181 235.473 49.136 235.255 47.7175H236.334C236.54 48.6389 237.255 49.1845 238.286 49.1845C239.62 49.1845 240.214 48.2873 240.214 47.087C240.214 45.8382 239.571 45.1107 238.298 45.1107C237.413 45.1107 236.77 45.5715 236.479 46.2626H235.437V41.3158ZM174.222 59.7475C174.222 57.6743 175.592 56.3406 177.374 56.3406C178.611 56.3406 179.459 56.971 179.847 57.6621V56.4497H180.963V63.0939H179.847V61.8572C179.447 62.5725 178.586 63.203 177.362 63.203C175.592 63.203 174.222 61.8087 174.222 59.7475ZM179.847 59.7597C179.847 58.2199 178.805 57.2984 177.592 57.2984C176.38 57.2984 175.349 58.1835 175.349 59.7475C175.349 61.3116 176.38 62.233 177.592 62.233C178.805 62.233 179.847 61.3237 179.847 59.7597ZM182.827 63.0939V56.4497H183.931V63.0939H182.827ZM183.397 55.3706C182.973 55.3706 182.645 55.0433 182.645 54.6189C182.645 54.1945 182.973 53.8672 183.397 53.8672C183.797 53.8672 184.125 54.1945 184.125 54.6189C184.125 55.0433 183.797 55.3706 183.397 55.3706ZM186.914 59.4808V63.0939H185.811V56.4497H186.914V57.5288C187.29 56.7892 188.006 56.3284 189.06 56.3284V57.4681H188.769C187.715 57.4681 186.914 57.941 186.914 59.4808ZM194.67 57.6743C195.07 56.971 195.943 56.3406 197.155 56.3406C198.938 56.3406 200.308 57.6743 200.308 59.7475C200.308 61.8087 198.938 63.203 197.155 63.203C195.943 63.203 195.082 62.5483 194.67 61.8693V66.2462H193.566V56.4497H194.67V57.6743ZM199.18 59.7475C199.18 58.1835 198.149 57.2984 196.925 57.2984C195.725 57.2984 194.67 58.2199 194.67 59.7597C194.67 61.3237 195.725 62.233 196.925 62.233C198.149 62.233 199.18 61.3116 199.18 59.7475ZM208.065 59.7597C208.065 61.8693 206.549 63.203 204.658 63.203C202.778 63.203 201.348 61.8693 201.348 59.7597C201.348 57.6621 202.827 56.3406 204.706 56.3406C206.598 56.3406 208.065 57.6621 208.065 59.7597ZM202.475 59.7597C202.475 61.445 203.506 62.233 204.658 62.233C205.809 62.233 206.937 61.445 206.937 59.7597C206.937 58.0865 205.834 57.2984 204.694 57.2984C203.53 57.2984 202.475 58.0865 202.475 59.7597ZM209.515 63.0939V54.1218H210.619V63.0939H209.515ZM212.499 63.0939V54.1218H213.602V63.0939H212.499ZM221.375 56.4497V63.0939H220.272V62.1118C219.848 62.8029 219.035 63.1909 218.15 63.1909C216.622 63.1909 215.422 62.2452 215.422 60.3416V56.4497H216.513V60.1961C216.513 61.5419 217.253 62.233 218.368 62.233C219.508 62.233 220.272 61.5298 220.272 60.0991V56.4497H221.375ZM223.481 61.2752V57.359H222.62V56.4497H223.481V54.7765H224.584V56.4497H226.318V57.359H224.584V61.2752C224.584 61.9299 224.826 62.1603 225.505 62.1603H226.318V63.0939H225.324C224.147 63.0939 223.481 62.6089 223.481 61.2752ZM227.655 63.0939V56.4497H228.758V63.0939H227.655ZM228.224 55.3706C227.8 55.3706 227.473 55.0433 227.473 54.6189C227.473 54.1945 227.8 53.8672 228.224 53.8672C228.624 53.8672 228.952 54.1945 228.952 54.6189C228.952 55.0433 228.624 55.3706 228.224 55.3706ZM236.943 59.7597C236.943 61.8693 235.427 63.203 233.536 63.203C231.657 63.203 230.226 61.8693 230.226 59.7597C230.226 57.6621 231.705 56.3406 233.585 56.3406C235.476 56.3406 236.943 57.6621 236.943 59.7597ZM231.354 59.7597C231.354 61.445 232.384 62.233 233.536 62.233C234.688 62.233 235.815 61.445 235.815 59.7597C235.815 58.0865 234.712 57.2984 233.572 57.2984C232.408 57.2984 231.354 58.0865 231.354 59.7597ZM243.256 63.0939V59.3353C243.256 57.9774 242.516 57.2863 241.401 57.2863C240.273 57.2863 239.497 57.9895 239.497 59.4202V63.0939H238.394V56.4497H239.497V57.3954C239.933 56.7043 240.734 56.3284 241.631 56.3284C243.171 56.3284 244.347 57.2741 244.347 59.1777V63.0939H243.256Z" fill="black"/>
</svg>
