<svg width="246" height="54" viewBox="0 0 246 54" fill="none" xmlns="http://www.w3.org/2000/svg">
<rect width="35" height="35" transform="matrix(-1 0 0 1 245.5 0.883667)" fill="#BF0978"/>
<rect width="35" height="35" transform="matrix(-1 0 0 1 210.5 0.883667)" fill="#D76FA0"/>
<rect width="35" height="35" transform="matrix(-1 0 0 1 175.5 0.883667)" fill="#E9B3CA"/>
<rect width="35" height="35" transform="matrix(-1 0 0 1 140.5 0.883667)" fill="#F5F5F5"/>
<rect width="35" height="35" transform="matrix(-1 0 0 1 70.5 0.883667)" fill="#7FC8AE"/>
<rect width="35" height="35" transform="matrix(-1 0 0 1 105.5 0.883667)" fill="#BBDFD1"/>
<rect width="35" height="35" transform="matrix(-1 0 0 1 35.5 0.883667)" fill="#32B08C"/>
<path d="M1.43358 41.2785H2.5369V48.832H5.49526V49.7292H1.43358V41.2785ZM9.49197 43.9095C8.41289 43.9095 7.51569 44.6249 7.39444 45.9222H11.5895C11.6016 44.6249 10.6317 43.9095 9.49197 43.9095ZM12.5958 47.6802C12.2563 48.8927 11.1894 49.8384 9.54046 49.8384C7.64905 49.8384 6.25474 48.5047 6.25474 46.395C6.25474 44.2975 7.60056 42.9759 9.54046 42.9759C11.4682 42.9759 12.7292 44.3339 12.7292 46.1525C12.7292 46.395 12.7171 46.589 12.6928 46.8194H7.38232C7.46719 48.1652 8.41289 48.9048 9.54046 48.9048C10.5347 48.9048 11.1651 48.3956 11.4076 47.6802H12.5958ZM18.9626 47.9227C18.9626 49.0139 18.0047 49.8384 16.5377 49.8384C14.9858 49.8384 13.8946 48.9897 13.8218 47.7772H14.9615C15.0221 48.4198 15.592 48.9048 16.5256 48.9048C17.3985 48.9048 17.8835 48.4683 17.8835 47.9227C17.8835 46.4435 13.9552 47.3044 13.9552 44.831C13.9552 43.8125 14.913 42.9759 16.3922 42.9759C17.8592 42.9759 18.8292 43.764 18.9019 45.0613H17.7986C17.7501 44.3945 17.2409 43.9095 16.3558 43.9095C15.5435 43.9095 15.0585 44.2975 15.0585 44.831C15.0585 46.4072 18.9141 45.5463 18.9626 47.9227ZM25.2971 47.9227C25.2971 49.0139 24.3393 49.8384 22.8722 49.8384C21.3203 49.8384 20.2291 48.9897 20.1563 47.7772H21.296C21.3567 48.4198 21.9265 48.9048 22.8601 48.9048C23.7331 48.9048 24.218 48.4683 24.218 47.9227C24.218 46.4435 20.2897 47.3044 20.2897 44.831C20.2897 43.8125 21.2475 42.9759 22.7267 42.9759C24.1938 42.9759 25.1637 43.764 25.2365 45.0613H24.1332C24.0847 44.3945 23.5754 43.9095 22.6904 43.9095C21.878 43.9095 21.393 44.2975 21.393 44.831C21.393 46.4072 25.2486 45.5463 25.2971 47.9227ZM31.1903 46.1162V49.7292H30.087V43.0851H31.1903V44.1641C31.5662 43.4245 32.2815 42.9638 33.3364 42.9638V44.1035H33.0454C31.9905 44.1035 31.1903 44.5764 31.1903 46.1162ZM40.9147 46.395C40.9147 48.5047 39.3991 49.8384 37.5077 49.8384C35.6284 49.8384 34.1978 48.5047 34.1978 46.395C34.1978 44.2975 35.6769 42.9759 37.5562 42.9759C39.4476 42.9759 40.9147 44.2975 40.9147 46.395ZM35.3253 46.395C35.3253 48.0803 36.3559 48.8684 37.5077 48.8684C38.6595 48.8684 39.7871 48.0803 39.7871 46.395C39.7871 44.7219 38.6838 43.9338 37.5441 43.9338C36.3802 43.9338 35.3253 44.7219 35.3253 46.395ZM41.9531 46.3829C41.9531 44.3096 43.3232 42.9759 45.1055 42.9759C46.3422 42.9759 47.1909 43.6064 47.5789 44.2975V43.0851H48.6943V49.7292H47.5789V48.4926C47.1788 49.2079 46.3179 49.8384 45.0934 49.8384C43.3232 49.8384 41.9531 48.4441 41.9531 46.3829ZM47.5789 46.395C47.5789 44.8552 46.5362 43.9338 45.3237 43.9338C44.1113 43.9338 43.0807 44.8189 43.0807 46.3829C43.0807 47.947 44.1113 48.8684 45.3237 48.8684C46.5362 48.8684 47.5789 47.9591 47.5789 46.395ZM50.1466 46.3829C50.1466 44.3096 51.5166 42.9759 53.3111 42.9759C54.3538 42.9759 55.3116 43.5094 55.7723 44.2733V40.7572H56.8878V49.7292H55.7723V48.4804C55.3722 49.22 54.5114 49.8384 53.2989 49.8384C51.5166 49.8384 50.1466 48.4441 50.1466 46.3829ZM55.7723 46.395C55.7723 44.8552 54.7296 43.9338 53.5172 43.9338C52.3047 43.9338 51.2742 44.8189 51.2742 46.3829C51.2742 47.947 52.3047 48.8684 53.5172 48.8684C54.7296 48.8684 55.7723 47.9591 55.7723 46.395ZM66.8466 49.7292V45.9707C66.8466 44.6127 66.107 43.9216 64.9915 43.9216C63.864 43.9216 63.088 44.6249 63.088 46.0555V49.7292H61.9847V43.0851H63.088V44.0308C63.5245 43.3397 64.3247 42.9638 65.2219 42.9638C66.7617 42.9638 67.9378 43.9095 67.9378 45.8131V49.7292H66.8466ZM76.0447 46.395C76.0447 48.5047 74.5292 49.8384 72.6378 49.8384C70.7585 49.8384 69.3278 48.5047 69.3278 46.395C69.3278 44.2975 70.807 42.9759 72.6863 42.9759C74.5777 42.9759 76.0447 44.2975 76.0447 46.395ZM70.4554 46.395C70.4554 48.0803 71.486 48.8684 72.6378 48.8684C73.7896 48.8684 74.9172 48.0803 74.9172 46.395C74.9172 44.7219 73.8138 43.9338 72.6741 43.9338C71.5102 43.9338 70.4554 44.7219 70.4554 46.395ZM77.4954 49.7292V43.0851H78.5987V49.7292H77.4954ZM78.0653 42.006C77.6409 42.006 77.3135 41.6786 77.3135 41.2543C77.3135 40.8299 77.6409 40.5026 78.0653 40.5026C78.4654 40.5026 78.7927 40.8299 78.7927 41.2543C78.7927 41.6786 78.4654 42.006 78.0653 42.006ZM85.2562 47.9227C85.2562 49.0139 84.2983 49.8384 82.8313 49.8384C81.2794 49.8384 80.1882 48.9897 80.1154 47.7772H81.2551C81.3157 48.4198 81.8856 48.9048 82.8192 48.9048C83.6921 48.9048 84.1771 48.4683 84.1771 47.9227C84.1771 46.4435 80.2488 47.3044 80.2488 44.831C80.2488 43.8125 81.2066 42.9759 82.6858 42.9759C84.1529 42.9759 85.1228 43.764 85.1956 45.0613H84.0922C84.0437 44.3945 83.5345 43.9095 82.6494 43.9095C81.8371 43.9095 81.3521 44.2975 81.3521 44.831C81.3521 46.4072 85.2077 45.5463 85.2562 47.9227ZM89.6387 43.9095C88.5596 43.9095 87.6624 44.6249 87.5412 45.9222H91.7362C91.7483 44.6249 90.7784 43.9095 89.6387 43.9095ZM92.7425 47.6802C92.4031 48.8927 91.3361 49.8384 89.6872 49.8384C87.7958 49.8384 86.4015 48.5047 86.4015 46.395C86.4015 44.2975 87.7473 42.9759 89.6872 42.9759C91.615 42.9759 92.8759 44.3339 92.8759 46.1525C92.8759 46.395 92.8638 46.589 92.8395 46.8194H87.529C87.6139 48.1652 88.5596 48.9048 89.6872 48.9048C90.6814 48.9048 91.3119 48.3956 91.5543 47.6802H92.7425Z" fill="black"/>
<path d="M148.431 49.7292V41.3391H149.62L152.723 48.2743L155.827 41.3391H157.003V49.7292H155.9V43.473L153.111 49.7292H152.335L149.535 43.4609V49.7292H148.431ZM165.179 46.395C165.179 48.5047 163.664 49.8384 161.772 49.8384C159.893 49.8384 158.462 48.5047 158.462 46.395C158.462 44.2975 159.941 42.9759 161.821 42.9759C163.712 42.9759 165.179 44.2975 165.179 46.395ZM159.59 46.395C159.59 48.0803 160.62 48.8684 161.772 48.8684C162.924 48.8684 164.052 48.0803 164.052 46.395C164.052 44.7219 162.948 43.9338 161.809 43.9338C160.645 43.9338 159.59 44.7219 159.59 46.395ZM167.733 46.1162V49.7292H166.63V43.0851H167.733V44.1641C168.109 43.4245 168.824 42.9638 169.879 42.9638V44.1035H169.588C168.533 44.1035 167.733 44.5764 167.733 46.1162ZM173.978 43.9095C172.899 43.9095 172.002 44.6249 171.88 45.9222H176.075C176.087 44.6249 175.118 43.9095 173.978 43.9095ZM177.082 47.6802C176.742 48.8927 175.675 49.8384 174.026 49.8384C172.135 49.8384 170.741 48.5047 170.741 46.395C170.741 44.2975 172.086 42.9759 174.026 42.9759C175.954 42.9759 177.215 44.3339 177.215 46.1525C177.215 46.395 177.203 46.589 177.179 46.8194H171.868C171.953 48.1652 172.899 48.9048 174.026 48.9048C175.021 48.9048 175.651 48.3956 175.893 47.6802H177.082ZM183.007 46.1162V49.7292H181.904V43.0851H183.007V44.1641C183.383 43.4245 184.098 42.9638 185.153 42.9638V44.1035H184.862C183.807 44.1035 183.007 44.5764 183.007 46.1162ZM192.731 46.395C192.731 48.5047 191.216 49.8384 189.324 49.8384C187.445 49.8384 186.015 48.5047 186.015 46.395C186.015 44.2975 187.494 42.9759 189.373 42.9759C191.264 42.9759 192.731 44.2975 192.731 46.395ZM187.142 46.395C187.142 48.0803 188.173 48.8684 189.324 48.8684C190.476 48.8684 191.604 48.0803 191.604 46.395C191.604 44.7219 190.501 43.9338 189.361 43.9338C188.197 43.9338 187.142 44.7219 187.142 46.395ZM193.77 46.3829C193.77 44.3096 195.14 42.9759 196.922 42.9759C198.159 42.9759 199.008 43.6064 199.396 44.2975V43.0851H200.511V49.7292H199.396V48.4926C198.996 49.2079 198.135 49.8384 196.91 49.8384C195.14 49.8384 193.77 48.4441 193.77 46.3829ZM199.396 46.395C199.396 44.8552 198.353 43.9338 197.14 43.9338C195.928 43.9338 194.897 44.8189 194.897 46.3829C194.897 47.947 195.928 48.8684 197.14 48.8684C198.353 48.8684 199.396 47.9591 199.396 46.395ZM201.963 46.3829C201.963 44.3096 203.333 42.9759 205.128 42.9759C206.171 42.9759 207.128 43.5094 207.589 44.2733V40.7572H208.705V49.7292H207.589V48.4804C207.189 49.22 206.328 49.8384 205.116 49.8384C203.333 49.8384 201.963 48.4441 201.963 46.3829ZM207.589 46.395C207.589 44.8552 206.546 43.9338 205.334 43.9338C204.122 43.9338 203.091 44.8189 203.091 46.3829C203.091 47.947 204.122 48.8684 205.334 48.8684C206.546 48.8684 207.589 47.9591 207.589 46.395ZM218.663 49.7292V45.9707C218.663 44.6127 217.924 43.9216 216.808 43.9216C215.681 43.9216 214.905 44.6249 214.905 46.0555V49.7292H213.801V43.0851H214.905V44.0308C215.341 43.3397 216.141 42.9638 217.039 42.9638C218.578 42.9638 219.755 43.9095 219.755 45.8131V49.7292H218.663ZM227.862 46.395C227.862 48.5047 226.346 49.8384 224.455 49.8384C222.575 49.8384 221.145 48.5047 221.145 46.395C221.145 44.2975 222.624 42.9759 224.503 42.9759C226.394 42.9759 227.862 44.2975 227.862 46.395ZM222.272 46.395C222.272 48.0803 223.303 48.8684 224.455 48.8684C225.606 48.8684 226.734 48.0803 226.734 46.395C226.734 44.7219 225.631 43.9338 224.491 43.9338C223.327 43.9338 222.272 44.7219 222.272 46.395ZM229.312 49.7292V43.0851H230.416V49.7292H229.312ZM229.882 42.006C229.458 42.006 229.13 41.6786 229.13 41.2543C229.13 40.8299 229.458 40.5026 229.882 40.5026C230.282 40.5026 230.609 40.8299 230.609 41.2543C230.609 41.6786 230.282 42.006 229.882 42.006ZM237.073 47.9227C237.073 49.0139 236.115 49.8384 234.648 49.8384C233.096 49.8384 232.005 48.9897 231.932 47.7772H233.072C233.133 48.4198 233.702 48.9048 234.636 48.9048C235.509 48.9048 235.994 48.4683 235.994 47.9227C235.994 46.4435 232.066 47.3044 232.066 44.831C232.066 43.8125 233.023 42.9759 234.503 42.9759C235.97 42.9759 236.94 43.764 237.012 45.0613H235.909C235.861 44.3945 235.351 43.9095 234.466 43.9095C233.654 43.9095 233.169 44.2975 233.169 44.831C233.169 46.4072 237.024 45.5463 237.073 47.9227ZM241.455 43.9095C240.376 43.9095 239.479 44.6249 239.358 45.9222H243.553C243.565 44.6249 242.595 43.9095 241.455 43.9095ZM244.559 47.6802C244.22 48.8927 243.153 49.8384 241.504 49.8384C239.613 49.8384 238.218 48.5047 238.218 46.395C238.218 44.2975 239.564 42.9759 241.504 42.9759C243.432 42.9759 244.693 44.3339 244.693 46.1525C244.693 46.395 244.681 46.589 244.656 46.8194H239.346C239.431 48.1652 240.376 48.9048 241.504 48.9048C242.498 48.9048 243.129 48.3956 243.371 47.6802H244.559Z" fill="black"/>
</svg>
