<svg width="246" height="66" viewBox="0 0 246 66" fill="none" xmlns="http://www.w3.org/2000/svg">
<rect width="35" height="35" transform="matrix(-1 0 0 1 245.5 0.519043)" fill="#BF0978"/>
<rect width="35" height="35" transform="matrix(-1 0 0 1 210.5 0.519043)" fill="#D76FA0"/>
<rect width="35" height="35" transform="matrix(-1 0 0 1 175.5 0.519043)" fill="#E9B3CA"/>
<rect width="35" height="35" transform="matrix(-1 0 0 1 140.5 0.519043)" fill="#F5F5F5"/>
<rect width="35" height="35" transform="matrix(-1 0 0 1 70.5 0.519043)" fill="#7FC8AE"/>
<rect width="35" height="35" transform="matrix(-1 0 0 1 105.5 0.519043)" fill="#BBDFD1"/>
<rect width="35" height="35" transform="matrix(-1 0 0 1 35.5 0.519043)" fill="#32B08C"/>
<path d="M1.43358 40.9139H2.5369V48.4674H5.49526V49.3646H1.43358V40.9139ZM9.49197 43.5449C8.41289 43.5449 7.51569 44.2602 7.39444 45.5576H11.5895C11.6016 44.2602 10.6317 43.5449 9.49197 43.5449ZM12.5958 47.3156C12.2563 48.528 11.1894 49.4737 9.54046 49.4737C7.64905 49.4737 6.25474 48.1401 6.25474 46.0304C6.25474 43.9329 7.60056 42.6113 9.54046 42.6113C11.4682 42.6113 12.7292 43.9693 12.7292 45.7879C12.7292 46.0304 12.7171 46.2244 12.6928 46.4548H7.38232C7.46719 47.8006 8.41289 48.5402 9.54046 48.5402C10.5347 48.5402 11.1651 48.0309 11.4076 47.3156H12.5958ZM18.9626 47.5581C18.9626 48.6493 18.0047 49.4737 16.5377 49.4737C14.9858 49.4737 13.8946 48.625 13.8218 47.4126H14.9615C15.0221 48.0552 15.592 48.5402 16.5256 48.5402C17.3985 48.5402 17.8835 48.1037 17.8835 47.5581C17.8835 46.0789 13.9552 46.9397 13.9552 44.4664C13.9552 43.4479 14.913 42.6113 16.3922 42.6113C17.8592 42.6113 18.8292 43.3994 18.9019 44.6967H17.7986C17.7501 44.0299 17.2409 43.5449 16.3558 43.5449C15.5435 43.5449 15.0585 43.9329 15.0585 44.4664C15.0585 46.0425 18.9141 45.1817 18.9626 47.5581ZM25.2971 47.5581C25.2971 48.6493 24.3393 49.4737 22.8722 49.4737C21.3203 49.4737 20.2291 48.625 20.1563 47.4126H21.296C21.3567 48.0552 21.9265 48.5402 22.8601 48.5402C23.7331 48.5402 24.218 48.1037 24.218 47.5581C24.218 46.0789 20.2897 46.9397 20.2897 44.4664C20.2897 43.4479 21.2475 42.6113 22.7267 42.6113C24.1938 42.6113 25.1637 43.3994 25.2365 44.6967H24.1332C24.0847 44.0299 23.5754 43.5449 22.6904 43.5449C21.878 43.5449 21.393 43.9329 21.393 44.4664C21.393 46.0425 25.2486 45.1817 25.2971 47.5581ZM31.1903 45.7515V49.3646H30.087V42.7204H31.1903V43.7995C31.5662 43.0599 32.2815 42.5992 33.3364 42.5992V43.7389H33.0454C31.9905 43.7389 31.1903 44.2117 31.1903 45.7515ZM40.9147 46.0304C40.9147 48.1401 39.3991 49.4737 37.5077 49.4737C35.6284 49.4737 34.1978 48.1401 34.1978 46.0304C34.1978 43.9329 35.6769 42.6113 37.5562 42.6113C39.4476 42.6113 40.9147 43.9329 40.9147 46.0304ZM35.3253 46.0304C35.3253 47.7157 36.3559 48.5038 37.5077 48.5038C38.6595 48.5038 39.7871 47.7157 39.7871 46.0304C39.7871 44.3572 38.6838 43.5691 37.5441 43.5691C36.3802 43.5691 35.3253 44.3572 35.3253 46.0304ZM41.9531 46.0183C41.9531 43.945 43.3232 42.6113 45.1055 42.6113C46.3422 42.6113 47.1909 43.2418 47.5789 43.9329V42.7204H48.6943V49.3646H47.5789V48.1279C47.1788 48.8433 46.3179 49.4737 45.0934 49.4737C43.3232 49.4737 41.9531 48.0794 41.9531 46.0183ZM47.5789 46.0304C47.5789 44.4906 46.5362 43.5691 45.3237 43.5691C44.1113 43.5691 43.0807 44.4542 43.0807 46.0183C43.0807 47.5823 44.1113 48.5038 45.3237 48.5038C46.5362 48.5038 47.5789 47.5945 47.5789 46.0304ZM50.1466 46.0183C50.1466 43.945 51.5166 42.6113 53.3111 42.6113C54.3538 42.6113 55.3116 43.1448 55.7723 43.9086V40.3925H56.8878V49.3646H55.7723V48.1158C55.3722 48.8554 54.5114 49.4737 53.2989 49.4737C51.5166 49.4737 50.1466 48.0794 50.1466 46.0183ZM55.7723 46.0304C55.7723 44.4906 54.7296 43.5691 53.5172 43.5691C52.3047 43.5691 51.2742 44.4542 51.2742 46.0183C51.2742 47.5823 52.3047 48.5038 53.5172 48.5038C54.7296 48.5038 55.7723 47.5945 55.7723 46.0304ZM66.7617 47.5581C66.7617 48.6493 65.8039 49.4737 64.3368 49.4737C62.7849 49.4737 61.6937 48.625 61.6209 47.4126H62.7606C62.8213 48.0552 63.3911 48.5402 64.3247 48.5402C65.1976 48.5402 65.6826 48.1037 65.6826 47.5581C65.6826 46.0789 61.7543 46.9397 61.7543 44.4664C61.7543 43.4479 62.7121 42.6113 64.1913 42.6113C65.6584 42.6113 66.6283 43.3994 66.7011 44.6967H65.5977C65.5492 44.0299 65.04 43.5449 64.1549 43.5449C63.3426 43.5449 62.8576 43.9329 62.8576 44.4664C62.8576 46.0425 66.7132 45.1817 66.7617 47.5581ZM69.4225 43.945C69.8226 43.2418 70.6956 42.6113 71.908 42.6113C73.6903 42.6113 75.0604 43.945 75.0604 46.0183C75.0604 48.0794 73.6903 49.4737 71.908 49.4737C70.6956 49.4737 69.8348 48.819 69.4225 48.1401V52.517H68.3192V42.7204H69.4225V43.945ZM73.9328 46.0183C73.9328 44.4542 72.9022 43.5691 71.6777 43.5691C70.4774 43.5691 69.4225 44.4906 69.4225 46.0304C69.4225 47.5945 70.4774 48.5038 71.6777 48.5038C72.9022 48.5038 73.9328 47.5823 73.9328 46.0183ZM76.1004 46.0183C76.1004 43.945 77.4705 42.6113 79.2528 42.6113C80.4895 42.6113 81.3382 43.2418 81.7262 43.9329V42.7204H82.8416V49.3646H81.7262V48.1279C81.3261 48.8433 80.4652 49.4737 79.2407 49.4737C77.4705 49.4737 76.1004 48.0794 76.1004 46.0183ZM81.7262 46.0304C81.7262 44.4906 80.6835 43.5691 79.471 43.5691C78.2586 43.5691 77.228 44.4542 77.228 46.0183C77.228 47.5823 78.2586 48.5038 79.471 48.5038C80.6835 48.5038 81.7262 47.5945 81.7262 46.0304ZM84.2939 46.0304C84.2939 43.945 85.6397 42.6113 87.5311 42.6113C89.18 42.6113 90.2591 43.46 90.5986 44.8543H89.4104C89.18 44.0541 88.5132 43.5449 87.5311 43.5449C86.3187 43.5449 85.4215 44.4057 85.4215 46.0304C85.4215 47.6793 86.3187 48.5402 87.5311 48.5402C88.5132 48.5402 89.1679 48.0673 89.4104 47.2307H90.5986C90.2591 48.5523 89.18 49.4737 87.5311 49.4737C85.6397 49.4737 84.2939 48.1401 84.2939 46.0304ZM94.8958 43.5449C93.8167 43.5449 92.9195 44.2602 92.7982 45.5576H96.9933C97.0054 44.2602 96.0355 43.5449 94.8958 43.5449ZM97.9996 47.3156C97.6601 48.528 96.5932 49.4737 94.9443 49.4737C93.0528 49.4737 91.6585 48.1401 91.6585 46.0304C91.6585 43.9329 93.0043 42.6113 94.9443 42.6113C96.872 42.6113 98.133 43.9693 98.133 45.7879C98.133 46.0304 98.1209 46.2244 98.0966 46.4548H92.7861C92.871 47.8006 93.8167 48.5402 94.9443 48.5402C95.9385 48.5402 96.5689 48.0309 96.8114 47.3156H97.9996ZM7.32605 55.7204V62.3646H6.22273V61.3825C5.79837 62.0736 4.98604 62.4616 4.10095 62.4616C2.57328 62.4616 1.37296 61.5159 1.37296 59.6124V55.7204H2.46416V59.4669C2.46416 60.8127 3.20375 61.5038 4.31919 61.5038C5.45889 61.5038 6.22273 60.8006 6.22273 59.3699V55.7204H7.32605ZM13.966 60.5581C13.966 61.6493 13.0081 62.4737 11.5411 62.4737C9.98916 62.4737 8.89796 61.625 8.82522 60.4126H9.96491C10.0255 61.0552 10.5954 61.5402 11.529 61.5402C12.4019 61.5402 12.8869 61.1037 12.8869 60.5581C12.8869 59.0789 8.95859 59.9397 8.95859 57.4664C8.95859 56.4479 9.91642 55.6113 11.3956 55.6113C12.8627 55.6113 13.8326 56.3994 13.9054 57.6967H12.802C12.7535 57.0299 12.2443 56.5449 11.3592 56.5449C10.5469 56.5449 10.0619 56.9329 10.0619 57.4664C10.0619 59.0425 13.9175 58.1817 13.966 60.5581ZM18.3485 56.5449C17.2694 56.5449 16.3722 57.2602 16.251 58.5576H20.446C20.4581 57.2602 19.4882 56.5449 18.3485 56.5449ZM21.4523 60.3156C21.1129 61.528 20.0459 62.4737 18.397 62.4737C16.5056 62.4737 15.1113 61.1401 15.1113 59.0304C15.1113 56.9329 16.4571 55.6113 18.397 55.6113C20.3248 55.6113 21.5857 56.9693 21.5857 58.7879C21.5857 59.0304 21.5736 59.2244 21.5493 59.4548H16.2388C16.3237 60.8006 17.2694 61.5402 18.397 61.5402C19.3912 61.5402 20.0217 61.0309 20.2641 60.3156H21.4523ZM22.6298 59.0183C22.6298 56.945 23.9999 55.6113 25.7943 55.6113C26.837 55.6113 27.7948 56.1448 28.2556 56.9086V53.3925H29.371V62.3646H28.2556V61.1158C27.8555 61.8554 26.9946 62.4737 25.7822 62.4737C23.9999 62.4737 22.6298 61.0794 22.6298 59.0183ZM28.2556 59.0304C28.2556 57.4906 27.2129 56.5691 26.0004 56.5691C24.788 56.5691 23.7574 57.4542 23.7574 59.0183C23.7574 60.5823 24.788 61.5038 26.0004 61.5038C27.2129 61.5038 28.2556 60.5945 28.2556 59.0304ZM34.674 62.3646V56.6298H33.8132V55.7204H34.674V55.2476C34.674 53.7684 35.4015 53.1016 37.0989 53.1016V54.023C36.1047 54.023 35.7773 54.3868 35.7773 55.2476V55.7204H37.1717V56.6298H35.7773V62.3646H34.674ZM44.7628 59.0304C44.7628 61.1401 43.2472 62.4737 41.3558 62.4737C39.4765 62.4737 38.0458 61.1401 38.0458 59.0304C38.0458 56.9329 39.525 55.6113 41.4043 55.6113C43.2957 55.6113 44.7628 56.9329 44.7628 59.0304ZM39.1734 59.0304C39.1734 60.7157 40.204 61.5038 41.3558 61.5038C42.5076 61.5038 43.6352 60.7157 43.6352 59.0304C43.6352 57.3572 42.5319 56.5691 41.3922 56.5691C40.2282 56.5691 39.1734 57.3572 39.1734 59.0304ZM47.3168 58.7515V62.3646H46.2134V55.7204H47.3168V56.7995C47.6926 56.0599 48.408 55.5992 49.4628 55.5992V56.7389H49.1718C48.117 56.7389 47.3168 57.2117 47.3168 58.7515ZM55.0721 56.945C55.4722 56.2418 56.3452 55.6113 57.5576 55.6113C59.3399 55.6113 60.71 56.945 60.71 59.0183C60.71 61.0794 59.3399 62.4737 57.5576 62.4737C56.3452 62.4737 55.4844 61.819 55.0721 61.1401V65.517H53.9688V55.7204H55.0721V56.945ZM59.5824 59.0183C59.5824 57.4542 58.5518 56.5691 57.3273 56.5691C56.127 56.5691 55.0721 57.4906 55.0721 59.0304C55.0721 60.5945 56.127 61.5038 57.3273 61.5038C58.5518 61.5038 59.5824 60.5823 59.5824 59.0183ZM61.75 59.0183C61.75 56.945 63.1201 55.6113 64.9024 55.6113C66.1391 55.6113 66.9878 56.2418 67.3758 56.9329V55.7204H68.4912V62.3646H67.3758V61.1279C66.9757 61.8433 66.1148 62.4737 64.8903 62.4737C63.1201 62.4737 61.75 61.0794 61.75 59.0183ZM67.3758 59.0304C67.3758 57.4906 66.3331 56.5691 65.1206 56.5691C63.9082 56.5691 62.8776 57.4542 62.8776 59.0183C62.8776 60.5823 63.9082 61.5038 65.1206 61.5038C66.3331 61.5038 67.3758 60.5945 67.3758 59.0304ZM71.4591 58.7515V62.3646H70.3557V55.7204H71.4591V56.7995C71.8349 56.0599 72.5503 55.5992 73.6051 55.5992V56.7389H73.3141C72.2593 56.7389 71.4591 57.2117 71.4591 58.7515ZM74.8787 62.3646V53.3925H75.982V58.6667L78.5403 55.7204H80.0801L76.952 59.0304L80.0922 62.3646H78.5888L75.982 59.4305V62.3646H74.8787ZM81.1185 62.3646V55.7204H82.2218V62.3646H81.1185ZM81.6884 54.6414C81.264 54.6414 80.9367 54.314 80.9367 53.8896C80.9367 53.4653 81.264 53.1379 81.6884 53.1379C82.0885 53.1379 82.4158 53.4653 82.4158 53.8896C82.4158 54.314 82.0885 54.6414 81.6884 54.6414ZM88.9642 62.3646V58.6061C88.9642 57.2481 88.2246 56.557 87.1091 56.557C85.9816 56.557 85.2056 57.2602 85.2056 58.6909V62.3646H84.1023V55.7204H85.2056V56.6661C85.6421 55.9751 86.4423 55.5992 87.3395 55.5992C88.8793 55.5992 90.0554 56.5449 90.0554 58.4484V62.3646H88.9642ZM91.4454 59.0183C91.4454 56.945 92.8155 55.6113 94.5978 55.6113C95.8102 55.6113 96.6832 56.2175 97.0711 56.9329V55.7204H98.1866V62.5101C98.1866 64.3409 96.962 65.6382 95.01 65.6382C93.2641 65.6382 92.0153 64.7531 91.797 63.3346H92.8882C93.1307 64.1348 93.9188 64.6804 95.01 64.6804C96.1861 64.6804 97.0711 63.9287 97.0711 62.5101V61.1158C96.671 61.8311 95.8102 62.4737 94.5978 62.4737C92.8155 62.4737 91.4454 61.0794 91.4454 59.0183ZM97.0711 59.0304C97.0711 57.4906 96.0284 56.5691 94.816 56.5691C93.6036 56.5691 92.573 57.4542 92.573 59.0183C92.573 60.5823 93.6036 61.5038 94.816 61.5038C96.0284 61.5038 97.0711 60.5945 97.0711 59.0304Z" fill="black"/>
<path d="M143.174 49.3646V40.9745H144.362L147.466 47.9097L150.57 40.9745H151.746V49.3646H150.643V43.1084L147.854 49.3646H147.078L144.278 43.0963V49.3646H143.174ZM159.922 46.0304C159.922 48.1401 158.407 49.4737 156.515 49.4737C154.636 49.4737 153.205 48.1401 153.205 46.0304C153.205 43.9329 154.684 42.6113 156.564 42.6113C158.455 42.6113 159.922 43.9329 159.922 46.0304ZM154.333 46.0304C154.333 47.7157 155.363 48.5038 156.515 48.5038C157.667 48.5038 158.795 47.7157 158.795 46.0304C158.795 44.3572 157.691 43.5691 156.552 43.5691C155.388 43.5691 154.333 44.3572 154.333 46.0304ZM162.476 45.7515V49.3646H161.373V42.7204H162.476V43.7995C162.852 43.0599 163.567 42.5992 164.622 42.5992V43.7389H164.331C163.276 43.7389 162.476 44.2117 162.476 45.7515ZM168.721 43.5449C167.642 43.5449 166.744 44.2602 166.623 45.5576H170.818C170.83 44.2602 169.86 43.5449 168.721 43.5449ZM171.825 47.3156C171.485 48.528 170.418 49.4737 168.769 49.4737C166.878 49.4737 165.484 48.1401 165.484 46.0304C165.484 43.9329 166.829 42.6113 168.769 42.6113C170.697 42.6113 171.958 43.9693 171.958 45.7879C171.958 46.0304 171.946 46.2244 171.922 46.4548H166.611C166.696 47.8006 167.642 48.5402 168.769 48.5402C169.763 48.5402 170.394 48.0309 170.636 47.3156H171.825ZM177.75 45.7515V49.3646H176.647V42.7204H177.75V43.7995C178.126 43.0599 178.841 42.5992 179.896 42.5992V43.7389H179.605C178.55 43.7389 177.75 44.2117 177.75 45.7515ZM187.474 46.0304C187.474 48.1401 185.959 49.4737 184.067 49.4737C182.188 49.4737 180.757 48.1401 180.757 46.0304C180.757 43.9329 182.237 42.6113 184.116 42.6113C186.007 42.6113 187.474 43.9329 187.474 46.0304ZM181.885 46.0304C181.885 47.7157 182.916 48.5038 184.067 48.5038C185.219 48.5038 186.347 47.7157 186.347 46.0304C186.347 44.3572 185.243 43.5691 184.104 43.5691C182.94 43.5691 181.885 44.3572 181.885 46.0304ZM188.513 46.0183C188.513 43.945 189.883 42.6113 191.665 42.6113C192.902 42.6113 193.751 43.2418 194.139 43.9329V42.7204H195.254V49.3646H194.139V48.1279C193.738 48.8433 192.878 49.4737 191.653 49.4737C189.883 49.4737 188.513 48.0794 188.513 46.0183ZM194.139 46.0304C194.139 44.4906 193.096 43.5691 191.883 43.5691C190.671 43.5691 189.64 44.4542 189.64 46.0183C189.64 47.5823 190.671 48.5038 191.883 48.5038C193.096 48.5038 194.139 47.5945 194.139 46.0304ZM196.706 46.0183C196.706 43.945 198.076 42.6113 199.871 42.6113C200.913 42.6113 201.871 43.1448 202.332 43.9086V40.3925H203.447V49.3646H202.332V48.1158C201.932 48.8554 201.071 49.4737 199.859 49.4737C198.076 49.4737 196.706 48.0794 196.706 46.0183ZM202.332 46.0304C202.332 44.4906 201.289 43.5691 200.077 43.5691C198.864 43.5691 197.834 44.4542 197.834 46.0183C197.834 47.5823 198.864 48.5038 200.077 48.5038C201.289 48.5038 202.332 47.5945 202.332 46.0304ZM213.321 47.5581C213.321 48.6493 212.364 49.4737 210.896 49.4737C209.345 49.4737 208.253 48.625 208.181 47.4126H209.32C209.381 48.0552 209.951 48.5402 210.884 48.5402C211.757 48.5402 212.242 48.1037 212.242 47.5581C212.242 46.0789 208.314 46.9397 208.314 44.4664C208.314 43.4479 209.272 42.6113 210.751 42.6113C212.218 42.6113 213.188 43.3994 213.261 44.6967H212.157C212.109 44.0299 211.6 43.5449 210.715 43.5449C209.902 43.5449 209.417 43.9329 209.417 44.4664C209.417 46.0425 213.273 45.1817 213.321 47.5581ZM215.982 43.945C216.382 43.2418 217.255 42.6113 218.468 42.6113C220.25 42.6113 221.62 43.945 221.62 46.0183C221.62 48.0794 220.25 49.4737 218.468 49.4737C217.255 49.4737 216.394 48.819 215.982 48.1401V52.517H214.879V42.7204H215.982V43.945ZM220.493 46.0183C220.493 44.4542 219.462 43.5691 218.237 43.5691C217.037 43.5691 215.982 44.4906 215.982 46.0304C215.982 47.5945 217.037 48.5038 218.237 48.5038C219.462 48.5038 220.493 47.5823 220.493 46.0183ZM222.66 46.0183C222.66 43.945 224.03 42.6113 225.812 42.6113C227.049 42.6113 227.898 43.2418 228.286 43.9329V42.7204H229.401V49.3646H228.286V48.1279C227.886 48.8433 227.025 49.4737 225.8 49.4737C224.03 49.4737 222.66 48.0794 222.66 46.0183ZM228.286 46.0304C228.286 44.4906 227.243 43.5691 226.031 43.5691C224.818 43.5691 223.788 44.4542 223.788 46.0183C223.788 47.5823 224.818 48.5038 226.031 48.5038C227.243 48.5038 228.286 47.5945 228.286 46.0304ZM230.854 46.0304C230.854 43.945 232.199 42.6113 234.091 42.6113C235.74 42.6113 236.819 43.46 237.158 44.8543H235.97C235.74 44.0541 235.073 43.5449 234.091 43.5449C232.878 43.5449 231.981 44.4057 231.981 46.0304C231.981 47.6793 232.878 48.5402 234.091 48.5402C235.073 48.5402 235.728 48.0673 235.97 47.2307H237.158C236.819 48.5523 235.74 49.4737 234.091 49.4737C232.199 49.4737 230.854 48.1401 230.854 46.0304ZM241.455 43.5449C240.376 43.5449 239.479 44.2602 239.358 45.5576H243.553C243.565 44.2602 242.595 43.5449 241.455 43.5449ZM244.559 47.3156C244.22 48.528 243.153 49.4737 241.504 49.4737C239.613 49.4737 238.218 48.1401 238.218 46.0304C238.218 43.9329 239.564 42.6113 241.504 42.6113C243.432 42.6113 244.693 43.9693 244.693 45.7879C244.693 46.0304 244.681 46.2244 244.656 46.4548H239.346C239.431 47.8006 240.376 48.5402 241.504 48.5402C242.498 48.5402 243.129 48.0309 243.371 47.3156H244.559ZM153.424 55.7204V62.3646H152.321V61.3825C151.896 62.0736 151.084 62.4616 150.199 62.4616C148.671 62.4616 147.471 61.5159 147.471 59.6124V55.7204H148.562V59.4669C148.562 60.8127 149.302 61.5038 150.417 61.5038C151.557 61.5038 152.321 60.8006 152.321 59.3699V55.7204H153.424ZM160.064 60.5581C160.064 61.6493 159.106 62.4737 157.639 62.4737C156.087 62.4737 154.996 61.625 154.923 60.4126H156.063C156.123 61.0552 156.693 61.5402 157.627 61.5402C158.5 61.5402 158.985 61.1037 158.985 60.5581C158.985 59.0789 155.057 59.9397 155.057 57.4664C155.057 56.4479 156.014 55.6113 157.494 55.6113C158.961 55.6113 159.931 56.3994 160.003 57.6967H158.9C158.851 57.0299 158.342 56.5449 157.457 56.5449C156.645 56.5449 156.16 56.9329 156.16 57.4664C156.16 59.0425 160.015 58.1817 160.064 60.5581ZM164.446 56.5449C163.367 56.5449 162.47 57.2602 162.349 58.5576H166.544C166.556 57.2602 165.586 56.5449 164.446 56.5449ZM167.55 60.3156C167.211 61.528 166.144 62.4737 164.495 62.4737C162.603 62.4737 161.209 61.1401 161.209 59.0304C161.209 56.9329 162.555 55.6113 164.495 55.6113C166.423 55.6113 167.684 56.9693 167.684 58.7879C167.684 59.0304 167.672 59.2244 167.647 59.4548H162.337C162.422 60.8006 163.367 61.5402 164.495 61.5402C165.489 61.5402 166.12 61.0309 166.362 60.3156H167.55ZM168.728 59.0183C168.728 56.945 170.098 55.6113 171.892 55.6113C172.935 55.6113 173.893 56.1448 174.353 56.9086V53.3925H175.469V62.3646H174.353V61.1158C173.953 61.8554 173.093 62.4737 171.88 62.4737C170.098 62.4737 168.728 61.0794 168.728 59.0183ZM174.353 59.0304C174.353 57.4906 173.311 56.5691 172.098 56.5691C170.886 56.5691 169.855 57.4542 169.855 59.0183C169.855 60.5823 170.886 61.5038 172.098 61.5038C173.311 61.5038 174.353 60.5945 174.353 59.0304ZM180.772 62.3646V56.6298H179.911V55.7204H180.772V55.2476C180.772 53.7684 181.499 53.1016 183.197 53.1016V54.023C182.203 54.023 181.875 54.3868 181.875 55.2476V55.7204H183.27V56.6298H181.875V62.3646H180.772ZM190.861 59.0304C190.861 61.1401 189.345 62.4737 187.454 62.4737C185.574 62.4737 184.144 61.1401 184.144 59.0304C184.144 56.9329 185.623 55.6113 187.502 55.6113C189.394 55.6113 190.861 56.9329 190.861 59.0304ZM185.271 59.0304C185.271 60.7157 186.302 61.5038 187.454 61.5038C188.606 61.5038 189.733 60.7157 189.733 59.0304C189.733 57.3572 188.63 56.5691 187.49 56.5691C186.326 56.5691 185.271 57.3572 185.271 59.0304ZM193.415 58.7515V62.3646H192.311V55.7204H193.415V56.7995C193.791 56.0599 194.506 55.5992 195.561 55.5992V56.7389H195.27C194.215 56.7389 193.415 57.2117 193.415 58.7515ZM201.17 56.945C201.57 56.2418 202.443 55.6113 203.656 55.6113C205.438 55.6113 206.808 56.945 206.808 59.0183C206.808 61.0794 205.438 62.4737 203.656 62.4737C202.443 62.4737 201.582 61.819 201.17 61.1401V65.517H200.067V55.7204H201.17V56.945ZM205.68 59.0183C205.68 57.4542 204.65 56.5691 203.425 56.5691C202.225 56.5691 201.17 57.4906 201.17 59.0304C201.17 60.5945 202.225 61.5038 203.425 61.5038C204.65 61.5038 205.68 60.5823 205.68 59.0183ZM207.848 59.0183C207.848 56.945 209.218 55.6113 211 55.6113C212.237 55.6113 213.086 56.2418 213.474 56.9329V55.7204H214.589V62.3646H213.474V61.1279C213.074 61.8433 212.213 62.4737 210.988 62.4737C209.218 62.4737 207.848 61.0794 207.848 59.0183ZM213.474 59.0304C213.474 57.4906 212.431 56.5691 211.219 56.5691C210.006 56.5691 208.976 57.4542 208.976 59.0183C208.976 60.5823 210.006 61.5038 211.219 61.5038C212.431 61.5038 213.474 60.5945 213.474 59.0304ZM217.557 58.7515V62.3646H216.454V55.7204H217.557V56.7995C217.933 56.0599 218.648 55.5992 219.703 55.5992V56.7389H219.412C218.357 56.7389 217.557 57.2117 217.557 58.7515ZM220.977 62.3646V53.3925H222.08V58.6667L224.638 55.7204H226.178L223.05 59.0304L226.19 62.3646H224.687L222.08 59.4305V62.3646H220.977ZM227.216 62.3646V55.7204H228.32V62.3646H227.216ZM227.786 54.6414C227.362 54.6414 227.035 54.314 227.035 53.8896C227.035 53.4653 227.362 53.1379 227.786 53.1379C228.186 53.1379 228.514 53.4653 228.514 53.8896C228.514 54.314 228.186 54.6414 227.786 54.6414ZM235.062 62.3646V58.6061C235.062 57.2481 234.323 56.557 233.207 56.557C232.079 56.557 231.304 57.2602 231.304 58.6909V62.3646H230.2V55.7204H231.304V56.6661C231.74 55.9751 232.54 55.5992 233.437 55.5992C234.977 55.5992 236.153 56.5449 236.153 58.4484V62.3646H235.062ZM237.543 59.0183C237.543 56.945 238.913 55.6113 240.696 55.6113C241.908 55.6113 242.781 56.2175 243.169 56.9329V55.7204H244.285V62.5101C244.285 64.3409 243.06 65.6382 241.108 65.6382C239.362 65.6382 238.113 64.7531 237.895 63.3346H238.986C239.229 64.1348 240.017 64.6804 241.108 64.6804C242.284 64.6804 243.169 63.9287 243.169 62.5101V61.1158C242.769 61.8311 241.908 62.4737 240.696 62.4737C238.913 62.4737 237.543 61.0794 237.543 59.0183ZM243.169 59.0304C243.169 57.4906 242.126 56.5691 240.914 56.5691C239.701 56.5691 238.671 57.4542 238.671 59.0183C238.671 60.5823 239.701 61.5038 240.914 61.5038C242.126 61.5038 243.169 60.5945 243.169 59.0304Z" fill="black"/>
</svg>
