<svg width="246" height="68" viewBox="0 0 246 68" fill="none" xmlns="http://www.w3.org/2000/svg">
<rect width="35" height="35" transform="matrix(-1 0 0 1 245.5 1.24829)" fill="#BF0978"/>
<rect width="35" height="35" transform="matrix(-1 0 0 1 210.5 1.24829)" fill="#D76FA0"/>
<rect width="35" height="35" transform="matrix(-1 0 0 1 175.5 1.24829)" fill="#E9B3CA"/>
<rect width="35" height="35" transform="matrix(-1 0 0 1 140.5 1.24829)" fill="#F5F5F5"/>
<rect width="35" height="35" transform="matrix(-1 0 0 1 70.5 1.24829)" fill="#7FC8AE"/>
<rect width="35" height="35" transform="matrix(-1 0 0 1 105.5 1.24829)" fill="#BBDFD1"/>
<rect width="35" height="35" transform="matrix(-1 0 0 1 35.5 1.24829)" fill="#32B08C"/>
<path d="M1.43358 50.0938V41.7037H2.62177L5.72563 48.6389L8.82948 41.7037H10.0056V50.0938H8.90223V43.8376L6.11361 50.0938H5.33765L2.5369 43.8255V50.0938H1.43358ZM18.1814 46.7596C18.1814 48.8692 16.6658 50.2029 14.7744 50.2029C12.8951 50.2029 11.4645 48.8692 11.4645 46.7596C11.4645 44.6621 12.9436 43.3405 14.8229 43.3405C16.7143 43.3405 18.1814 44.6621 18.1814 46.7596ZM12.592 46.7596C12.592 48.4449 13.6226 49.233 14.7744 49.233C15.9262 49.233 17.0538 48.4449 17.0538 46.7596C17.0538 45.0864 15.9505 44.2983 14.8108 44.2983C13.6469 44.2983 12.592 45.0864 12.592 46.7596ZM20.7354 46.4807V50.0938H19.6321V43.4496H20.7354V44.5287C21.1112 43.7891 21.8266 43.3284 22.8814 43.3284V44.4681H22.5904C21.5356 44.4681 20.7354 44.9409 20.7354 46.4807ZM26.98 44.2741C25.901 44.2741 25.0037 44.9894 24.8825 46.2867H29.0776C29.0897 44.9894 28.1197 44.2741 26.98 44.2741ZM30.0839 48.0448C29.7444 49.2572 28.6775 50.2029 27.0285 50.2029C25.1371 50.2029 23.7428 48.8692 23.7428 46.7596C23.7428 44.6621 25.0886 43.3405 27.0285 43.3405C28.9563 43.3405 30.2173 44.6984 30.2173 46.5171C30.2173 46.7596 30.2051 46.9536 30.1809 47.1839H24.8704C24.9553 48.5298 25.901 49.2694 27.0285 49.2694C28.0227 49.2694 28.6532 48.7601 28.8957 48.0448H30.0839ZM35.1485 48.2751V44.359H34.2876V43.4496H35.1485V41.7765H36.2518V43.4496H37.9856V44.359H36.2518V48.2751C36.2518 48.9299 36.4943 49.1602 37.1733 49.1602H37.9856V50.0938H36.9914C35.8153 50.0938 35.1485 49.6088 35.1485 48.2751ZM40.4257 46.4807V50.0938H39.3224V43.4496H40.4257V44.5287C40.8016 43.7891 41.5169 43.3284 42.5718 43.3284V44.4681H42.2808C41.2259 44.4681 40.4257 44.9409 40.4257 46.4807ZM46.6704 44.2741C45.5913 44.2741 44.6941 44.9894 44.5729 46.2867H48.7679C48.78 44.9894 47.8101 44.2741 46.6704 44.2741ZM49.7742 48.0448C49.4347 49.2572 48.3678 50.2029 46.7189 50.2029C44.8275 50.2029 43.4332 48.8692 43.4332 46.7596C43.4332 44.6621 44.779 43.3405 46.7189 43.3405C48.6467 43.3405 49.9076 44.6984 49.9076 46.5171C49.9076 46.7596 49.8955 46.9536 49.8712 47.1839H44.5607C44.6456 48.5298 45.5913 49.2694 46.7189 49.2694C47.7131 49.2694 48.3436 48.7601 48.586 48.0448H49.7742ZM54.1889 44.2741C53.1099 44.2741 52.2127 44.9894 52.0914 46.2867H56.2865C56.2986 44.9894 55.3286 44.2741 54.1889 44.2741ZM57.2928 48.0448C56.9533 49.2572 55.8864 50.2029 54.2374 50.2029C52.346 50.2029 50.9517 48.8692 50.9517 46.7596C50.9517 44.6621 52.2975 43.3405 54.2374 43.3405C56.1652 43.3405 57.4262 44.6984 57.4262 46.5171C57.4262 46.7596 57.414 46.9536 57.3898 47.1839H52.0793C52.1642 48.5298 53.1099 49.2694 54.2374 49.2694C55.2316 49.2694 55.8621 48.7601 56.1046 48.0448H57.2928ZM1.02135 59.7596C1.02135 57.6742 2.36716 56.3405 4.25857 56.3405C5.90749 56.3405 6.98657 57.1892 7.32605 58.5835H6.13786C5.90749 57.7833 5.24065 57.2741 4.25857 57.2741C3.04613 57.2741 2.14892 58.1349 2.14892 59.7596C2.14892 61.4085 3.04613 62.2694 4.25857 62.2694C5.24065 62.2694 5.89537 61.7965 6.13786 60.9599H7.32605C6.98657 62.2815 5.90749 63.2029 4.25857 63.2029C2.36716 63.2029 1.02135 61.8692 1.02135 59.7596ZM15.1029 59.7596C15.1029 61.8692 13.5874 63.2029 11.696 63.2029C9.81667 63.2029 8.38599 61.8692 8.38599 59.7596C8.38599 57.6621 9.86517 56.3405 11.7445 56.3405C13.6359 56.3405 15.1029 57.6621 15.1029 59.7596ZM9.51356 59.7596C9.51356 61.4449 10.5441 62.233 11.696 62.233C12.8478 62.233 13.9754 61.4449 13.9754 59.7596C13.9754 58.0864 12.872 57.2983 11.7323 57.2983C10.5684 57.2983 9.51356 58.0864 9.51356 59.7596ZM15.7655 56.4496H16.9537L19.027 62.0754L21.0881 56.4496H22.2642L19.6574 63.0938H18.3723L15.7655 56.4496ZM26.1749 57.2741C25.0958 57.2741 24.1986 57.9894 24.0774 59.2867H28.2724C28.2845 57.9894 27.3146 57.2741 26.1749 57.2741ZM29.2787 61.0448C28.9393 62.2572 27.8723 63.2029 26.2234 63.2029C24.332 63.2029 22.9377 61.8692 22.9377 59.7596C22.9377 57.6621 24.2835 56.3405 26.2234 56.3405C28.1512 56.3405 29.4121 57.6984 29.4121 59.5171C29.4121 59.7596 29.4 59.9536 29.3757 60.1839H24.0652C24.1501 61.5298 25.0958 62.2694 26.2234 62.2694C27.2176 62.2694 27.8481 61.7601 28.0906 61.0448H29.2787ZM31.9718 59.4807V63.0938H30.8685V56.4496H31.9718V57.5287C32.3476 56.7891 33.063 56.3284 34.1178 56.3284V57.4681H33.8268C32.772 57.4681 31.9718 57.9409 31.9718 59.4807ZM34.9792 59.7475C34.9792 57.6742 36.3493 56.3405 38.1316 56.3405C39.3683 56.3405 40.217 56.971 40.6049 57.6621V56.4496H41.7204V63.0938H40.6049V61.8571C40.2048 62.5725 39.344 63.2029 38.1194 63.2029C36.3493 63.2029 34.9792 61.8086 34.9792 59.7475ZM40.6049 59.7596C40.6049 58.2198 39.5622 57.2983 38.3498 57.2983C37.1374 57.2983 36.1068 58.1834 36.1068 59.7475C36.1068 61.3115 37.1374 62.233 38.3498 62.233C39.5622 62.233 40.6049 61.3236 40.6049 59.7596ZM43.1727 59.7475C43.1727 57.6742 44.5427 56.3405 46.325 56.3405C47.5375 56.3405 48.4104 56.9467 48.7984 57.6621V56.4496H49.9139V63.2393C49.9139 65.0701 48.6893 66.3674 46.7373 66.3674C44.9913 66.3674 43.7425 65.4823 43.5243 64.0638H44.6155C44.858 64.864 45.6461 65.4096 46.7373 65.4096C47.9133 65.4096 48.7984 64.6579 48.7984 63.2393V61.845C48.3983 62.5603 47.5375 63.2029 46.325 63.2029C44.5427 63.2029 43.1727 61.8086 43.1727 59.7475ZM48.7984 59.7596C48.7984 58.2198 47.7557 57.2983 46.5433 57.2983C45.3308 57.2983 44.3002 58.1834 44.3002 59.7475C44.3002 61.3115 45.3308 62.233 46.5433 62.233C47.7557 62.233 48.7984 61.3236 48.7984 59.7596ZM54.6034 57.2741C53.5243 57.2741 52.6271 57.9894 52.5058 59.2867H56.7009C56.713 57.9894 55.7431 57.2741 54.6034 57.2741ZM57.7072 61.0448C57.3677 62.2572 56.3008 63.2029 54.6519 63.2029C52.7604 63.2029 51.3661 61.8692 51.3661 59.7596C51.3661 57.6621 52.7119 56.3405 54.6519 56.3405C56.5796 56.3405 57.8406 57.6984 57.8406 59.5171C57.8406 59.7596 57.8285 59.9536 57.8042 60.1839H52.4937C52.5786 61.5298 53.5243 62.2694 54.6519 62.2694C55.6461 62.2694 56.2765 61.7601 56.519 61.0448H57.7072Z" fill="black"/>
<path d="M193.519 41.643H194.622V49.1965H197.581V50.0938H193.519V41.643ZM201.577 44.274C200.498 44.274 199.601 44.9894 199.48 46.2867H203.675C203.687 44.9894 202.717 44.274 201.577 44.274ZM204.681 48.0447C204.342 49.2572 203.275 50.2029 201.626 50.2029C199.735 50.2029 198.34 48.8692 198.34 46.7595C198.34 44.662 199.686 43.3404 201.626 43.3404C203.554 43.3404 204.815 44.6984 204.815 46.517C204.815 46.7595 204.803 46.9535 204.778 47.1839H199.468C199.553 48.5297 200.498 49.2693 201.626 49.2693C202.62 49.2693 203.251 48.7601 203.493 48.0447H204.681ZM211.048 48.2872C211.048 49.3784 210.09 50.2029 208.623 50.2029C207.071 50.2029 205.98 49.3542 205.907 48.1417H207.047C207.108 48.7843 207.677 49.2693 208.611 49.2693C209.484 49.2693 209.969 48.8328 209.969 48.2872C209.969 46.808 206.041 47.6689 206.041 45.1955C206.041 44.177 206.999 43.3404 208.478 43.3404C209.945 43.3404 210.915 44.1285 210.987 45.4258H209.884C209.836 44.759 209.326 44.274 208.441 44.274C207.629 44.274 207.144 44.662 207.144 45.1955C207.144 46.7717 211 45.9108 211.048 48.2872ZM217.383 48.2872C217.383 49.3784 216.425 50.2029 214.958 50.2029C213.406 50.2029 212.315 49.3542 212.242 48.1417H213.382C213.442 48.7843 214.012 49.2693 214.946 49.2693C215.819 49.2693 216.304 48.8328 216.304 48.2872C216.304 46.808 212.375 47.6689 212.375 45.1955C212.375 44.177 213.333 43.3404 214.812 43.3404C216.279 43.3404 217.249 44.1285 217.322 45.4258H216.219C216.17 44.759 215.661 44.274 214.776 44.274C213.964 44.274 213.479 44.662 213.479 45.1955C213.479 46.7717 217.334 45.9108 217.383 48.2872ZM222.415 48.2751V44.3589H221.554V43.4496H222.415V41.7764H223.518V43.4496H225.252V44.3589H223.518V48.2751C223.518 48.9298 223.761 49.1602 224.44 49.1602H225.252V50.0938H224.258C223.082 50.0938 222.415 49.6088 222.415 48.2751ZM227.692 46.4807V50.0938H226.589V43.4496H227.692V44.5286C228.068 43.789 228.783 43.3283 229.838 43.3283V44.468H229.547C228.492 44.468 227.692 44.9409 227.692 46.4807ZM233.937 44.274C232.858 44.274 231.961 44.9894 231.839 46.2867H236.034C236.047 44.9894 235.077 44.274 233.937 44.274ZM237.041 48.0447C236.701 49.2572 235.634 50.2029 233.985 50.2029C232.094 50.2029 230.7 48.8692 230.7 46.7595C230.7 44.662 232.045 43.3404 233.985 43.3404C235.913 43.3404 237.174 44.6984 237.174 46.517C237.174 46.7595 237.162 46.9535 237.138 47.1839H231.827C231.912 48.5297 232.858 49.2693 233.985 49.2693C234.98 49.2693 235.61 48.7601 235.853 48.0447H237.041ZM241.455 44.274C240.376 44.274 239.479 44.9894 239.358 46.2867H243.553C243.565 44.9894 242.595 44.274 241.455 44.274ZM244.559 48.0447C244.22 49.2572 243.153 50.2029 241.504 50.2029C239.613 50.2029 238.218 48.8692 238.218 46.7595C238.218 44.662 239.564 43.3404 241.504 43.3404C243.432 43.3404 244.693 44.6984 244.693 46.517C244.693 46.7595 244.681 46.9535 244.656 47.1839H239.346C239.431 48.5297 240.376 49.2693 241.504 49.2693C242.498 49.2693 243.129 48.7601 243.371 48.0447H244.559ZM187.873 59.7595C187.873 57.6741 189.219 56.3404 191.111 56.3404C192.76 56.3404 193.839 57.1892 194.178 58.5835H192.99C192.76 57.7833 192.093 57.274 191.111 57.274C189.898 57.274 189.001 58.1349 189.001 59.7595C189.001 61.4085 189.898 62.2693 191.111 62.2693C192.093 62.2693 192.747 61.7964 192.99 60.9599H194.178C193.839 62.2814 192.76 63.2029 191.111 63.2029C189.219 63.2029 187.873 61.8692 187.873 59.7595ZM201.955 59.7595C201.955 61.8692 200.439 63.2029 198.548 63.2029C196.669 63.2029 195.238 61.8692 195.238 59.7595C195.238 57.662 196.717 56.3404 198.597 56.3404C200.488 56.3404 201.955 57.662 201.955 59.7595ZM196.366 59.7595C196.366 61.4448 197.396 62.2329 198.548 62.2329C199.7 62.2329 200.827 61.4448 200.827 59.7595C200.827 58.0864 199.724 57.2983 198.584 57.2983C197.42 57.2983 196.366 58.0864 196.366 59.7595ZM202.618 56.4496H203.806L205.879 62.0753L207.94 56.4496H209.116L206.51 63.0938H205.224L202.618 56.4496ZM213.027 57.274C211.948 57.274 211.051 57.9894 210.929 59.2867H215.125C215.137 57.9894 214.167 57.274 213.027 57.274ZM216.131 61.0447C215.791 62.2572 214.724 63.2029 213.075 63.2029C211.184 63.2029 209.79 61.8692 209.79 59.7595C209.79 57.662 211.136 56.3404 213.075 56.3404C215.003 56.3404 216.264 57.6984 216.264 59.517C216.264 59.7595 216.252 59.9535 216.228 60.1839H210.917C211.002 61.5297 211.948 62.2693 213.075 62.2693C214.07 62.2693 214.7 61.7601 214.943 61.0447H216.131ZM218.824 59.4807V63.0938H217.721V56.4496H218.824V57.5286C219.2 56.789 219.915 56.3283 220.97 56.3283V57.468H220.679C219.624 57.468 218.824 57.9409 218.824 59.4807ZM221.831 59.7474C221.831 57.6741 223.201 56.3404 224.984 56.3404C226.22 56.3404 227.069 56.9709 227.457 57.662V56.4496H228.572V63.0938H227.457V61.8571C227.057 62.5724 226.196 63.2029 224.972 63.2029C223.201 63.2029 221.831 61.8086 221.831 59.7474ZM227.457 59.7595C227.457 58.2197 226.414 57.2983 225.202 57.2983C223.989 57.2983 222.959 58.1834 222.959 59.7474C222.959 61.3115 223.989 62.2329 225.202 62.2329C226.414 62.2329 227.457 61.3236 227.457 59.7595ZM230.025 59.7474C230.025 57.6741 231.395 56.3404 233.177 56.3404C234.39 56.3404 235.263 56.9467 235.651 57.662V56.4496H236.766V63.2392C236.766 65.07 235.541 66.3673 233.589 66.3673C231.843 66.3673 230.595 65.4823 230.376 64.0637H231.468C231.71 64.8639 232.498 65.4095 233.589 65.4095C234.765 65.4095 235.651 64.6578 235.651 63.2392V61.8449C235.25 62.5603 234.39 63.2029 233.177 63.2029C231.395 63.2029 230.025 61.8086 230.025 59.7474ZM235.651 59.7595C235.651 58.2197 234.608 57.2983 233.395 57.2983C232.183 57.2983 231.152 58.1834 231.152 59.7474C231.152 61.3115 232.183 62.2329 233.395 62.2329C234.608 62.2329 235.651 61.3236 235.651 59.7595ZM241.455 57.274C240.376 57.274 239.479 57.9894 239.358 59.2867H243.553C243.565 57.9894 242.595 57.274 241.455 57.274ZM244.559 61.0447C244.22 62.2572 243.153 63.2029 241.504 63.2029C239.613 63.2029 238.218 61.8692 238.218 59.7595C238.218 57.662 239.564 56.3404 241.504 56.3404C243.432 56.3404 244.693 57.6984 244.693 59.517C244.693 59.7595 244.681 59.9535 244.656 60.1839H239.346C239.431 61.5297 240.376 62.2693 241.504 62.2693C242.498 62.2693 243.129 61.7601 243.371 61.0447H244.559Z" fill="black"/>
</svg>
