<svg width="246" height="68" viewBox="0 0 246 68" fill="none" xmlns="http://www.w3.org/2000/svg">
<rect width="35" height="35" transform="matrix(-1 0 0 1 245.5 1.24829)" fill="#BF0978"/>
<rect width="35" height="35" transform="matrix(-1 0 0 1 210.5 1.24829)" fill="#D76FA0"/>
<rect width="35" height="35" transform="matrix(-1 0 0 1 175.5 1.24829)" fill="#E9B3CA"/>
<rect width="35" height="35" transform="matrix(-1 0 0 1 140.5 1.24829)" fill="#F5F5F5"/>
<rect width="35" height="35" transform="matrix(-1 0 0 1 70.5 1.24829)" fill="#7FC8AE"/>
<rect width="35" height="35" transform="matrix(-1 0 0 1 105.5 1.24829)" fill="#BBDFD1"/>
<rect width="35" height="35" transform="matrix(-1 0 0 1 35.5 1.24829)" fill="#32B08C"/>
<path d="M1.43358 41.6431H2.5369V49.1967H5.49526V50.0939H1.43358V41.6431ZM9.49197 44.2741C8.41289 44.2741 7.51569 44.9895 7.39444 46.2868H11.5895C11.6016 44.9895 10.6317 44.2741 9.49197 44.2741ZM12.5958 48.0448C12.2563 49.2573 11.1894 50.203 9.54046 50.203C7.64905 50.203 6.25474 48.8693 6.25474 46.7597C6.25474 44.6621 7.60056 43.3406 9.54046 43.3406C11.4682 43.3406 12.7292 44.6985 12.7292 46.5172C12.7292 46.7597 12.7171 46.9536 12.6928 47.184H7.38232C7.46719 48.5298 8.41289 49.2694 9.54046 49.2694C10.5347 49.2694 11.1651 48.7602 11.4076 48.0448H12.5958ZM18.9626 48.2873C18.9626 49.3785 18.0047 50.203 16.5377 50.203C14.9858 50.203 13.8946 49.3543 13.8218 48.1418H14.9615C15.0221 48.7844 15.592 49.2694 16.5256 49.2694C17.3985 49.2694 17.8835 48.8329 17.8835 48.2873C17.8835 46.8082 13.9552 47.669 13.9552 45.1956C13.9552 44.1772 14.913 43.3406 16.3922 43.3406C17.8592 43.3406 18.8292 44.1287 18.9019 45.426H17.7986C17.7501 44.7591 17.2409 44.2741 16.3558 44.2741C15.5435 44.2741 15.0585 44.6621 15.0585 45.1956C15.0585 46.7718 18.9141 45.9109 18.9626 48.2873ZM25.2971 48.2873C25.2971 49.3785 24.3393 50.203 22.8722 50.203C21.3203 50.203 20.2291 49.3543 20.1563 48.1418H21.296C21.3567 48.7844 21.9265 49.2694 22.8601 49.2694C23.7331 49.2694 24.218 48.8329 24.218 48.2873C24.218 46.8082 20.2897 47.669 20.2897 45.1956C20.2897 44.1772 21.2475 43.3406 22.7267 43.3406C24.1938 43.3406 25.1637 44.1287 25.2365 45.426H24.1332C24.0847 44.7591 23.5754 44.2741 22.6904 44.2741C21.878 44.2741 21.393 44.6621 21.393 45.1956C21.393 46.7718 25.2486 45.9109 25.2971 48.2873ZM30.3295 48.2752V44.359H29.4687V43.4497H30.3295V41.7765H31.4328V43.4497H33.1666V44.359H31.4328V48.2752C31.4328 48.9299 31.6753 49.1603 32.3543 49.1603H33.1666V50.0939H32.1724C30.9963 50.0939 30.3295 49.6089 30.3295 48.2752ZM35.6067 46.4808V50.0939H34.5034V43.4497H35.6067V44.5288C35.9826 43.7892 36.6979 43.3284 37.7528 43.3284V44.4681H37.4618C36.407 44.4681 35.6067 44.941 35.6067 46.4808ZM41.8514 44.2741C40.7723 44.2741 39.8751 44.9895 39.7539 46.2868H43.9489C43.961 44.9895 42.9911 44.2741 41.8514 44.2741ZM44.9552 48.0448C44.6158 49.2573 43.5488 50.203 41.8999 50.203C40.0085 50.203 38.6142 48.8693 38.6142 46.7597C38.6142 44.6621 39.96 43.3406 41.8999 43.3406C43.8277 43.3406 45.0886 44.6985 45.0886 46.5172C45.0886 46.7597 45.0765 46.9536 45.0522 47.184H39.7417C39.8266 48.5298 40.7723 49.2694 41.8999 49.2694C42.8941 49.2694 43.5246 48.7602 43.7671 48.0448H44.9552ZM49.37 44.2741C48.2909 44.2741 47.3937 44.9895 47.2724 46.2868H51.4675C51.4796 44.9895 50.5097 44.2741 49.37 44.2741ZM52.4738 48.0448C52.1343 49.2573 51.0674 50.203 49.4185 50.203C47.527 50.203 46.1327 48.8693 46.1327 46.7597C46.1327 44.6621 47.4786 43.3406 49.4185 43.3406C51.3462 43.3406 52.6072 44.6985 52.6072 46.5172C52.6072 46.7597 52.5951 46.9536 52.5708 47.184H47.2603C47.3452 48.5298 48.2909 49.2694 49.4185 49.2694C50.4127 49.2694 51.0431 48.7602 51.2856 48.0448H52.4738ZM1.02135 59.7597C1.02135 57.6743 2.36716 56.3406 4.25857 56.3406C5.90749 56.3406 6.98657 57.1893 7.32605 58.5836H6.13786C5.90749 57.7834 5.24065 57.2741 4.25857 57.2741C3.04613 57.2741 2.14892 58.135 2.14892 59.7597C2.14892 61.4086 3.04613 62.2694 4.25857 62.2694C5.24065 62.2694 5.89537 61.7966 6.13786 60.96H7.32605C6.98657 62.2815 5.90749 63.203 4.25857 63.203C2.36716 63.203 1.02135 61.8693 1.02135 59.7597ZM15.1029 59.7597C15.1029 61.8693 13.5874 63.203 11.696 63.203C9.81667 63.203 8.38599 61.8693 8.38599 59.7597C8.38599 57.6621 9.86517 56.3406 11.7445 56.3406C13.6359 56.3406 15.1029 57.6621 15.1029 59.7597ZM9.51356 59.7597C9.51356 61.445 10.5441 62.233 11.696 62.233C12.8478 62.233 13.9754 61.445 13.9754 59.7597C13.9754 58.0865 12.872 57.2984 11.7323 57.2984C10.5684 57.2984 9.51356 58.0865 9.51356 59.7597ZM15.7655 56.4497H16.9537L19.027 62.0754L21.0881 56.4497H22.2642L19.6574 63.0939H18.3723L15.7655 56.4497ZM26.1749 57.2741C25.0958 57.2741 24.1986 57.9895 24.0774 59.2868H28.2724C28.2845 57.9895 27.3146 57.2741 26.1749 57.2741ZM29.2787 61.0448C28.9393 62.2573 27.8723 63.203 26.2234 63.203C24.332 63.203 22.9377 61.8693 22.9377 59.7597C22.9377 57.6621 24.2835 56.3406 26.2234 56.3406C28.1512 56.3406 29.4121 57.6985 29.4121 59.5172C29.4121 59.7597 29.4 59.9536 29.3757 60.184H24.0652C24.1501 61.5298 25.0958 62.2694 26.2234 62.2694C27.2176 62.2694 27.8481 61.7602 28.0906 61.0448H29.2787ZM31.9718 59.4808V63.0939H30.8685V56.4497H31.9718V57.5288C32.3476 56.7892 33.063 56.3284 34.1178 56.3284V57.4681H33.8268C32.772 57.4681 31.9718 57.941 31.9718 59.4808ZM34.9792 59.7475C34.9792 57.6743 36.3493 56.3406 38.1316 56.3406C39.3683 56.3406 40.217 56.971 40.6049 57.6621V56.4497H41.7204V63.0939H40.6049V61.8572C40.2048 62.5725 39.344 63.203 38.1194 63.203C36.3493 63.203 34.9792 61.8087 34.9792 59.7475ZM40.6049 59.7597C40.6049 58.2199 39.5622 57.2984 38.3498 57.2984C37.1374 57.2984 36.1068 58.1835 36.1068 59.7475C36.1068 61.3116 37.1374 62.233 38.3498 62.233C39.5622 62.233 40.6049 61.3237 40.6049 59.7597ZM43.1727 59.7475C43.1727 57.6743 44.5427 56.3406 46.325 56.3406C47.5375 56.3406 48.4104 56.9468 48.7984 57.6621V56.4497H49.9139V63.2394C49.9139 65.0702 48.6893 66.3675 46.7373 66.3675C44.9913 66.3675 43.7425 65.4824 43.5243 64.0638H44.6155C44.858 64.864 45.6461 65.4096 46.7373 65.4096C47.9133 65.4096 48.7984 64.6579 48.7984 63.2394V61.8451C48.3983 62.5604 47.5375 63.203 46.325 63.203C44.5427 63.203 43.1727 61.8087 43.1727 59.7475ZM48.7984 59.7597C48.7984 58.2199 47.7557 57.2984 46.5433 57.2984C45.3308 57.2984 44.3002 58.1835 44.3002 59.7475C44.3002 61.3116 45.3308 62.233 46.5433 62.233C47.7557 62.233 48.7984 61.3237 48.7984 59.7597ZM54.6034 57.2741C53.5243 57.2741 52.6271 57.9895 52.5058 59.2868H56.7009C56.713 57.9895 55.7431 57.2741 54.6034 57.2741ZM57.7072 61.0448C57.3677 62.2573 56.3008 63.203 54.6519 63.203C52.7604 63.203 51.3661 61.8693 51.3661 59.7597C51.3661 57.6621 52.7119 56.3406 54.6519 56.3406C56.5796 56.3406 57.8406 57.6985 57.8406 59.5172C57.8406 59.7597 57.8285 59.9536 57.8042 60.184H52.4937C52.5786 61.5298 53.5243 62.2694 54.6519 62.2694C55.6461 62.2694 56.2765 61.7602 56.519 61.0448H57.7072Z" fill="black"/>
<path d="M188.7 50.0939V41.7038H189.888L192.992 48.6389L196.096 41.7038H197.272V50.0939H196.169V43.8377L193.38 50.0939H192.604L189.803 43.8255V50.0939H188.7ZM205.448 46.7597C205.448 48.8693 203.932 50.203 202.041 50.203C200.162 50.203 198.731 48.8693 198.731 46.7597C198.731 44.6621 200.21 43.3406 202.089 43.3406C203.981 43.3406 205.448 44.6621 205.448 46.7597ZM199.859 46.7597C199.859 48.445 200.889 49.233 202.041 49.233C203.193 49.233 204.32 48.445 204.32 46.7597C204.32 45.0865 203.217 44.2984 202.077 44.2984C200.913 44.2984 199.859 45.0865 199.859 46.7597ZM208.002 46.4808V50.0939H206.899V43.4497H208.002V44.5288C208.378 43.7892 209.093 43.3284 210.148 43.3284V44.4681H209.857C208.802 44.4681 208.002 44.941 208.002 46.4808ZM214.247 44.2741C213.167 44.2741 212.27 44.9895 212.149 46.2868H216.344C216.356 44.9895 215.386 44.2741 214.247 44.2741ZM217.35 48.0448C217.011 49.2573 215.944 50.203 214.295 50.203C212.404 50.203 211.009 48.8693 211.009 46.7597C211.009 44.6621 212.355 43.3406 214.295 43.3406C216.223 43.3406 217.484 44.6985 217.484 46.5172C217.484 46.7597 217.472 46.9536 217.447 47.184H212.137C212.222 48.5298 213.167 49.2694 214.295 49.2694C215.289 49.2694 215.92 48.7602 216.162 48.0448H217.35ZM222.415 48.2752V44.359H221.554V43.4497H222.415V41.7765H223.518V43.4497H225.252V44.359H223.518V48.2752C223.518 48.9299 223.761 49.1603 224.44 49.1603H225.252V50.0939H224.258C223.082 50.0939 222.415 49.6089 222.415 48.2752ZM227.692 46.4808V50.0939H226.589V43.4497H227.692V44.5288C228.068 43.7892 228.783 43.3284 229.838 43.3284V44.4681H229.547C228.492 44.4681 227.692 44.941 227.692 46.4808ZM233.937 44.2741C232.858 44.2741 231.961 44.9895 231.839 46.2868H236.034C236.047 44.9895 235.077 44.2741 233.937 44.2741ZM237.041 48.0448C236.701 49.2573 235.634 50.203 233.985 50.203C232.094 50.203 230.7 48.8693 230.7 46.7597C230.7 44.6621 232.045 43.3406 233.985 43.3406C235.913 43.3406 237.174 44.6985 237.174 46.5172C237.174 46.7597 237.162 46.9536 237.138 47.184H231.827C231.912 48.5298 232.858 49.2694 233.985 49.2694C234.98 49.2694 235.61 48.7602 235.853 48.0448H237.041ZM241.455 44.2741C240.376 44.2741 239.479 44.9895 239.358 46.2868H243.553C243.565 44.9895 242.595 44.2741 241.455 44.2741ZM244.559 48.0448C244.22 49.2573 243.153 50.203 241.504 50.203C239.613 50.203 238.218 48.8693 238.218 46.7597C238.218 44.6621 239.564 43.3406 241.504 43.3406C243.432 43.3406 244.693 44.6985 244.693 46.5172C244.693 46.7597 244.681 46.9536 244.656 47.184H239.346C239.431 48.5298 240.376 49.2694 241.504 49.2694C242.498 49.2694 243.129 48.7602 243.371 48.0448H244.559ZM187.873 59.7597C187.873 57.6743 189.219 56.3406 191.111 56.3406C192.76 56.3406 193.839 57.1893 194.178 58.5836H192.99C192.76 57.7834 192.093 57.2741 191.111 57.2741C189.898 57.2741 189.001 58.135 189.001 59.7597C189.001 61.4086 189.898 62.2694 191.111 62.2694C192.093 62.2694 192.747 61.7966 192.99 60.96H194.178C193.839 62.2815 192.76 63.203 191.111 63.203C189.219 63.203 187.873 61.8693 187.873 59.7597ZM201.955 59.7597C201.955 61.8693 200.439 63.203 198.548 63.203C196.669 63.203 195.238 61.8693 195.238 59.7597C195.238 57.6621 196.717 56.3406 198.597 56.3406C200.488 56.3406 201.955 57.6621 201.955 59.7597ZM196.366 59.7597C196.366 61.445 197.396 62.233 198.548 62.233C199.7 62.233 200.827 61.445 200.827 59.7597C200.827 58.0865 199.724 57.2984 198.584 57.2984C197.42 57.2984 196.366 58.0865 196.366 59.7597ZM202.618 56.4497H203.806L205.879 62.0754L207.94 56.4497H209.116L206.51 63.0939H205.224L202.618 56.4497ZM213.027 57.2741C211.948 57.2741 211.051 57.9895 210.929 59.2868H215.125C215.137 57.9895 214.167 57.2741 213.027 57.2741ZM216.131 61.0448C215.791 62.2573 214.724 63.203 213.075 63.203C211.184 63.203 209.79 61.8693 209.79 59.7597C209.79 57.6621 211.136 56.3406 213.075 56.3406C215.003 56.3406 216.264 57.6985 216.264 59.5172C216.264 59.7597 216.252 59.9536 216.228 60.184H210.917C211.002 61.5298 211.948 62.2694 213.075 62.2694C214.07 62.2694 214.7 61.7602 214.943 61.0448H216.131ZM218.824 59.4808V63.0939H217.721V56.4497H218.824V57.5288C219.2 56.7892 219.915 56.3284 220.97 56.3284V57.4681H220.679C219.624 57.4681 218.824 57.941 218.824 59.4808ZM221.831 59.7475C221.831 57.6743 223.201 56.3406 224.984 56.3406C226.22 56.3406 227.069 56.971 227.457 57.6621V56.4497H228.572V63.0939H227.457V61.8572C227.057 62.5725 226.196 63.203 224.972 63.203C223.201 63.203 221.831 61.8087 221.831 59.7475ZM227.457 59.7597C227.457 58.2199 226.414 57.2984 225.202 57.2984C223.989 57.2984 222.959 58.1835 222.959 59.7475C222.959 61.3116 223.989 62.233 225.202 62.233C226.414 62.233 227.457 61.3237 227.457 59.7597ZM230.025 59.7475C230.025 57.6743 231.395 56.3406 233.177 56.3406C234.39 56.3406 235.263 56.9468 235.651 57.6621V56.4497H236.766V63.2394C236.766 65.0702 235.541 66.3675 233.589 66.3675C231.843 66.3675 230.595 65.4824 230.376 64.0638H231.468C231.71 64.864 232.498 65.4096 233.589 65.4096C234.765 65.4096 235.651 64.6579 235.651 63.2394V61.8451C235.25 62.5604 234.39 63.203 233.177 63.203C231.395 63.203 230.025 61.8087 230.025 59.7475ZM235.651 59.7597C235.651 58.2199 234.608 57.2984 233.395 57.2984C232.183 57.2984 231.152 58.1835 231.152 59.7475C231.152 61.3116 232.183 62.233 233.395 62.233C234.608 62.233 235.651 61.3237 235.651 59.7597ZM241.455 57.2741C240.376 57.2741 239.479 57.9895 239.358 59.2868H243.553C243.565 57.9895 242.595 57.2741 241.455 57.2741ZM244.559 61.0448C244.22 62.2573 243.153 63.203 241.504 63.203C239.613 63.203 238.218 61.8693 238.218 59.7597C238.218 57.6621 239.564 56.3406 241.504 56.3406C243.432 56.3406 244.693 57.6985 244.693 59.5172C244.693 59.7597 244.681 59.9536 244.656 60.184H239.346C239.431 61.5298 240.376 62.2694 241.504 62.2694C242.498 62.2694 243.129 61.7602 243.371 61.0448H244.559Z" fill="black"/>
</svg>
