<svg width="246" height="54" viewBox="0 0 246 54" fill="none" xmlns="http://www.w3.org/2000/svg">
<rect width="245.5" height="35" transform="matrix(-1 0 0 1 246 0.883667)" fill="#32B08C"/>
<path d="M67.344 42.1757V41.2785H73.0668V42.1757H70.7631V49.7292H69.6598V42.1757H67.344ZM75.5282 46.1162V49.7292H74.4249V43.0851H75.5282V44.1641C75.9041 43.4245 76.6194 42.9638 77.6742 42.9638V44.1035H77.3833C76.3284 44.1035 75.5282 44.5764 75.5282 46.1162ZM81.7729 43.9095C80.6938 43.9095 79.7966 44.6249 79.6753 45.9222H83.8704C83.8825 44.6249 82.9126 43.9095 81.7729 43.9095ZM84.8767 47.6802C84.5372 48.8927 83.4703 49.8384 81.8214 49.8384C79.9299 49.8384 78.5356 48.5047 78.5356 46.395C78.5356 44.2975 79.8815 42.9759 81.8214 42.9759C83.7491 42.9759 85.0101 44.3339 85.0101 46.1525C85.0101 46.395 84.998 46.589 84.9737 46.8194H79.6632C79.7481 48.1652 80.6938 48.9048 81.8214 48.9048C82.8156 48.9048 83.446 48.3956 83.6885 47.6802H84.8767ZM89.2914 43.9095C88.2124 43.9095 87.3151 44.6249 87.1939 45.9222H91.389C91.4011 44.6249 90.4311 43.9095 89.2914 43.9095ZM92.3953 47.6802C92.0558 48.8927 90.9888 49.8384 89.3399 49.8384C87.4485 49.8384 86.0542 48.5047 86.0542 46.395C86.0542 44.2975 87.4 42.9759 89.3399 42.9759C91.2677 42.9759 92.5286 44.3339 92.5286 46.1525C92.5286 46.395 92.5165 46.589 92.4923 46.8194H87.1818C87.2666 48.1652 88.2124 48.9048 89.3399 48.9048C90.3341 48.9048 90.9646 48.3956 91.2071 47.6802H92.3953ZM96.8052 46.395C96.8052 44.3096 98.151 42.9759 100.042 42.9759C101.691 42.9759 102.77 43.8247 103.11 45.219H101.922C101.691 44.4187 101.024 43.9095 100.042 43.9095C98.8299 43.9095 97.9327 44.7704 97.9327 46.395C97.9327 48.044 98.8299 48.9048 100.042 48.9048C101.024 48.9048 101.679 48.4319 101.922 47.5953H103.11C102.77 48.9169 101.691 49.8384 100.042 49.8384C98.151 49.8384 96.8052 48.5047 96.8052 46.395ZM104.17 46.3829C104.17 44.3096 105.54 42.9759 107.322 42.9759C108.559 42.9759 109.408 43.6064 109.796 44.2975V43.0851H110.911V49.7292H109.796V48.4926C109.395 49.2079 108.535 49.8384 107.31 49.8384C105.54 49.8384 104.17 48.4441 104.17 46.3829ZM109.796 46.395C109.796 44.8552 108.753 43.9338 107.54 43.9338C106.328 43.9338 105.297 44.8189 105.297 46.3829C105.297 47.947 106.328 48.8684 107.54 48.8684C108.753 48.8684 109.796 47.9591 109.796 46.395ZM117.637 49.7292V45.9707C117.637 44.6127 116.898 43.9216 115.782 43.9216C114.655 43.9216 113.879 44.6249 113.879 46.0555V49.7292H112.775V43.0851H113.879V44.0308C114.315 43.3397 115.116 42.9638 116.013 42.9638C117.553 42.9638 118.729 43.9095 118.729 45.8131V49.7292H117.637ZM126.836 46.395C126.836 48.5047 125.32 49.8384 123.429 49.8384C121.549 49.8384 120.119 48.5047 120.119 46.395C120.119 44.2975 121.598 42.9759 123.477 42.9759C125.369 42.9759 126.836 44.2975 126.836 46.395ZM121.246 46.395C121.246 48.0803 122.277 48.8684 123.429 48.8684C124.58 48.8684 125.708 48.0803 125.708 46.395C125.708 44.7219 124.605 43.9338 123.465 43.9338C122.301 43.9338 121.246 44.7219 121.246 46.395ZM129.39 44.3096C129.79 43.6064 130.663 42.9759 131.875 42.9759C133.657 42.9759 135.027 44.3096 135.027 46.3829C135.027 48.4441 133.657 49.8384 131.875 49.8384C130.663 49.8384 129.802 49.1836 129.39 48.5047V52.8816H128.286V43.0851H129.39V44.3096ZM133.9 46.3829C133.9 44.8189 132.869 43.9338 131.645 43.9338C130.444 43.9338 129.39 44.8552 129.39 46.395C129.39 47.9591 130.444 48.8684 131.645 48.8684C132.869 48.8684 133.9 47.947 133.9 46.3829ZM139.002 48.4683L141.063 43.0851H142.202L138.201 52.8574H137.062L138.371 49.6565L135.692 43.0851H136.916L139.002 48.4683ZM146.132 46.395C146.132 44.3096 147.477 42.9759 149.369 42.9759C151.018 42.9759 152.097 43.8247 152.436 45.219H151.248C151.018 44.4187 150.351 43.9095 149.369 43.9095C148.156 43.9095 147.259 44.7704 147.259 46.395C147.259 48.044 148.156 48.9048 149.369 48.9048C150.351 48.9048 151.006 48.4319 151.248 47.5953H152.436C152.097 48.9169 151.018 49.8384 149.369 49.8384C147.477 49.8384 146.132 48.5047 146.132 46.395ZM160.213 46.395C160.213 48.5047 158.698 49.8384 156.806 49.8384C154.927 49.8384 153.496 48.5047 153.496 46.395C153.496 44.2975 154.976 42.9759 156.855 42.9759C158.746 42.9759 160.213 44.2975 160.213 46.395ZM154.624 46.395C154.624 48.0803 155.654 48.8684 156.806 48.8684C157.958 48.8684 159.086 48.0803 159.086 46.395C159.086 44.7219 157.982 43.9338 156.843 43.9338C155.679 43.9338 154.624 44.7219 154.624 46.395ZM160.876 43.0851H162.064L164.137 48.7108L166.198 43.0851H167.375L164.768 49.7292H163.483L160.876 43.0851ZM171.285 43.9095C170.206 43.9095 169.309 44.6249 169.188 45.9222H173.383C173.395 44.6249 172.425 43.9095 171.285 43.9095ZM174.389 47.6802C174.05 48.8927 172.983 49.8384 171.334 49.8384C169.442 49.8384 168.048 48.5047 168.048 46.395C168.048 44.2975 169.394 42.9759 171.334 42.9759C173.262 42.9759 174.522 44.3339 174.522 46.1525C174.522 46.395 174.51 46.589 174.486 46.8194H169.176C169.26 48.1652 170.206 48.9048 171.334 48.9048C172.328 48.9048 172.958 48.3956 173.201 47.6802H174.389ZM177.082 46.1162V49.7292H175.979V43.0851H177.082V44.1641C177.458 43.4245 178.173 42.9638 179.228 42.9638V44.1035H178.937C177.882 44.1035 177.082 44.5764 177.082 46.1162Z" fill="black"/>
</svg>
