<svg width="246" height="65" viewBox="0 0 246 65" fill="none" xmlns="http://www.w3.org/2000/svg">
<rect width="35" height="35" transform="matrix(-1 0 0 1 245.5 0.519043)" fill="#BF0978"/>
<rect width="35" height="35" transform="matrix(-1 0 0 1 210.5 0.519043)" fill="#D76FA0"/>
<rect width="35" height="35" transform="matrix(-1 0 0 1 175.5 0.519043)" fill="#E9B3CA"/>
<rect width="35" height="35" transform="matrix(-1 0 0 1 140.5 0.519043)" fill="#F5F5F5"/>
<rect width="35" height="35" transform="matrix(-1 0 0 1 70.5 0.519043)" fill="#7FC8AE"/>
<rect width="35" height="35" transform="matrix(-1 0 0 1 105.5 0.519043)" fill="#BBDFD1"/>
<rect width="35" height="35" transform="matrix(-1 0 0 1 35.5 0.519043)" fill="#32B08C"/>
<path d="M1.43358 40.9139H2.5369V48.4674H5.49526V49.3646H1.43358V40.9139ZM9.49197 43.5449C8.41289 43.5449 7.51569 44.2602 7.39444 45.5576H11.5895C11.6016 44.2602 10.6317 43.5449 9.49197 43.5449ZM12.5958 47.3156C12.2563 48.528 11.1894 49.4737 9.54046 49.4737C7.64905 49.4737 6.25474 48.1401 6.25474 46.0304C6.25474 43.9329 7.60056 42.6113 9.54046 42.6113C11.4682 42.6113 12.7292 43.9693 12.7292 45.7879C12.7292 46.0304 12.7171 46.2244 12.6928 46.4548H7.38232C7.46719 47.8006 8.41289 48.5402 9.54046 48.5402C10.5347 48.5402 11.1651 48.0309 11.4076 47.3156H12.5958ZM18.9626 47.5581C18.9626 48.6493 18.0047 49.4737 16.5377 49.4737C14.9858 49.4737 13.8946 48.625 13.8218 47.4126H14.9615C15.0221 48.0552 15.592 48.5402 16.5256 48.5402C17.3985 48.5402 17.8835 48.1037 17.8835 47.5581C17.8835 46.0789 13.9552 46.9397 13.9552 44.4664C13.9552 43.4479 14.913 42.6113 16.3922 42.6113C17.8592 42.6113 18.8292 43.3994 18.9019 44.6967H17.7986C17.7501 44.0299 17.2409 43.5449 16.3558 43.5449C15.5435 43.5449 15.0585 43.9329 15.0585 44.4664C15.0585 46.0425 18.9141 45.1817 18.9626 47.5581ZM25.2971 47.5581C25.2971 48.6493 24.3393 49.4737 22.8722 49.4737C21.3203 49.4737 20.2291 48.625 20.1563 47.4126H21.296C21.3567 48.0552 21.9265 48.5402 22.8601 48.5402C23.7331 48.5402 24.218 48.1037 24.218 47.5581C24.218 46.0789 20.2897 46.9397 20.2897 44.4664C20.2897 43.4479 21.2475 42.6113 22.7267 42.6113C24.1938 42.6113 25.1637 43.3994 25.2365 44.6967H24.1332C24.0847 44.0299 23.5754 43.5449 22.6904 43.5449C21.878 43.5449 21.393 43.9329 21.393 44.4664C21.393 46.0425 25.2486 45.1817 25.2971 47.5581ZM35.9795 42.7204V49.3646H34.8762V48.3825C34.4518 49.0736 33.6395 49.4616 32.7544 49.4616C31.2267 49.4616 30.0264 48.5159 30.0264 46.6124V42.7204H31.1176V46.4669C31.1176 47.8127 31.8572 48.5038 32.9726 48.5038C34.1123 48.5038 34.8762 47.8006 34.8762 46.3699V42.7204H35.9795ZM38.9457 45.7515V49.3646H37.8424V42.7204H38.9457V43.7995C39.3216 43.0599 40.0369 42.5992 41.0917 42.5992V43.7389H40.8007C39.7459 43.7389 38.9457 44.2117 38.9457 45.7515ZM43.4687 43.9571C43.893 43.2175 44.7781 42.6113 45.9542 42.6113C47.7486 42.6113 49.1065 43.945 49.1065 46.0183C49.1065 48.0794 47.7365 49.4737 45.9542 49.4737C44.7417 49.4737 43.8809 48.8675 43.4687 48.1401V49.3646H42.3654V40.3925H43.4687V43.9571ZM47.979 46.0183C47.979 44.4542 46.9484 43.5691 45.7238 43.5691C44.5235 43.5691 43.4687 44.4906 43.4687 46.0304C43.4687 47.5945 44.5235 48.5038 45.7238 48.5038C46.9484 48.5038 47.979 47.5823 47.979 46.0183ZM50.1466 46.0183C50.1466 43.945 51.5166 42.6113 53.2989 42.6113C54.5356 42.6113 55.3843 43.2418 55.7723 43.9329V42.7204H56.8878V49.3646H55.7723V48.1279C55.3722 48.8433 54.5114 49.4737 53.2868 49.4737C51.5166 49.4737 50.1466 48.0794 50.1466 46.0183ZM55.7723 46.0304C55.7723 44.4906 54.7296 43.5691 53.5172 43.5691C52.3047 43.5691 51.2742 44.4542 51.2742 46.0183C51.2742 47.5823 52.3047 48.5038 53.5172 48.5038C54.7296 48.5038 55.7723 47.5945 55.7723 46.0304ZM63.6142 49.3646V45.6061C63.6142 44.2481 62.8746 43.557 61.7591 43.557C60.6316 43.557 59.8556 44.2602 59.8556 45.6909V49.3646H58.7523V42.7204H59.8556V43.6661C60.2921 42.9751 61.0923 42.5992 61.9895 42.5992C63.5293 42.5992 64.7054 43.5449 64.7054 45.4484V49.3646H63.6142ZM69.74 49.3646V40.3925H70.8434V43.6783C71.2798 42.9751 72.1043 42.5992 73.0379 42.5992C74.5171 42.5992 75.6931 43.5449 75.6931 45.4484V49.3646H74.6019V45.6061C74.6019 44.2481 73.8623 43.557 72.7469 43.557C71.6193 43.557 70.8434 44.2602 70.8434 45.6909V49.3646H69.74ZM80.3204 43.5449C79.2413 43.5449 78.3441 44.2602 78.2229 45.5576H82.4179C82.4301 44.2602 81.4601 43.5449 80.3204 43.5449ZM83.4243 47.3156C83.0848 48.528 82.0178 49.4737 80.3689 49.4737C78.4775 49.4737 77.0832 48.1401 77.0832 46.0304C77.0832 43.9329 78.429 42.6113 80.3689 42.6113C82.2967 42.6113 83.5576 43.9693 83.5576 45.7879C83.5576 46.0304 83.5455 46.2244 83.5212 46.4548H78.2108C78.2956 47.8006 79.2413 48.5402 80.3689 48.5402C81.3631 48.5402 81.9936 48.0309 82.2361 47.3156H83.4243ZM84.6017 46.0183C84.6017 43.945 85.9718 42.6113 87.7541 42.6113C88.9908 42.6113 89.8395 43.2418 90.2275 43.9329V42.7204H91.3429V49.3646H90.2275V48.1279C89.8274 48.8433 88.9665 49.4737 87.742 49.4737C85.9718 49.4737 84.6017 48.0794 84.6017 46.0183ZM90.2275 46.0304C90.2275 44.4906 89.1848 43.5691 87.9723 43.5691C86.7599 43.5691 85.7293 44.4542 85.7293 46.0183C85.7293 47.5823 86.7599 48.5038 87.9723 48.5038C89.1848 48.5038 90.2275 47.5945 90.2275 46.0304ZM93.4499 47.546V43.6298H92.5891V42.7204H93.4499V41.0473H94.5532V42.7204H96.287V43.6298H94.5532V47.546C94.5532 48.2007 94.7957 48.431 95.4747 48.431H96.287V49.3646H95.2928C94.1168 49.3646 93.4499 48.8796 93.4499 47.546ZM1.43358 62.3646V55.7204H2.5369V62.3646H1.43358ZM2.00343 54.6414C1.57907 54.6414 1.25171 54.314 1.25171 53.8896C1.25171 53.4653 1.57907 53.1379 2.00343 53.1379C2.40353 53.1379 2.73089 53.4653 2.73089 53.8896C2.73089 54.314 2.40353 54.6414 2.00343 54.6414ZM9.19435 60.5581C9.19435 61.6493 8.23652 62.4737 6.76947 62.4737C5.21754 62.4737 4.12634 61.625 4.05359 60.4126H5.19329C5.25391 61.0552 5.82376 61.5402 6.75734 61.5402C7.6303 61.5402 8.11528 61.1037 8.11528 60.5581C8.11528 59.0789 4.18696 59.9397 4.18696 57.4664C4.18696 56.4479 5.14479 55.6113 6.62397 55.6113C8.09103 55.6113 9.06098 56.3994 9.13373 57.6967H8.03041C7.98191 57.0299 7.47268 56.5449 6.5876 56.5449C5.77526 56.5449 5.29028 56.9329 5.29028 57.4664C5.29028 59.0425 9.14585 58.1817 9.19435 60.5581ZM10.7519 62.3646V53.3925H11.8552V62.3646H10.7519ZM13.3234 59.0183C13.3234 56.945 14.6934 55.6113 16.4757 55.6113C17.7124 55.6113 18.5611 56.2418 18.9491 56.9329V55.7204H20.0646V62.3646H18.9491V61.1279C18.549 61.8433 17.6882 62.4737 16.4636 62.4737C14.6934 62.4737 13.3234 61.0794 13.3234 59.0183ZM18.9491 59.0304C18.9491 57.4906 17.9064 56.5691 16.694 56.5691C15.4815 56.5691 14.451 57.4542 14.451 59.0183C14.451 60.5823 15.4815 61.5038 16.694 61.5038C17.9064 61.5038 18.9491 60.5945 18.9491 59.0304ZM26.791 62.3646V58.6061C26.791 57.2481 26.0514 56.557 24.9359 56.557C23.8084 56.557 23.0324 57.2602 23.0324 58.6909V62.3646H21.9291V55.7204H23.0324V56.6661C23.4689 55.9751 24.2691 55.5992 25.1663 55.5992C26.7061 55.5992 27.8822 56.5449 27.8822 58.4484V62.3646H26.791ZM29.2722 59.0183C29.2722 56.945 30.6423 55.6113 32.4367 55.6113C33.4794 55.6113 34.4372 56.1448 34.8979 56.9086V53.3925H36.0134V62.3646H34.8979V61.1158C34.4978 61.8554 33.637 62.4737 32.4246 62.4737C30.6423 62.4737 29.2722 61.0794 29.2722 59.0183ZM34.8979 59.0304C34.8979 57.4906 33.8552 56.5691 32.6428 56.5691C31.4304 56.5691 30.3998 57.4542 30.3998 59.0183C30.3998 60.5823 31.4304 61.5038 32.6428 61.5038C33.8552 61.5038 34.8979 60.5945 34.8979 59.0304ZM43.9353 56.5449C42.8562 56.5449 41.959 57.2602 41.8378 58.5576H46.0328C46.0449 57.2602 45.075 56.5449 43.9353 56.5449ZM47.0391 60.3156C46.6996 61.528 45.6327 62.4737 43.9838 62.4737C42.0924 62.4737 40.6981 61.1401 40.6981 59.0304C40.6981 56.9329 42.0439 55.6113 43.9838 55.6113C45.9116 55.6113 47.1725 56.9693 47.1725 58.7879C47.1725 59.0304 47.1604 59.2244 47.1361 59.4548H41.8256C41.9105 60.8006 42.8562 61.5402 43.9838 61.5402C44.978 61.5402 45.6085 61.0309 45.8509 60.3156H47.0391ZM48.835 62.3646V56.6298H47.9741V55.7204H48.835V55.2476C48.835 53.7684 49.5624 53.1016 51.2599 53.1016V54.023C50.2657 54.023 49.9383 54.3868 49.9383 55.2476V55.7204H51.3326V56.6298H49.9383V62.3646H48.835ZM52.8251 62.3646V56.6298H51.9643V55.7204H52.8251V55.2476C52.8251 53.7684 53.5526 53.1016 55.25 53.1016V54.023C54.2558 54.023 53.9285 54.3868 53.9285 55.2476V55.7204H55.3228V56.6298H53.9285V62.3646H52.8251ZM59.4342 56.5449C58.3551 56.5449 57.4579 57.2602 57.3367 58.5576H61.5317C61.5438 57.2602 60.5739 56.5449 59.4342 56.5449ZM62.538 60.3156C62.1986 61.528 61.1316 62.4737 59.4827 62.4737C57.5913 62.4737 56.197 61.1401 56.197 59.0304C56.197 56.9329 57.5428 55.6113 59.4827 55.6113C61.4105 55.6113 62.6714 56.9693 62.6714 58.7879C62.6714 59.0304 62.6593 59.2244 62.635 59.4548H57.3245C57.4094 60.8006 58.3551 61.5402 59.4827 61.5402C60.4769 61.5402 61.1074 61.0309 61.3498 60.3156H62.538ZM63.7155 59.0304C63.7155 56.945 65.0613 55.6113 66.9527 55.6113C68.6017 55.6113 69.6807 56.46 70.0202 57.8543H68.832C68.6017 57.0541 67.9348 56.5449 66.9527 56.5449C65.7403 56.5449 64.8431 57.4057 64.8431 59.0304C64.8431 60.6793 65.7403 61.5402 66.9527 61.5402C67.9348 61.5402 68.5895 61.0673 68.832 60.2307H70.0202C69.6807 61.5523 68.6017 62.4737 66.9527 62.4737C65.0613 62.4737 63.7155 61.1401 63.7155 59.0304ZM71.7349 60.546V56.6298H70.8741V55.7204H71.7349V54.0473H72.8382V55.7204H74.572V56.6298H72.8382V60.546C72.8382 61.2007 73.0807 61.431 73.7597 61.431H74.572V62.3646H73.5778C72.4017 62.3646 71.7349 61.8796 71.7349 60.546Z" fill="black"/>
<path d="M145.14 49.3646V40.9745H146.328L149.432 47.9097L152.536 40.9745H153.712V49.3646H152.608V43.1084L149.82 49.3646H149.044L146.243 43.0963V49.3646H145.14ZM161.888 46.0304C161.888 48.1401 160.372 49.4737 158.481 49.4737C156.601 49.4737 155.171 48.1401 155.171 46.0304C155.171 43.9329 156.65 42.6113 158.529 42.6113C160.421 42.6113 161.888 43.9329 161.888 46.0304ZM156.298 46.0304C156.298 47.7157 157.329 48.5038 158.481 48.5038C159.632 48.5038 160.76 47.7157 160.76 46.0304C160.76 44.3572 159.657 43.5691 158.517 43.5691C157.353 43.5691 156.298 44.3572 156.298 46.0304ZM164.442 45.7515V49.3646H163.338V42.7204H164.442V43.7995C164.817 43.0599 165.533 42.5992 166.588 42.5992V43.7389H166.297C165.242 43.7389 164.442 44.2117 164.442 45.7515ZM170.686 43.5449C169.607 43.5449 168.71 44.2602 168.589 45.5576H172.784C172.796 44.2602 171.826 43.5449 170.686 43.5449ZM173.79 47.3156C173.451 48.528 172.384 49.4737 170.735 49.4737C168.843 49.4737 167.449 48.1401 167.449 46.0304C167.449 43.9329 168.795 42.6113 170.735 42.6113C172.663 42.6113 173.923 43.9693 173.923 45.7879C173.923 46.0304 173.911 46.2244 173.887 46.4548H168.577C168.661 47.8006 169.607 48.5402 170.735 48.5402C171.729 48.5402 172.359 48.0309 172.602 47.3156H173.79ZM184.505 42.7204V49.3646H183.401V48.3825C182.977 49.0736 182.165 49.4616 181.28 49.4616C179.752 49.4616 178.552 48.5159 178.552 46.6124V42.7204H179.643V46.4669C179.643 47.8127 180.382 48.5038 181.498 48.5038C182.637 48.5038 183.401 47.8006 183.401 46.3699V42.7204H184.505ZM187.471 45.7515V49.3646H186.368V42.7204H187.471V43.7995C187.847 43.0599 188.562 42.5992 189.617 42.5992V43.7389H189.326C188.271 43.7389 187.471 44.2117 187.471 45.7515ZM191.994 43.9571C192.418 43.2175 193.303 42.6113 194.479 42.6113C196.274 42.6113 197.632 43.945 197.632 46.0183C197.632 48.0794 196.262 49.4737 194.479 49.4737C193.267 49.4737 192.406 48.8675 191.994 48.1401V49.3646H190.891V40.3925H191.994V43.9571ZM196.504 46.0183C196.504 44.4542 195.474 43.5691 194.249 43.5691C193.049 43.5691 191.994 44.4906 191.994 46.0304C191.994 47.5945 193.049 48.5038 194.249 48.5038C195.474 48.5038 196.504 47.5823 196.504 46.0183ZM198.672 46.0183C198.672 43.945 200.042 42.6113 201.824 42.6113C203.061 42.6113 203.91 43.2418 204.297 43.9329V42.7204H205.413V49.3646H204.297V48.1279C203.897 48.8433 203.037 49.4737 201.812 49.4737C200.042 49.4737 198.672 48.0794 198.672 46.0183ZM204.297 46.0304C204.297 44.4906 203.255 43.5691 202.042 43.5691C200.83 43.5691 199.799 44.4542 199.799 46.0183C199.799 47.5823 200.83 48.5038 202.042 48.5038C203.255 48.5038 204.297 47.5945 204.297 46.0304ZM212.139 49.3646V45.6061C212.139 44.2481 211.4 43.557 210.284 43.557C209.157 43.557 208.381 44.2602 208.381 45.6909V49.3646H207.277V42.7204H208.381V43.6661C208.817 42.9751 209.617 42.5992 210.515 42.5992C212.054 42.5992 213.231 43.5449 213.231 45.4484V49.3646H212.139ZM218.265 49.3646V40.3925H219.369V43.6783C219.805 42.9751 220.629 42.5992 221.563 42.5992C223.042 42.5992 224.218 43.5449 224.218 45.4484V49.3646H223.127V45.6061C223.127 44.2481 222.388 43.557 221.272 43.557C220.145 43.557 219.369 44.2602 219.369 45.6909V49.3646H218.265ZM228.846 43.5449C227.767 43.5449 226.869 44.2602 226.748 45.5576H230.943C230.955 44.2602 229.985 43.5449 228.846 43.5449ZM231.949 47.3156C231.61 48.528 230.543 49.4737 228.894 49.4737C227.003 49.4737 225.608 48.1401 225.608 46.0304C225.608 43.9329 226.954 42.6113 228.894 42.6113C230.822 42.6113 232.083 43.9693 232.083 45.7879C232.083 46.0304 232.071 46.2244 232.046 46.4548H226.736C226.821 47.8006 227.767 48.5402 228.894 48.5402C229.888 48.5402 230.519 48.0309 230.761 47.3156H231.949ZM233.127 46.0183C233.127 43.945 234.497 42.6113 236.279 42.6113C237.516 42.6113 238.365 43.2418 238.753 43.9329V42.7204H239.868V49.3646H238.753V48.1279C238.353 48.8433 237.492 49.4737 236.267 49.4737C234.497 49.4737 233.127 48.0794 233.127 46.0183ZM238.753 46.0304C238.753 44.4906 237.71 43.5691 236.498 43.5691C235.285 43.5691 234.254 44.4542 234.254 46.0183C234.254 47.5823 235.285 48.5038 236.498 48.5038C237.71 48.5038 238.753 47.5945 238.753 46.0304ZM241.975 47.546V43.6298H241.114V42.7204H241.975V41.0473H243.078V42.7204H244.812V43.6298H243.078V47.546C243.078 48.2007 243.321 48.431 244 48.431H244.812V49.3646H243.818C242.642 49.3646 241.975 48.8796 241.975 47.546ZM171.674 62.3646V55.7204H172.777V62.3646H171.674ZM172.244 54.6414C171.819 54.6414 171.492 54.314 171.492 53.8896C171.492 53.4653 171.819 53.1379 172.244 53.1379C172.644 53.1379 172.971 53.4653 172.971 53.8896C172.971 54.314 172.644 54.6414 172.244 54.6414ZM179.435 60.5581C179.435 61.6493 178.477 62.4737 177.01 62.4737C175.458 62.4737 174.367 61.625 174.294 60.4126H175.434C175.494 61.0552 176.064 61.5402 176.998 61.5402C177.871 61.5402 178.355 61.1037 178.355 60.5581C178.355 59.0789 174.427 59.9397 174.427 57.4664C174.427 56.4479 175.385 55.6113 176.864 55.6113C178.331 55.6113 179.301 56.3994 179.374 57.6967H178.271C178.222 57.0299 177.713 56.5449 176.828 56.5449C176.015 56.5449 175.53 56.9329 175.53 57.4664C175.53 59.0425 179.386 58.1817 179.435 60.5581ZM180.992 62.3646V53.3925H182.095V62.3646H180.992ZM183.564 59.0183C183.564 56.945 184.934 55.6113 186.716 55.6113C187.953 55.6113 188.801 56.2418 189.189 56.9329V55.7204H190.305V62.3646H189.189V61.1279C188.789 61.8433 187.928 62.4737 186.704 62.4737C184.934 62.4737 183.564 61.0794 183.564 59.0183ZM189.189 59.0304C189.189 57.4906 188.147 56.5691 186.934 56.5691C185.722 56.5691 184.691 57.4542 184.691 59.0183C184.691 60.5823 185.722 61.5038 186.934 61.5038C188.147 61.5038 189.189 60.5945 189.189 59.0304ZM197.031 62.3646V58.6061C197.031 57.2481 196.292 56.557 195.176 56.557C194.049 56.557 193.273 57.2602 193.273 58.6909V62.3646H192.169V55.7204H193.273V56.6661C193.709 55.9751 194.509 55.5992 195.407 55.5992C196.946 55.5992 198.122 56.5449 198.122 58.4484V62.3646H197.031ZM199.512 59.0183C199.512 56.945 200.882 55.6113 202.677 55.6113C203.72 55.6113 204.677 56.1448 205.138 56.9086V53.3925H206.254V62.3646H205.138V61.1158C204.738 61.8554 203.877 62.4737 202.665 62.4737C200.882 62.4737 199.512 61.0794 199.512 59.0183ZM205.138 59.0304C205.138 57.4906 204.095 56.5691 202.883 56.5691C201.671 56.5691 200.64 57.4542 200.64 59.0183C200.64 60.5823 201.671 61.5038 202.883 61.5038C204.095 61.5038 205.138 60.5945 205.138 59.0304ZM214.175 56.5449C213.096 56.5449 212.199 57.2602 212.078 58.5576H216.273C216.285 57.2602 215.315 56.5449 214.175 56.5449ZM217.279 60.3156C216.94 61.528 215.873 62.4737 214.224 62.4737C212.333 62.4737 210.938 61.1401 210.938 59.0304C210.938 56.9329 212.284 55.6113 214.224 55.6113C216.152 55.6113 217.413 56.9693 217.413 58.7879C217.413 59.0304 217.401 59.2244 217.376 59.4548H212.066C212.151 60.8006 213.096 61.5402 214.224 61.5402C215.218 61.5402 215.849 61.0309 216.091 60.3156H217.279ZM219.075 62.3646V56.6298H218.214V55.7204H219.075V55.2476C219.075 53.7684 219.803 53.1016 221.5 53.1016V54.023C220.506 54.023 220.179 54.3868 220.179 55.2476V55.7204H221.573V56.6298H220.179V62.3646H219.075ZM223.065 62.3646V56.6298H222.205V55.7204H223.065V55.2476C223.065 53.7684 223.793 53.1016 225.49 53.1016V54.023C224.496 54.023 224.169 54.3868 224.169 55.2476V55.7204H225.563V56.6298H224.169V62.3646H223.065ZM229.674 56.5449C228.595 56.5449 227.698 57.2602 227.577 58.5576H231.772C231.784 57.2602 230.814 56.5449 229.674 56.5449ZM232.778 60.3156C232.439 61.528 231.372 62.4737 229.723 62.4737C227.831 62.4737 226.437 61.1401 226.437 59.0304C226.437 56.9329 227.783 55.6113 229.723 55.6113C231.651 55.6113 232.912 56.9693 232.912 58.7879C232.912 59.0304 232.899 59.2244 232.875 59.4548H227.565C227.65 60.8006 228.595 61.5402 229.723 61.5402C230.717 61.5402 231.348 61.0309 231.59 60.3156H232.778ZM233.956 59.0304C233.956 56.945 235.302 55.6113 237.193 55.6113C238.842 55.6113 239.921 56.46 240.26 57.8543H239.072C238.842 57.0541 238.175 56.5449 237.193 56.5449C235.981 56.5449 235.083 57.4057 235.083 59.0304C235.083 60.6793 235.981 61.5402 237.193 61.5402C238.175 61.5402 238.83 61.0673 239.072 60.2307H240.26C239.921 61.5523 238.842 62.4737 237.193 62.4737C235.302 62.4737 233.956 61.1401 233.956 59.0304ZM241.975 60.546V56.6298H241.114V55.7204H241.975V54.0473H243.078V55.7204H244.812V56.6298H243.078V60.546C243.078 61.2007 243.321 61.431 244 61.431H244.812V62.3646H243.818C242.642 62.3646 241.975 61.8796 241.975 60.546Z" fill="black"/>
</svg>
