<svg width="246" height="66" viewBox="0 0 246 66" fill="none" xmlns="http://www.w3.org/2000/svg">
<rect width="35" height="35" transform="matrix(-1 0 0 1 245.5 0.519043)" fill="#BF0978"/>
<rect width="35" height="35" transform="matrix(-1 0 0 1 210.5 0.519047)" fill="#D76FA0"/>
<rect width="35" height="35" transform="matrix(-1 0 0 1 175.5 0.519047)" fill="#E9B3CA"/>
<rect width="35" height="35" transform="matrix(-1 0 0 1 140.5 0.519047)" fill="#F5F5F5"/>
<rect width="35" height="35" transform="matrix(-1 0 0 1 70.5 0.519047)" fill="#7FC8AE"/>
<rect width="35" height="35" transform="matrix(-1 0 0 1 105.5 0.519047)" fill="#BBDFD1"/>
<rect width="35" height="35" transform="matrix(-1 0 0 1 35.5 0.519047)" fill="#32B08C"/>
<path d="M1.43358 40.9139H2.5369V48.4674H5.49526V49.3646H1.43358V40.9139ZM12.9717 46.0304C12.9717 48.14 11.4561 49.4737 9.56471 49.4737C7.68543 49.4737 6.25474 48.14 6.25474 46.0304C6.25474 43.9328 7.73392 42.6113 9.61321 42.6113C11.5046 42.6113 12.9717 43.9328 12.9717 46.0304ZM7.38232 46.0304C7.38232 47.7157 8.41289 48.5037 9.56471 48.5037C10.7165 48.5037 11.8441 47.7157 11.8441 46.0304C11.8441 44.3572 10.7408 43.5691 9.60109 43.5691C8.43714 43.5691 7.38232 44.3572 7.38232 46.0304ZM15.7197 49.3646L13.6343 42.7204H14.7618L16.2895 48.2976L17.9384 42.7204H19.066L20.6785 48.3098L22.182 42.7204H23.2732L21.1999 49.3646H20.0602L18.4598 44.0905L16.8594 49.3646H15.7197ZM27.1932 43.5449C26.1141 43.5449 25.2169 44.2602 25.0956 45.5575H29.2907C29.3028 44.2602 28.3328 43.5449 27.1932 43.5449ZM30.297 47.3156C29.9575 48.528 28.8906 49.4737 27.2417 49.4737C25.3502 49.4737 23.9559 48.14 23.9559 46.0304C23.9559 43.9328 25.3017 42.6113 27.2417 42.6113C29.1694 42.6113 30.4304 43.9692 30.4304 45.7879C30.4304 46.0304 30.4183 46.2244 30.394 46.4547H25.0835C25.1684 47.8005 26.1141 48.5401 27.2417 48.5401C28.2359 48.5401 28.8663 48.0309 29.1088 47.3156H30.297ZM32.9901 45.7515V49.3646H31.8867V42.7204H32.9901V43.7995C33.3659 43.0599 34.0812 42.5991 35.1361 42.5991V43.7388H34.8451C33.7903 43.7388 32.9901 44.2117 32.9901 45.7515ZM40.7454 43.945C41.1455 43.2417 42.0185 42.6113 43.2309 42.6113C45.0132 42.6113 46.3833 43.945 46.3833 46.0182C46.3833 48.0794 45.0132 49.4737 43.2309 49.4737C42.0185 49.4737 41.1577 48.819 40.7454 48.14V52.5169H39.6421V42.7204H40.7454V43.945ZM45.2557 46.0182C45.2557 44.4542 44.2251 43.5691 43.0006 43.5691C41.8002 43.5691 40.7454 44.4906 40.7454 46.0304C40.7454 47.5944 41.8002 48.5037 43.0006 48.5037C44.2251 48.5037 45.2557 47.5823 45.2557 46.0182ZM48.9389 45.7515V49.3646H47.8356V42.7204H48.9389V43.7995C49.3147 43.0599 50.0301 42.5991 51.0849 42.5991V43.7388H50.7939C49.7391 43.7388 48.9389 44.2117 48.9389 45.7515ZM52.3585 49.3646V42.7204H53.4619V49.3646H52.3585ZM52.9284 41.6413C52.504 41.6413 52.1767 41.314 52.1767 40.8896C52.1767 40.4652 52.504 40.1379 52.9284 40.1379C53.3285 40.1379 53.6559 40.4652 53.6559 40.8896C53.6559 41.314 53.3285 41.6413 52.9284 41.6413ZM61.647 46.0304C61.647 48.14 60.1314 49.4737 58.24 49.4737C56.3607 49.4737 54.9301 48.14 54.9301 46.0304C54.9301 43.9328 56.4092 42.6113 58.2885 42.6113C60.1799 42.6113 61.647 43.9328 61.647 46.0304ZM56.0576 46.0304C56.0576 47.7157 57.0882 48.5037 58.24 48.5037C59.3918 48.5037 60.5194 47.7157 60.5194 46.0304C60.5194 44.3572 59.4161 43.5691 58.2764 43.5691C57.1124 43.5691 56.0576 44.3572 56.0576 46.0304ZM64.201 45.7515V49.3646H63.0977V42.7204H64.201V43.7995C64.5768 43.0599 65.2922 42.5991 66.347 42.5991V43.7388H66.056C65.0012 43.7388 64.201 44.2117 64.201 45.7515ZM67.6206 49.3646V42.7204H68.724V49.3646H67.6206ZM68.1905 41.6413C67.7661 41.6413 67.4388 41.314 67.4388 40.8896C67.4388 40.4652 67.7661 40.1379 68.1905 40.1379C68.5906 40.1379 68.9179 40.4652 68.9179 40.8896C68.9179 41.314 68.5906 41.6413 68.1905 41.6413ZM70.8469 47.5459V43.6297H69.986V42.7204H70.8469V41.0472H71.9502V42.7204H73.684V43.6297H71.9502V47.5459C71.9502 48.2006 72.1927 48.431 72.8716 48.431H73.684V49.3646H72.6898C71.5137 49.3646 70.8469 48.8796 70.8469 47.5459ZM77.5427 48.1036L79.6038 42.7204H80.7435L76.7425 52.4927H75.6028L76.9122 49.2918L74.2327 42.7204H75.4573L77.5427 48.1036Z" fill="black"/>
<path d="M166.757 49.3645V45.5332H162.452V49.3645H161.349V40.9138H162.452V44.6239H166.757V40.9138H167.86V49.3645H166.757ZM169.732 49.3645V42.7203H170.835V49.3645H169.732ZM170.302 41.6413C169.877 41.6413 169.55 41.3139 169.55 40.8896C169.55 40.4652 169.877 40.1378 170.302 40.1378C170.702 40.1378 171.029 40.4652 171.029 40.8896C171.029 41.3139 170.702 41.6413 170.302 41.6413ZM172.304 46.0182C172.304 43.9449 173.674 42.6112 175.456 42.6112C176.668 42.6112 177.541 43.2174 177.929 43.9328V42.7203H179.045V49.51C179.045 51.3408 177.82 52.6381 175.868 52.6381C174.122 52.6381 172.873 51.753 172.655 50.3345H173.746C173.989 51.1347 174.777 51.6803 175.868 51.6803C177.044 51.6803 177.929 50.9286 177.929 49.51V48.1157C177.529 48.8311 176.668 49.4737 175.456 49.4737C173.674 49.4737 172.304 48.0793 172.304 46.0182ZM177.929 46.0303C177.929 44.4905 176.887 43.5691 175.674 43.5691C174.462 43.5691 173.431 44.4541 173.431 46.0182C173.431 47.5822 174.462 48.5037 175.674 48.5037C176.887 48.5037 177.929 47.5944 177.929 46.0303ZM180.909 49.3645V40.3925H182.013V43.6782C182.449 42.975 183.273 42.5991 184.207 42.5991C185.686 42.5991 186.862 43.5448 186.862 45.4483V49.3645H185.771V45.606C185.771 44.248 185.031 43.5569 183.916 43.5569C182.788 43.5569 182.013 44.2601 182.013 45.6908V49.3645H180.909ZM191.49 43.5448C190.41 43.5448 189.513 44.2601 189.392 45.5575H193.587C193.599 44.2601 192.629 43.5448 191.49 43.5448ZM194.593 47.3155C194.254 48.5279 193.187 49.4737 191.538 49.4737C189.647 49.4737 188.252 48.14 188.252 46.0303C188.252 43.9328 189.598 42.6112 191.538 42.6112C193.466 42.6112 194.727 43.9692 194.727 45.7878C194.727 46.0303 194.715 46.2243 194.69 46.4547H189.38C189.465 47.8005 190.41 48.5401 191.538 48.5401C192.532 48.5401 193.163 48.0308 193.405 47.3155H194.593ZM197.286 45.7515V49.3645H196.183V42.7203H197.286V43.7994C197.662 43.0598 198.378 42.5991 199.432 42.5991V43.7388H199.141C198.087 43.7388 197.286 44.2117 197.286 45.7515ZM205.042 43.9449C205.442 43.2417 206.315 42.6112 207.527 42.6112C209.31 42.6112 210.68 43.9449 210.68 46.0182C210.68 48.0793 209.31 49.4737 207.527 49.4737C206.315 49.4737 205.454 48.8189 205.042 48.14V52.5169H203.938V42.7203H205.042V43.9449ZM209.552 46.0182C209.552 44.4541 208.522 43.5691 207.297 43.5691C206.097 43.5691 205.042 44.4905 205.042 46.0303C205.042 47.5944 206.097 48.5037 207.297 48.5037C208.522 48.5037 209.552 47.5822 209.552 46.0182ZM213.235 45.7515V49.3645H212.132V42.7203H213.235V43.7994C213.611 43.0598 214.326 42.5991 215.381 42.5991V43.7388H215.09C214.035 43.7388 213.235 44.2117 213.235 45.7515ZM216.655 49.3645V42.7203H217.758V49.3645H216.655ZM217.225 41.6413C216.8 41.6413 216.473 41.3139 216.473 40.8896C216.473 40.4652 216.8 40.1378 217.225 40.1378C217.625 40.1378 217.952 40.4652 217.952 40.8896C217.952 41.3139 217.625 41.6413 217.225 41.6413ZM225.943 46.0303C225.943 48.14 224.428 49.4737 222.536 49.4737C220.657 49.4737 219.226 48.14 219.226 46.0303C219.226 43.9328 220.706 42.6112 222.585 42.6112C224.476 42.6112 225.943 43.9328 225.943 46.0303ZM220.354 46.0303C220.354 47.7156 221.385 48.5037 222.536 48.5037C223.688 48.5037 224.816 47.7156 224.816 46.0303C224.816 44.3571 223.712 43.5691 222.573 43.5691C221.409 43.5691 220.354 44.3571 220.354 46.0303ZM228.497 45.7515V49.3645H227.394V42.7203H228.497V43.7994C228.873 43.0598 229.589 42.5991 230.643 42.5991V43.7388H230.352C229.298 43.7388 228.497 44.2117 228.497 45.7515ZM231.917 49.3645V42.7203H233.02V49.3645H231.917ZM232.487 41.6413C232.063 41.6413 231.735 41.3139 231.735 40.8896C231.735 40.4652 232.063 40.1378 232.487 40.1378C232.887 40.1378 233.214 40.4652 233.214 40.8896C233.214 41.3139 232.887 41.6413 232.487 41.6413ZM235.143 47.5459V43.6297H234.282V42.7203H235.143V41.0472H236.247V42.7203H237.98V43.6297H236.247V47.5459C236.247 48.2006 236.489 48.431 237.168 48.431H237.98V49.3645H236.986C235.81 49.3645 235.143 48.8796 235.143 47.5459ZM241.839 48.1036L243.9 42.7203H245.04L241.039 52.4926H239.899L241.209 49.2918L238.529 42.7203H239.754L241.839 48.1036Z" fill="black"/>
</svg>
